<mxfile host="app.diagrams.net" agent="Mozilla/5.0 (X11; Linux x86_64) AppleWebKit/537.36 (KHTML, like Gecko) Chrome/131.0.0.0 Safari/537.36" version="26.0.4">
  <diagram name="Page-1" id="XXsdsuv4R9hU1mQzIg1s">
    <mxGraphModel dx="493" dy="876" grid="1" gridSize="10" guides="1" tooltips="1" connect="1" arrows="1" fold="1" page="1" pageScale="1" pageWidth="850" pageHeight="1100" math="0" shadow="0">
      <root>
        <mxCell id="0" />
        <mxCell id="1" parent="0" />
        <mxCell id="uqWdyP-RkQtU8MaK-FNy-1" value="" style="rounded=0;whiteSpace=wrap;html=1;horizontal=1;verticalAlign=bottom;align=left;fontSize=18;fillColor=#f5f5f5;fontColor=#333333;strokeColor=#666666;shadow=1;" parent="1" vertex="1">
          <mxGeometry x="60" y="310" width="250" height="200" as="geometry" />
        </mxCell>
        <mxCell id="uqWdyP-RkQtU8MaK-FNy-2" value="&lt;span id=&quot;docs-internal-guid-d745c1cf-7fff-dd0d-55c0-47afd632f8ea&quot;&gt;&lt;p style=&quot;line-height:1.2;text-align: center;margin-top:0pt;margin-bottom:0pt;&quot; dir=&quot;ltr&quot;&gt;&lt;font style=&quot;font-size: 18px;&quot;&gt;&lt;span style=&quot;font-family: &amp;quot;Roboto Condensed&amp;quot;, sans-serif; color: rgb(28, 69, 135); background-color: transparent; font-weight: 700; font-variant-numeric: normal; font-variant-east-asian: normal; font-variant-alternates: normal; font-variant-position: normal; font-variant-emoji: normal; vertical-align: baseline; white-space-collapse: preserve;&quot;&gt; FAST-&lt;/span&gt;&lt;span style=&quot;font-family: &amp;quot;Roboto Condensed&amp;quot;, sans-serif; color: rgb(61, 133, 198); background-color: transparent; font-weight: 700; font-variant-numeric: normal; font-variant-east-asian: normal; font-variant-alternates: normal; font-variant-position: normal; font-variant-emoji: normal; vertical-align: baseline; white-space-collapse: preserve;&quot;&gt;DDS&lt;/span&gt;&lt;/font&gt;&lt;/p&gt;&lt;/span&gt;" style="rounded=0;whiteSpace=wrap;html=1;align=left;verticalAlign=bottom;fillColor=#f5f5f5;fontColor=#333333;strokeColor=#666666;shadow=1;" parent="1" vertex="1">
          <mxGeometry x="330" y="310" width="470" height="200" as="geometry" />
        </mxCell>
        <mxCell id="uqWdyP-RkQtU8MaK-FNy-3" value="uORB topic" style="rounded=0;whiteSpace=wrap;html=1;" parent="1" vertex="1">
          <mxGeometry x="80" y="330" width="80" height="30" as="geometry" />
        </mxCell>
        <mxCell id="uqWdyP-RkQtU8MaK-FNy-4" value="&lt;span id=&quot;docs-internal-guid-59f26c30-7fff-72bb-50ba-65a5df4f9f47&quot;&gt;&lt;p style=&quot;line-height: 1.2; margin-top: 0pt; margin-bottom: 0pt;&quot; dir=&quot;ltr&quot;&gt;&lt;font&gt;&lt;span style=&quot;font-family: Arial, sans-serif; color: rgb(32, 33, 36); background-color: rgb(255, 255, 255); font-variant-numeric: normal; font-variant-east-asian: normal; font-variant-alternates: normal; font-variant-position: normal; font-variant-emoji: normal; vertical-align: baseline; white-space-collapse: preserve;&quot;&gt;μ&lt;/span&gt;&lt;span style=&quot;font-family: &amp;quot;Roboto Condensed&amp;quot;, sans-serif; color: rgb(28, 69, 135); background-color: transparent; font-weight: 700; font-variant-numeric: normal; font-variant-east-asian: normal; font-variant-alternates: normal; font-variant-position: normal; font-variant-emoji: normal; vertical-align: baseline; white-space-collapse: preserve;&quot;&gt;XRCE-&lt;/span&gt;&lt;span style=&quot;font-family: &amp;quot;Roboto Condensed&amp;quot;, sans-serif; color: rgb(61, 133, 198); background-color: transparent; font-weight: 700; font-variant-numeric: normal; font-variant-east-asian: normal; font-variant-alternates: normal; font-variant-position: normal; font-variant-emoji: normal; vertical-align: baseline; white-space-collapse: preserve;&quot;&gt;DDS&lt;/span&gt;&lt;span style=&quot;font-family: &amp;quot;Roboto Condensed&amp;quot;, sans-serif; background-color: transparent; font-weight: 700; font-variant-numeric: normal; font-variant-east-asian: normal; font-variant-alternates: normal; font-variant-position: normal; font-variant-emoji: normal; vertical-align: baseline; white-space-collapse: preserve;&quot;&gt;&lt;br&gt;&lt;/span&gt;&lt;span style=&quot;font-family: &amp;quot;Roboto Condensed&amp;quot;, sans-serif; background-color: transparent; font-weight: 700; font-variant-numeric: normal; font-variant-east-asian: normal; font-variant-alternates: normal; font-variant-position: normal; font-variant-emoji: normal; vertical-align: baseline; white-space-collapse: preserve;&quot;&gt;client&lt;/span&gt;&lt;/font&gt;&lt;/p&gt;&lt;/span&gt;" style="rounded=0;whiteSpace=wrap;html=1;" parent="1" vertex="1">
          <mxGeometry x="210" y="330" width="80" height="110" as="geometry" />
        </mxCell>
        <mxCell id="uqWdyP-RkQtU8MaK-FNy-7" value="uORB topic" style="rounded=0;whiteSpace=wrap;html=1;" parent="1" vertex="1">
          <mxGeometry x="80" y="370" width="80" height="30" as="geometry" />
        </mxCell>
        <mxCell id="uqWdyP-RkQtU8MaK-FNy-8" value="uORB topic" style="rounded=0;whiteSpace=wrap;html=1;" parent="1" vertex="1">
          <mxGeometry x="80" y="410" width="80" height="30" as="geometry" />
        </mxCell>
        <mxCell id="uqWdyP-RkQtU8MaK-FNy-11" value="&lt;span style=&quot;font-variant-numeric: normal; font-variant-east-asian: normal; font-variant-alternates: normal; font-variant-position: normal; font-variant-emoji: normal; white-space-collapse: preserve; font-family: Arial, sans-serif; color: rgb(32, 33, 36); background-color: rgb(255, 255, 255); vertical-align: baseline;&quot;&gt;μ&lt;/span&gt;&lt;span style=&quot;font-variant-numeric: normal; font-variant-east-asian: normal; font-variant-alternates: normal; font-variant-position: normal; font-variant-emoji: normal; white-space-collapse: preserve; background-color: transparent; font-family: &amp;quot;Roboto Condensed&amp;quot;, sans-serif; color: rgb(28, 69, 135); font-weight: 700; vertical-align: baseline;&quot;&gt;XRCE-&lt;/span&gt;&lt;span style=&quot;font-variant-numeric: normal; font-variant-east-asian: normal; font-variant-alternates: normal; font-variant-position: normal; font-variant-emoji: normal; white-space-collapse: preserve; background-color: transparent; font-family: &amp;quot;Roboto Condensed&amp;quot;, sans-serif; color: rgb(61, 133, 198); font-weight: 700; vertical-align: baseline;&quot;&gt;DDS&lt;/span&gt;&lt;span style=&quot;color: rgb(0, 0, 0); font-variant-numeric: normal; font-variant-east-asian: normal; font-variant-alternates: normal; font-variant-position: normal; font-variant-emoji: normal; white-space-collapse: preserve; background-color: transparent; font-family: &amp;quot;Roboto Condensed&amp;quot;, sans-serif; font-weight: 700; vertical-align: baseline;&quot;&gt;&lt;br&gt;&lt;/span&gt;&lt;span style=&quot;color: rgb(0, 0, 0); font-variant-numeric: normal; font-variant-east-asian: normal; font-variant-alternates: normal; font-variant-position: normal; font-variant-emoji: normal; white-space-collapse: preserve; background-color: transparent; font-family: &amp;quot;Roboto Condensed&amp;quot;, sans-serif; font-weight: 700; vertical-align: baseline;&quot;&gt;agent&lt;/span&gt;" style="rounded=0;whiteSpace=wrap;html=1;" parent="1" vertex="1">
          <mxGeometry x="350" y="330" width="80" height="110" as="geometry" />
        </mxCell>
        <mxCell id="uqWdyP-RkQtU8MaK-FNy-13" value="" style="endArrow=classic;startArrow=classic;html=1;rounded=0;" parent="1" edge="1">
          <mxGeometry width="50" height="50" relative="1" as="geometry">
            <mxPoint x="165" y="344.66" as="sourcePoint" />
            <mxPoint x="205" y="344.66" as="targetPoint" />
          </mxGeometry>
        </mxCell>
        <mxCell id="uqWdyP-RkQtU8MaK-FNy-14" value="" style="endArrow=classic;startArrow=classic;html=1;rounded=0;" parent="1" edge="1">
          <mxGeometry width="50" height="50" relative="1" as="geometry">
            <mxPoint x="165" y="384.66" as="sourcePoint" />
            <mxPoint x="205" y="384.66" as="targetPoint" />
          </mxGeometry>
        </mxCell>
        <mxCell id="uqWdyP-RkQtU8MaK-FNy-15" value="" style="endArrow=classic;startArrow=classic;html=1;rounded=0;" parent="1" edge="1">
          <mxGeometry width="50" height="50" relative="1" as="geometry">
            <mxPoint x="165" y="424.66" as="sourcePoint" />
            <mxPoint x="205" y="424.66" as="targetPoint" />
          </mxGeometry>
        </mxCell>
        <mxCell id="uqWdyP-RkQtU8MaK-FNy-20" value="" style="rounded=0;whiteSpace=wrap;html=1;" parent="1" vertex="1">
          <mxGeometry x="460" y="330" width="80" height="110" as="geometry" />
        </mxCell>
        <mxCell id="uqWdyP-RkQtU8MaK-FNy-19" value="" style="shape=image;verticalLabelPosition=bottom;labelBackgroundColor=default;verticalAlign=top;aspect=fixed;imageAspect=0;image=data:image/png,iVBORw0KGgoAAAANSUhEUgAAARgAAAEYCAYAAACHjumMAAA9JUlEQVR4nOzdB3yUVb438DO9zyQzmZJJ7x1SICEQSugdBEVFRQW7rq7r1d193b3urq5r2dW1VywIiqL0Lp0QWkJ678lkMpmZZDIzmV6e9xNWuSwQSMJzZgL8v5+rdw3k/J+BzG/Oc55TqAgAADCBgAEAYAMBAwDABgIGAIANBAwAABsIGAAANhAwAABsIGAAANhAwAAAsIGAAQBgAwEDAMAGAgYAgA0EDAAAGwgYAAA2EDAAAGwgYAAA2EDAAACwgYABAGADAQMAwAYCBgCADQQMAAAbCBgAADYQMAAAbCBgAADYQMAAALCBgAEAYAMBAwDABgIGAIANBAwAABsIGAAANhAwAABsIGAAANhAwAAAsIGAAQBgAwEDAMAGAgYAgA0EDAAAGwgYAAA2EDAAAGwgYAAA2EDAAACwgYABAGADAQMAwAYCBgCADQQMAAAbCBgAADYQMAAAbCBgAADYQMAAALCBgAEAYAMBAwDABgIGAIANBAwAABsIGAAANhAwAABsIGAAANhAwAAAsKG+9NJLLH9fBADg5gPZAgDACm6RAADYQMAAALCh+/sCALhVyYND0LLld0a4PChU32NAvQYzstntyOF0IhqNhtgsFuKwmUgiDkBSSSBCHmfL9h1b1ar2Fn9f+pBR/H0BANyM6AwWYnEEKDs7W9FndoQkpaSkNrd0xiUlp4WazJbxKrWW3mPoo9BotDAKhcImvATyEl5EEAid/xdl4P8G/kVBVCoFUSkU5PUSVrfH3RkgEhChSrlTKOCdrCwv1aUmx/SoVKpCBtXbcfr0yU5jT5e/X/4FEDAAXCcmi43CI2JpkVGxcVJFWLrBbMvgCQJTGltUyVarTen1EizifHLgQ6EgRKPSXDw+V50UF3nObNCcQ17nsX6jvry4srzP1N2Jtf6g1+WXqgDc4CZMmIA8FDYvLj55SoA0LL/wTPkyi9UW5fF4R8245kDPh81mmSaMS9spC2R+WXz6xLF9e7Y7fXkNEDAADIFAIETjcyZyvRTGhEBpRIa+zzbX3G8dbzJbRP6+tqGSSyVtsRHyj/RdDTuKi07VaDWdeLtVEDAAXN3ESZMoIkloLIMX/IBG17tGpzfIKZQb920zcKtGo1I94WGKXXk5KR+Unz18YOuWLV5c9W7cPykAMBCJRCgpZQzTSbCyQsMT56u6e+f3W2xjXS437UYOlksNBA2TwSDiY8NPxEdJ3z20b/v2kuLTDrLr3Dx/YgBcB4kkCE3KnxseETPm0SMFRSutNkek10ugmyhTBjUQnInRIftDFZz7vvz8I63TbiWv7ZF8E4fHQ6EREchislFMZgui02lIJBQgHpdNVFeVk3Zx/iKXKVCAOIhiNJmRud+KWGwmEgn5iM/lEBXlpf6+vOvG4fJQSGg4xWTqRxarHXE4LCQSCZDLZiHaO9r9fXk+Q2dy0Io771R4KPxZToK9oLa+ZYHD6eL7+7r8RSTkayOUAa/0aJo+P354n42MNoccMMGhkSghKS08JDRqps1Ny3W5iGn63j52r8GEmEw6CpIEosAAod7ttBYE8mn7Ve1Nhw7+vNeCCA8Z14mdMjSSkjl+YoobMTNkivAFPb19E3U9fZS+PjPicNkoSByAJIHCPgrh2ut1mn4sLT1T3NJY53Y7Se9VYhEoCaMsXLQwxWR1z7W5qJlUGmOivrePZjJZEJ/PRUGSABQgFDTaLYY9hMt8qEfXWVpcdMbtsJPyczZqMFlslJM7lR8Zm7zUSbBuK62on+9yudn+vq7RRBksLc0bn/DCpo1fHmiqq7mugeAhBcz9Dz8dbPdwPyspr5vp9niuuUJyoFvJ5bC78nJS/txYU/z1z3u2u6/nInHicAXowYefzmjuNL3e1NIxw+O99mNGCgURASJh64JZOW/s2vrdx8VnCn1zsSMgCpCiVQ/9ZnFVg/qVto6uZIIgaNf6HiqFgqRScWlMuOQFvar65717dvvmYjFLSk5FM+ffsargbN2bRlO/zN/XM5pRqRTvgtmT3/5557f/U11xbsTtXDVg7rn/4RA6T/HbopLaB6w2e9BIBrmkQQE1WWnR76haKtdu3/LjqAqa+UvvCZEGx7x9tqR6kd3hHPanGIVC8YoDhQeDRPTXakpPHGptrsdzoSPA4XDRmseeTW/TWF6oa2xb7nZ7mMNtg0ajuiPDlMfjIgJ+f2T/1rPV1dV4LtZHsifkofix+ScKz5RN9Pe13AgGfr4VMsmGQI79T8cP7Wo3Go3DbmPQT7OMnHxBv0d4tKqmeYnb4+GOdATdarVLm9o0C2XBkVGhSvmOlqY6bI/EhuPVN95LLixp3dfYoprs9nhGuiaLYrM5Yoxm591BivAmeSC7sqtLTfKVDl9oaChKypiSWNdiOKbW6Md7vdfutVwJQRBUQ58pStVtXHXPPffqOtubi3v0OvIv2EdCQsORRBH1cEdnd6i/r+UGQem3WMfSmIKFoUrF+tbmWvtwG7jsB08RrET3rf5NeovG+q2hrz+LrEdzWr1hLIXOVVrNPbsdtn7sE3wGw2CyUP7cuzIq6rt29hn7o8ho00sQNJvdvWRK/qwwJs27t6O91W8hGhkVQ/n9/77xSMHZunWWEfY6L+V2e+gV1U3zklMz+lTtjaedjhtzXOaXgHkIAmZ4zBabhMESZiuCQ7d3dTQMK2QuG29IHzc54GRpyzarzTWJ1KtECBmM1ocS0qe/GCiWkN30kK1+9Nl0Ta/ziK6nL5zMdgmCoO8/dOrh1KypT4glQWQ2PSwr739s3jsfb/zYarPLyJy34fZ4aBW1rW89/dyfFgdJYfjiVjLwU9RjMOa7KPyDEXGZgcP53v8KmNUPPcZiCpTfmswWUt98F+sz2f68YtXTDyqUYbhKDOreB5/kNHeaPrfZHUJcNY6dqvjT0rsem8YXBuAqMajf/eGvYfuOlP7b7fFgmb1BEARt36GijyZMWahksuDBy63GYrVniJWJPyWNnTjkkLkQMLFxiaijB/2hsqZpHrYrPN/ddtMPFZR+MGXG4mycdS61YPEyZp+dsbupRZWFs47T6Qo6U1K/a83DT8bjrHOpSZPnCooqO34yGM1xOOsYjGZlV6+z4P7Vj0tx1gGjk9HUny+Qxp7+ze/+nDCU338hYFY/+kxGe2f3/8N6db/weDycfgftuSnT5/qi3PlBz3kLly+orm2e5ot6Fpuda7TRH8+ekOeLcudf39jxk+5TdWrH+6Jer8EY5aEFPDhQFwwfQRAX/qHTaR6hgOeRBQV6wkLkA/+/kyCIzXQa7eewELlDqZB6xIEiD5vF9BDnv/U/3+dP+p6+uPp2w0fzFtx2zZ7y+YCJT0xB1Q3qF5xO97AfZY5UY3PHIkFgaJpIhH8x6qy5SyiHCkqfxl7oFwN/6mdLqu9LSElX+KLesjtXMavq25/wRS30y9Ty0oq6R1c9+CjPVzVvVP8JEbonQCToEQcKj8ycmrNFHsh+Lj1R+Vh+btwMm646pKf9rLKv85zS3FWqpFmbYvs7Ty3nuJpn23UVwSZ1idLQUaTUtpwOyU5RZGQmhzwil/BeiAxX7hUJ+fqBvwt/BE5jc/s0kSLxX5OmTL9qyJx/PJudO01cUd2wyJeLudweD4fND/xLWGTccmNZEdZa47In5rz18Q9TsBa5hNVml9A50gfFYvE/ent7sdWRBAWhxtaefJVam4KtyBUYjOZoQUDo/VJ58Ie67tGzg9poweOyjaFK+SlpUMDPbQ0lm+moX9OlVtk+PbR+SN+v052fDmC4+Gvfr/+0GyFUNvC/k5OT38wal80NT8yd29SkfrCqtnm6xWrj4nk1lyMIRDlzruqZaROy9584dmjvYL/vfMDEJ6UvPlGynefr1aKV1U2zUpPGSCvLirBNrpDLFaiwqHoGQRA+3Qho4M+ypq75vvCYtDd7e49im2AYH5+E+MKA1QTh+zf5kcKiVcHByo913V2jYm6TPzGZDKs0KPAU4bbssZu0RRSPobiuuNi8p7kJS73q6uqBf6wIfbVZrlBuHjM2KzgoLnZGc4d2ja7XPMVHG/pTqxrUr+XPWnTs8M87rrhCkp4/fRaqqW+Z6Y+l6C63W6AMj81HCP2Aq0ZwSAS1sUW1Elf7V6PVG5JmTMhJKT17tAxXjRmzFgTuPFy2EFf7gxn4eWlTacYoFZEBCBXj66KNYjQqlRAKeU1z8nO/aWsq/+zQ0d1dXa0qn19Ht0aNftaoBz5h1meNn/jttNypK4vKmz/qt9iwL9zU9fSNnZo79mFp6el3dDrtZb9OrW/VUsurGnwzGnkF9c2daTjbnzxtVrTJ1J+Is8bVOL3UDJztHzh2VmYyW3zWNb6Yw+HkBIqlOf6o7S9UKgUFSQLals6f9m6Ugp3DdqkTX/3fp/624etP/RIulyo+W+jdvmnt+ggZIyU7M+UdGo3mwl2ztKr5TyvuefiK443UO5YtjnU4nSG4L2IwWm2vMC4O3xPdMyXVHJfb47d9Url80Tic7S9ftniq/54qUFBZVYPAT8V9isthm7PGxP2bz7Bk9GtKY9/6+++e2b9r49kTBYdH3XYBep0W7di8vr3g5+9+GxVMGyuXSrCuxjWa+oPKa1X/zpucf9ltENXh8ij9eT5SYnxUniIY3+PODlU3w+v13xBBfVMb1nArr2ryS+8F/bJq/t47V6SlpGDthPrNQHAL+Fxt9rjk52NDmAlHdq97tvTUgdLqyvJRtWh3MKr2VrR/x481ykBicUJs+NaBl4SrlkZnvD0yfmz6pV+nqjq7kT8fqxtN/XxTP3k7aF1qzf13ZGJrfAjUXXgXB7Z1dPl1Y0KDyRQl8MOsZcy8YUp5w8wpWS/EhzBTD25d+8+tm9Z3/fJk54bz0/df9Zw6vHlZkFjwN1xDrR6vl6bSmJ7OGvffU7GoIUq5X7cFFAl5RgGPg639bzZsasDW+BAEK/BOeI0IVeD8YLomhVzS0G/u81t9silkklPz8sfNCBZaUz579y9vbtq4TnejBsvFDHo10V5T8Fe5VPIVrhq6XvOK2+5cI7/4a1SbxdiBEMI+EDSYusa2gqpKfNtQymSyXirVf0fVxMdiW9Z1XmpyrF8fEa/9cn11ZWWFPy+BDF65VHwmMyX83s7Gk1M+eOt/j2z8boPf3hO4aNRtBM3Z/VR8TPhpHO1bbQ5uZV3bqtiLxlSpu/YdbqFSqH6bKcXjcqwGgwFb+8mJ0S4GfUTboZAiLjr88md3JDL16f22STBBECguJvzG2DN0EHwe17r67sUvGDtqJ/y4/v0NbU21N12wXKyi9KQlJixwWZAkoJXstgfuhNo7NM8npmZcuCWhjk2O9qYlx3aTXWyoUpOianG239FU08Rhsxpx1riandu37sHZfn19fRWPy/HLBi0MBt1BRa4z/qh9vThslnbu9Jy/h0ooCZ998PK/qmtO+XeBj4/0GQzog7dfVifHhaym0aikD1ZrtHppdm7+hR0DqUWnj6OJ2WM+9sejTjqdZtSomrC+ASsqzrni4yI+w1ljMHKZuEOr1RTjrNHeVNUTHxuxGWeNKxn4eQlVyotUrQ1++3AaLuL842aWKn9Sxot8miF6w+dv/Gn3tu9UbW1t/r40n9u3bf3hZQunY1jcTEHdeuOy+MTk8/9FNRqNqOhs4U8CPs9MfrGrS0uOreo3GXpw1tB2a1BOZsJBCgX5dL7CwBswPibiex7LjfWRZlNjLTKaTF/4Yyb2hPGpX3WpVTfMJ39rUz1qqjx25+YN7716uuCAZSR7zN4sutQdSKtqeCc8VE76RstF56ozZNL/jPWeH/3ct3OzMSk+cosvOzF0Gs2VmhDxWm3lyHcsH6rNm344lxgXdRB7oYuwWEytx6Z/48ypU1jr6PV6xKdbjysVQT4dixEJ+PXNNSUbtN3+34N4qHQ6LTp4YL/XYLglVzZc5oeNXzkzU6P/QPbdi81uHysLjTq/KdX5gOnt6UZzp2e/y2DQfPZEIixEvunbjWt3dPjgoK/jh3cTY5PC38Ve6CIxESFfHTm0xyfPN7f9+I0rNTHiA1/UQr/caoQFB320ccPaG3NzXnCepd+M6iqL94cqZRoy2zX3W7mLF982E1284nLjhi/OTZ2UtYnMQoM5fxxGsODfDeUlvih33vGj+/dHhgfv80UnjcNmmUPlvI9Vbc0+qPYfLQ1V34cES30ymC3kcxskImKdL2oBvIrOnnRMnZT5Jtntbtl5OFkoFP5fwOzbs5Pg0W0PxUaFYh2UpFAQmjs99926qrNncda51PHD+1xLZmXdJ5UEYB3zoVKprrGpcSt/2vhlC846lzp5bJ/5vttnLWKzmFgfizOZDGdytOyeLZs2wH3GTaBb04lEXOo3Aj6XtOn0FAoFCfjcxXMX3fbfx5acKjzuzEhPLzTbiVVOp4v03e0G7vXkQQHrq8sKnjh39oTPBwdPFRZYc3MnnevSGZd4vQSWXavTkyM/7NfVvlNWin9s6WIOhx3t3bNTv2jR4va2Tt1ygiBwjPp6o5SSJyqLj+zo6vL/ymFADqfDbg2PTpra1a2PIatNu93pULU2vnfZDLTWljrtbYsX7rc4vNnmfiupWz5GhskPRAczHjqwdzu+xUdXYbfbUXVlcXNoWPRWJps/x+F0Sch6Fw6kdlSY7MvW+tNPFh4/6pcnK16PG+k07VVz5s5r6db1zXS53Nc85neoaDSqKzk+9E8N5UffbWrEOnUJ+JjV0o/SMvNkLe3qOWQ9jbTZHYwxieGfXzaH3mqxoPfeerlYyLDkBYgEpN0uJSdGf4BsnXO//uIzrLco1+J2OVFJ4Y7aCekRiyWBQlIW0dCoVEdGStRfArjWR6rKzvl1+X5HeyvauenTb8bEyyYxmQxSbpdYTKZres7kB8tP7n69sQHC5Waj0+kQm+E5TuaSGgoF8ULCQhMHnUPfUFfpGpeevEUZFk0z91vSXS43YySFpJKAivxJY56rLDr45qkTR0bN1oq11aX6BXOm7eEJxFxDnynO4/WO5JaQiAwPrgyVCR8tPbnns8KCY6Pi9ZnNZlRbVaadN2f6TrFEHqbrMcSNZMtQKoXilAUF7MnNjH7ip+/f36FWw23RzWre/IVEU1v3b10uN0kpQ0HI6/z6mv0hhSIYPfvCS2mFxfWv1za0zna53Ndc2DPQzWLQ6V0rbpv1RUtN8SvfrPts2Gfa+gqDxUX3PvB4pkpr+7C1Q53l8XivuTcOlUpBHDZbtWBWzv+rLT/17dbNP4y6TYd+JZEq0eLbV82pa+5+Q9djGOPxXDsDqVSKVyTk1+VNSHtu87ef7unw4dMw4B8zZi+gqE3sWofDRdrub1yG6/IdqAaTlDIGyRRhsUHysCyOQDpfrdFmd2t7qU6XS0YQhE0kFJjlMrGLy6Iftff3bKooPXOyr0ftuFFmS0oVISh1zPj4qNikeXYXZU5nly6mW9uDXC63AFEoNolY5FbIJG6xSHiip7d5U2lxUUFnS6PN67kx1sblTZ5GV4bHZitCoufpevtntXdqArU6A9Xr8fApVKpZFhRIyGViE4/L2tfWXPtjU01Jua5b7XW5bui1jGCIQsKjUWLm7KKWNjVpBxPazPqhB8yV0BhsNGZMKj9IIrX/vH/PDbHL13BQGWyUFB9PczjsnsbGen9fDukGXl9GegatvbXRczPseQJGLjl1DMrKW3L2xOky0rZ4tZmuM2AAADeH+PgEFJWa/2VDi/oBstocCBi/7cULABg96uvrkIsbX0/2oln/bfUGABg1xGIxQl436ZNPIWAAACgyKgYtmDON1PPROFyW/44rAQCMHjabHRmMJhFZ7Q3caYWFKKAHAwBAyGi2oK5u8ibZUxAFRUeG+vZAeADA6LRk4UKqplsvIa1BCvKw6J5OCBgAAOKIxEoqlUraGTssJlO9Y/fBFhiDAQCgqrp2udVmJ63DkZQQ1e9S0r3QgwEAIBZHlEfW3rwDzbBZzJ21lSUwBgPArW5sZg7q77dOIG+SHYEy0hLq6+pq4SkSALe6v/71FW63rnc6We2xWUxnTXXlLgQT7QC4tcmkcnSksGyO3eGUkdWmUMBraqgtO7/ZGQQMALcwiUyOikqrV3u95O2VJpeKSgyG3vN7JEHAAHALy8qekqbVGUjbi5cgCJSbk/lzecl/jiyHgAHgFsXhBSCCIbrH7fGMaDvcKwkQCfprSs/s/PW/IWAAuEXds+pBQXl144NktTfQewkJlu2pq6vQ//o1CBgAbkGRUfGIwZX90WKxkTa4y6DT3Tm5qe9Xlv/fMekQMADcglIyJoQeOHr6GTLblEkDK4qO7DtmsfRf+BoEDAC3mFnzFiFBgPIvHo+XS2a7YYrA72qry//raxAwANxCpNIgFBGVlF5SWb+KzHZZTIaBRnGsraur+6+vQ8AAcAtZcdcqYVtX/1cjPUhxMElxYX8/dmh376VfH9ZqaoFAgJLTsvh8UdBkBouf3dGpoRr6TIhKpSKlQorCQhROm9V0XNVaf7K89OyNcWDQRSIio1FUXEpobFzi9NYOTXSHSkMxmS2IwaCjUKUMRYQrDW0tTcfcDnPlmZPHnP6+3uEKFAehyJhUhSw4JN/h8iZ0dHZTrFY74rBZKDREjiJCg00dHS0/lxWfrDD0dPvlfG2AD4PJQm1a5zNNraqxZLarkEvKtermd9tbLz+gb0izayZPnU7Nypk6oavHtrqkvH6p2+0edGMaKpWCREJ+/bRJWeu62ms2bNq4vtXltF3nS8ArMjaFcd/9jyypqGt/uK6hdZrD6Rr0GFkajYrkUnHL1LystQf3bXvv1LH9Jt9e7fDddvtK1tQZC+/de7DwoebWzrFuj4cz2O+l02jesBD52dDgwLVdbZXf7d+zo9+3Vwtwufvex5WlDdp6h9PFI7PdedNzHv3gXy9+eqVfu2rAyIND0ZwFd+RqDfZXG1vVU7ze4a2+Fgp45tzxY97Wd1a/v3/PDp3RSMpZ86RJSsmgzFmwbHZju/731XUt+cP9fnGAsGNcevxnus66j3/6YcOoO7ksSB5GW/3ob1ecPlf7Ykdnd8pwv18WFFiWFBP8z47m8s0H9u+24rlK4AvTZ81DdEHU+obmjnvIPJpEIhZ1Snn2pN3bN5mv9OuDVuJweWjm4tV/qK5ve5kgrm9z8MAAoWZabtqSj9995Yyl/4rX4XP3rbqfbvYGvVte1fD49bYVGCA8l5UsX/rjd1919PaSt6/p9ciZmE/jiuPWtXVqVl5vW4lxkSURcvbsj957Q0/O1QFfioqKQcvvffKRLbuOfkgQxDXPlh+OrDExazZ9/fYXg/36FYs9/NgTbLF47It1baq/XG+4DLDbHfyWds2KsIioGoq7v85k8u9dxdisXIaXFfJpbWPbw2S0Z7M5gntNzjWzZs+qqywrqvW4/XeKLo/HR3955c3Q1m77Dx1q3VIy2tT1GIKNVs8SSZBsX3dn82UDeWD0CggIRNPnLh9XcLb2e5fbPeit/3ARBIFClfIyLtXybE1V2aDjrZfd8jz+5NN0xAr+qU7d+RcvQZC2pabD6RL19qOf5i1/6Day2hyJMenjGRRe5Lrm9i7SpkgP9DiNpn7h8dO165fd9TBpZ/uOxMIly+U7D5YWdKj1s8lqc6BLre/pS3AQ/O2R8ZmkHW0B8Js9fymru8+13mZ3DDruNhJMBsM+LTf1zl07frzqrfN/BUxkdDxq1zmeOHS8aD6ZF/Mrj8dDO3uu7p+PP/3HxIFbMF8LVoaiMTlzXjOZLXfhaN/hdHG7ex1f3nbnGj6O9q8lNjGTitiKf2i0+giyjwAd4HJ7EhPHTPzx8ad+S+oELYDHstvvZBIs2dqWNnUCme0O9F6y0hO/Ljiyq85us1z19164RZIpQtDyux+ffaak7kuv10vqfdrF7A5noNnqvn1qXs43ZSVnrn51JIpPTEap4+Y8UVrZ+NJgt4ZkMBjNMhZXOD1zbOJ3NdUVPntUH5uQSsmbufTLk2crHsARLr/qMRijLXYUNiY5ZkdDfQ08yh6lklPHovCE3BfPFFc9TXbbSoW0muHS3r1393bHtX7vhR7M6jWPik8VV25wuz2k3addycAPv1ZvUCBm4IMxMfE4S/2XGXOWxjS3d79NEASpE4wuNfD62jq6JgjlcbfjrHOpRx5/dkLBqVJSZ2cOpltvWJWcPnHYT92AbzCYbLR85eOTz5yr+jPZbTOZDPvs6RPu3rZlo3Eov/98wISFRyKCEfCQrqcviOwLGkxJRf0jk6cv9Ml9UlJyGvLSeE9dbX4LmQZCprKq8al5i1dg6yldbGLeDHS2tO4Zr5fA13W5CEEgVHCq7Jn8GfN8UQ4M07Q5y9J/2nFgo9vtIf1Yorzs1H999t7fy4f6+88HTEpqBu1o4blHcXatL9VvsUV7qLzHxoxJx15r5X2PSApPlz2AvdBFegzG8ZnZ05ZKpVLstaJTc6JLK+pJeWI0VLpe87wp0+eNEweKfVkWXENSaia138n6xG53KsluO0QpO6Juq35Z1dE25O85HzCTps3J1ekNkWRf0LWU1zQ+HhadiPWWRSgSoerGjnkWqz0AZ51LDYR1RXXDH8Ii47GmdmhYBNJre+7xeL0snHUu5fF4aOcqm59ShPj8xwYMYlzOJEpK1sxXu7U92WS3HSDiq7NSIx7cvX3TNcddLkYNDAxEp8/VzPR6fX8Im8Vii6EyeVi7MFJZMHJ60HKcNQZTXdeSwmBysN52Lrntdnp3j+lenDWu5JextIV8oYTt69rgclJ5MFp+10MPl1bW/x5H+9npsS/v2fZd63C/jxocnkzp6TUu8eXt0a+8Xi9SKqNm4KyRP2NeUHVNE9Yag/F6vZwp0+dhrd3YpouwWB2+Gy2/iFbXGxibkJDsj9rg/3B5fJSeM2f6Fxu2vUnm6QC/Sk2K2X3yQMGndbXVw/5eKp/PFWl1vVGkX9UQHTtZIsTZfqfGEOzxegU4a1wNjc6chLP95bctneZy+W3hOrW2vs1vPzsAofj4RPTnv721Qq2zbPV4vKS/l0RC/skQMW11WeWhESUXdcaM6WkUKtVvszPHZ6YkzZhJ2qTTy9Q0tNDdbg+29q+lrqkN65Ok6vpmv4XnQK83PT090F/1AUKTZiwdu27T/vU2u4P0nwMej2NYNCNj2Ufv/7N7pG1Q6xrbaGQdej0Shj5TkqEP3wLIe+5cmoOt8SFoau7A2n5lzeV7cPhSoFg8MTdvil+v4VYkEolQZu6skNomzRcOh5P0ByU0GtUsE7FW/uuNv2mupx0qi4n1Ic410ek0gk4n/XH9BQ67w6+b0TCZeKfesP3898eg0zw0CmyM6GtTZyxS0rnBxzXankyy26ZQKERidOgjx37+Ye/17n5ATU6ItvljgPdXXi9xzuO2Y2t/x56DpX58eSg+Jhxr+2kpsX6drt/Q2FhQcPyIPy/hlvPgw08EUDiy7boeQxSO925ebvo7Rm3NDy7n9b8vqe9/8EmZ1+v12z4fza2drcVFZ7G1n5IY48XZQ7qW+JhwrNsbOGymKpztX83ArbVarYYd73yIwxcjF03yXEV1YxaOcEmMi/zw1OFtzx07cpCUx1FUuUzqUCqC8A4UXMWU3Eysm8NIRHQ1jUr12wY0Z86ePY6z/bKKmlomk+GvXow3Pkrp30GgW4gwIIiSnjvv6ZNnyp/H0j6f/V51yZHf1FWXkvasm9rSUEbERIX94I+BXhqN6rGatTtx1jhZcLwnKkz2E84ag2GzmKZeXftpnDU4VFtXkDigBGeNwYSHKLqaGmr81oO6laRn5lDz59/3Zrfe/A5BEKTO2h5476enxZ8JYJr/p7WhnNSJNFSz2YTSEiN20ek0nz/LFQcIq5oaRjB7ZxgqK8tQakriHpw1BpMxJqFMFijAuhFxRfk5j1jE/hJnjSsZ+KGUBIl+qq2tueFOV7jRLFq8jDpu8sK3KmqaniO77YG/x2C5tI1q19x+5OAe0v8uzw//79mxpSo0WF5GduPXQEzOzXhT09mMvetEOE17pZIAn94GUqkUt1Qs+N+jRw5grdPW2oK4bPqPHDbLpzuqM5kMy4T02A9d9tGxx/LN6r5V91NCYjJeP1JQTOoxr+iXcBHwWKVpsbK8Pbu2Ynl/nA+YupoS7/LF0z/y5W2SRBxQ2d5a+119XQ32Wlt+3GDOn5L9GfZCF1HIgo7o1U1HjMYhbZtxXSw9LZq8CenfYS90kXCldPN367+q88Xru1XRGCwkUiQvOHT83O9wLAHgsFltQUL+ok8+eE118XnSZDofMCqVCpUWFWwMD1VU+ipj0pOj3jlxeK9Pbssa6muQrU+9Nkgs8smW/xQKQllj495Zv843mbZz5w7Eojk+YDEZw1rpOlIMOt2VOy75vZLiU74od0uiM5goPXfBrH0HT653ezykTzQKDBDo8sbF5R878K2K7LYvduHC13/5Zf+sKePu4rCZ+Cal/NItU8gkRwsO7v66UzX0fSWu19bN36mjw2UraTQq9jdh5tikHfUVJ3067rNt88aqO5fN/pcPpvx4U5Nint/+0zp8cwsAmrlgZWK/HW3yeL2kL+Oh02neNfcs+O22TV+2uF14h9AurJNxe5yopqpUl5yc1tnTZ12I69zqIElA3axJSbfv272514X5xV3M2NeHjL3qpty8GUKVWottAaJIwDvAIvqW79n5k08HP42GHtTT03NkfM7EkI7ObtJnd/4qPS1+q1lb91xhAUyuw4HN4aJ7HnwqqUVt2m612knfNIrDZvUvXzhl9Yf/fvVbdSfWzst5/7UQr99sQgECRuk999xjK6tsmEgQBKnz3FlMZp2lr3Pm1h++aPdluPzKZDSibnXzoai4FI/V6pxMEMM7qfJaguVB7bGhvOWbf/jKL6c8ajUqQhEkOp6QMjarU62NIbv9AJFgf0P58TtLik7ccOeO3wiEogD06FO/n3WypHmfyWwhPVzodFp/UrT8tvWfv71Nr9eS3fwVXbbSV93ZiWoqzhZGRyedsdhdd3m95JwEJxTwtBIhdXZJ4e4WMtobKUu/mfA4TEfnzJlPaWnvImnjagKJA0Xlc6emLX//7VfryWlzZJoa6+3BEv53gdIQr6GvfxoZbQ7c1ibERpxymtoXV5efhpm7GARJg9Brb7yfvXlP4Q6jyUL6bRGFgrwKqWj10b0bttltvjsF+IrhYTabka67tWXevPkNRrMty+5wjnhJPoVC8aYlxx6ekh23bPN3nzU4nf6fNmE29SGbWVswITevx2i2TbTbHeyRTLseeOMxGHR3bEz4pz2dtXds+vZzNZYLHqampgav12U9lpyS7uq32DNcbjdnpK+Pw2Y5okMU/+QzjA//vGcrPJPG5IUX/569aWfB/h6DifRwoVKp3ujw4GfPFWz73Nrv20ntg/ZOXE4H6mytrYqLUnycMyGX39reNX6422rKggLr01Oj77boav/6+Scf9IyGcPmVTqcj7Bb96XtX3vGVRCIJaGlTpw33vKSYqNDq+++cc+/hvd+/V1l6xn/nxV5Bn0GP1O21x3OyM9dGRsakqTXauGE24U1Nit05c1LK8sIjW74/dvTQ6PnLu8lMmHMXq7xatbHP2B+Lo/15MyduYrq1L5w5fQJH81c1pI+16LhYytj0iQlcYdA8h5s+v6a+JdfhdPII4j+fcuiXzYcoCBECAU+TEBNyiE337lJ3NOzbv2f7qD/LOCw8EuXPXJhodVFW2l20rIam9jyPxyMkEIF+fWx//vVREBIHiFqDpYIthNuyS9PRVHjm9HG/bgcxFBMm5NFDoxLHsfmB87p7LAva2rvSvF4v03vRnIRfejguZbBUJRFxdnEZ7m8P7Nt5WqvpIH8CBrhg3pKVsi4D8b3JbCHldvZSOVmpm1pqTqw5deKoX3qfw+43BwdHoOmz5si5fH5ubX0rtaVNjdhsFkqMi0CJ8VGqQ4cOnautKnFbMU3cwU0klqHsnIkSZUh4Xm1DK61DpUEioQAlxkeipPjI7n37fz5TfPrYDTvIGR2XjKZMmRbncKPUuoYWilqjRzKpeOD1EXFRYZUbvvuhiez1KODKxufmM5jCqP1dWj2WcEmIi9jUUHbk7sa6Cr9t6ejHnVIAuHVNmTabIVQkfV5d14LlNE65TPKjrbd5delZ//RcfgUBA4CPLb/zXpmLLv2+sroJS89FHCj6p6rh5O81HY1+74n65GhTAMB/vPS311gGO2v7ubLaaTg2jApWBBX1dpTc1d5c4/dwQbhm6wIALvfKq69Lz5S37TtTXDUVR7goFVJ1dmrIow215f47RuMS0IMBwAcm5k1FJrdobVVd60Ic7UuDAtWTMmOnvPX6S1j3Vxou/21WC8AtIlAWTjV7JM92VzbcjqN9kZCvTk9ULv74/debcLR/PWCQFwCMmCwOGpO75He9Ruu/cLTP5bDVIpZ1yrnTh5tsVguOEtcFejAAYCJXKFF8+oy7unSmf+Bon8Ggqzl0x5Kik4eaHHbfrS8aDhjkBQCDpJQM6pgJC36n0Zu/9nrJ3ZVggEDAa8uOl2WXFO4pGq3hgiBgACBfRFQsSs6c+mxzu/ZfHo+X9HBhMhnex+5f9NzhIzs73e7RvUQMAgYAEsUnplDvvP83z1XWtb+KY49rOo3mXTxn0h8+ePvVn1Qq/BtGXS8IGABIwuML0ZrHn//t5h2H/+lyuUnvuVCpVO/tS2a+sHfb+jcrKyvJbh4LeIoEAAmClWHozy+/9cSHaze9bbXZSQ8XCoXiHTc2/g+Fh7a82dHWSHbz2EDAAECClPFz0p1ezimP10vqqYvol3CJjw1/vvjYtre0mnaym8cKAgaA65SUPi3SyxQfdLnc0Ria9wYKOX9sryt8Q6fx2xHyIwZjMACMEIvFRpNnr0ihcqRYwoVGo6I503Nfb646fkOGC4KAAWDkpi+4O6XHTByz2R04ei5o1rQJGwNY1j8Z9KNiq+cRgVskAIaJxeagO+97LLW2uWebvrcPS7ikJcceZHv1S7//bt2NuTXkLyBgABimF158JfVgYc1RQ59ZjKP9yHBlkadfNfPowZ03/MHfcIsEwBDx+QL08j/eTj1d1rYVV7goZJKDfZq6myJcEPRgABi6f779QeK2n0sKO7u0Iz4nbDAEQSChgF9kM7TMqq881Ud2+/4CG04BMAQJyRmMTgNlfWeXNgVH+xJxwHG3VTO/pvT4TRMuaCQBI5VKUXxCkgDReXKOUBG06oGH5sfFp4V2601OiThQmJgY7+rvN7sdDgeeK8Zs4PXFxCXwEJ2roPGk4vtWPZRPY3B5LoJBl0rE/OSkRKtK1UH+IhMfSU5ORhKpQkJjiYKi4saGLl+xchGDI2K5CTpFJpUw+TyO1WTy7el/o11C2kRmZGL2V63tXUtxtB8VEaKalBG9fMv3o+NkUDIN+RZp9oJFFA4vKE8RErPm7LnqhXaHU2J3OC8cvEaj0RCHzUJcDls1e/qEz03GjvUfv/d+k8M6+n9YGUw2mjJlKlesiMmjs0XLKmqalrrdHrnT6brw+hh0OmKzmV4Oh102Pj3+veamcz/t27bD5PGM7tWsv7rjrgdZoiDl/E6taU2XRj/dZndwXC73hdfHZDAQi8VwioT8k1MnjtlYW3lu0/49W3tMxptiKGDEJk6ZywwMTvi+pr4FS7iEhchVU8bHT375pedbcbTvb1cNGAaDhRYvvY0llkevqGroelqr7830eokhDQzTaTRndlbKNiHL+faObZtOdrT59cz7K2Kz2Oj2GbOZweOmPXukoORpg9Gk9HqH1jmh02n6cWPj15r0HR/t3b21ze0cfXtycLk8FBmbKg4OT1qjNViftNocEUNZ4UuhDPzZsIy545LX1teU/u3UiQNGp2307ZaG25JldzEJdvCXlTVNK3G0HyDi66QCypyTx3aW3KxBftVbpFUP/zZRb6YfK65oeqjfYlMSxNB7PF6CoHV0dqc0q3ofXLBwKctuNR/VajpHza2FQChCf/jzP6afbOzdVlxae7fN7hAMZ3W910twVV36PIPF+9iixUusIj7jTGtry6h5fQO9sgce/eOCLoP7SHePabHL5Q4Yzve73R52S7sm10Ww7n/koTVdTfVVFSbTzfkmuJL77n+ISbAU35dV1d+B41kIk8FwSIWMpSePbj/Zbx79vfyRuuKfnFAoQpNnLJzUonF8bbc7Y8goJAsK3BHAsj68d+embjLaux4MFgfNXnTv3Da18Uerzc673vYoFOSdmD3mYHd71b37d2/RknOVI5eUPIYydc7yZw4dL33Z7fHwr7c9Op3mjosKe624cOdfNarmUXXIPw5Ll93BFMmTvzx+qgRLz4XNYupCg8V3njy46bDZZMBRYtS4LGAUwaFo0e0PzjtZXLfZarOzySwmCwpUzZyUnPPKX37vt8Gs8IhIlJu/4p6SqoZP3G7PdYfLrwa6LnKp+KjT1Drr3Kkjfju7OjwylpI5afFfKmub/+z1ekn96E1Litkk4znu/eyzD2+MgacReOzJ39D54pgfNu88dBuO9qlUqkMq5s0rK9x+2Grx66muPnHZLVLejKVpVY2afTabg0t2sX6LTdih1gWzmfRtfb3dPr+dGLgtypuxfG55bdt6t4e8cEG/JLXFaouMjIySRIVJdzc1+X7PjgCxDC1d8fBvTxVXvUoQBOn9eq3ekBIaHmHu7dYUmky9ZDfvdxyeAFm8kscqalqew9E+nU4zjUmKXHzuxM7Dxr4eHCVGnQsBIxAI0FPPvhhb29K7w2S2KHAUo1AoyOF0p40ZOy5RLGRvVXW0+ux4SzqDiR57+o+pxZVtexwO53XfNgymp68/QyKPsHidppN9Bt/9EEVExqAV9z254ODxcx/i2JPkV51dPdPvuvsOk8vWd6qzc/Rv2ThUfJEYJYydeW+/3fsRQRCkzw9jsZie2+ZNfHbv1nU/atQ3z5/btVx4IjRh4lRqVaN2rb63LxZ30YqaxhVR8enTcde52ORpc1hny1t+sFhsQpx1CIKgN7Wq3sibNi8NZ51LhUYmiQ8VlHzjcruxhecAj8dD27qn4JXJ0+crcdbxJb5QjKbNu3+Z2eb5nCAIBtntM+g0z5MPrXj2+IEtn3S035RPowd1IWDmLrpjelOrKg/HmblX0qnrf23xsrtIHeMZDJvDRanp2Su6NPokX9Tzeglau9byTHgk9qw+TyQKQNHxYx6y2eykT2G/EofDwSuqaHmMyeL4ohxWosAgNHPhynvrm1q/82Lo+VGpVO/yRdOe//Dfr7x34sQJspsf9c4HjEQWgnYdOPXMUOe4kKGjsztjTPqEB+ITErDXyszJp5ZUtj6NvdBFurr0q57/fy/n+qJW/pzbWGXVTY/7otZ/UFCX1vjIPaseEfiuJvmiomPQMy+8vKy2qWut2+0hfR/dAdMmZb377VcfvF1dWY6j+VHvfKDcufIBpUajm+Hr4qdK6h6SKkl5Cj4okUiEJk+dma/W6DKxFrqEy+1mHDp+7umc3DysdRTBSuSmCOf3W2yRWAtdwul0yWm8oEfEQXJfliVNTEwsWrJizb0/bT/0rdPpwrJJd3Ji9L8LD297obW5nuzmbxhUqVSKBIHyu2x2h8/7u20dXalRkVFY7+WjY+OQy02s9vXWFAO3ms0t7fndvTYsn4y/ioyKRWaLZQ3OGlfyn9enWh0TE3vDLZiVSCQof+7ycYcKyj+z2R1YBsQVMsm71UU/P1tdUeS3KQujATUkPBbV1bfe7auxl4t5PF4Wmx+EtecklsgZh46fnYSzxmDMFps8NS0Na88pODRWou8x+nTA/Fcdnd0J+TPnJfuj9vWQhKTEFBY3bei3WHGMAXolgcJ32utOvdDcUIWh+RsLtbPbSK+sbfLbE4HSqmasgzCy4OhYu90RgbPG1UycOGUxzvZTkhNzrDa7X0Zb3W4P7WxJdbw/ao8Em8NFmRPnxjB48gN2hxPLdU/JzfhexOh7tqOl+pbuufyK+vyzTyQNfBD67QKoFKFMju8+vqqume72eLC1fy0Nze3DWgM0XAxuQBzO9q9moNfb1KK6YW6R1jz2XCCdK9tmszuwjFdNyh7bEBcmePzAvp2jZk2aPyUnJyN6dV2LBA1jESPZwkMVeTRbAtJ241miJBYJwvq1/lvpXN+I96CsiupGv+5KuGzpgqyDTPMPFWUl/ryMa+IJpehkafNzfX1mLBtGUSgI2ewO4TdbCt+Nzlriv0+0UUQQIBTQ9b19yJ9xa7XaeDY7vs2pMtLTFO37T2Nr/1p6DXhXIGt1/p2y7yWooVwu1rl9pPB4vchgMAXgGmskCITOldcOdMVXYSlwA9L1GhE1Piac8MP47gXiQFF3gBDfdIoft+09h63xIYiODMXaflJ8FNb2r8Vms1RoNbfO1HcwPFSX3d5MEMhvq2NPnC472dhQi639mKgwD43mv2GC+NhwrOutUhJj/LYkd+BT+8SJk40tLaNvMzEwOlC37trTyeWw/LZ9QnJitFOlwvcJmJ4ab6PTqT5bVHmpPkPPWZztf7Xu2+NUqr9OnyFQWlLsDX0wGMCLGiSge9OS4/YNZStFsg3cD0eHBp3CWePooT1N4SEKrG/ywVAoFLfF2FOIs8bSBVPUQgFPj7PGYAbqWvsNBf6oDW4M1JKSIjRrWs5hfxRnMhm9WlXLMZw12loaCKkk8AucNQYTERZc1t2lwroxzLqv1vZnZ6Vuw1njSgY+kDgc1o6DP++DHgwY1Pm+9abv1+2SSgJ9/ikYHxu+qae3C+sYQm9vL/K6TJtZTIZPxyoG3oAxUaGflxQdx9o11HWrUZ9eu5ZK9e1t4MBt2eK5U/awmHB2Hxjc+YApLynuH5eR/I0vb5NYTEa/TMT824H9e7DXshq79ZNyxh7AXugiASKB2tLTug73GUNGoxGxaLZTSfGRZ7AWuoRcKq5QtVRuNvT65e4M3CDOB4yqowW11pf8ncthd/qq8PjMlPX7dv3kk8HlrZu/R3Ix6206ne6T6dsDQZ2ZGv/JgZ/3+GSG37ovPyESo5Xv+HK6QXy04r0P33sbJpSBq7rw+OHMyaM9AiHvfxBC2LvaLCbDaOlT/7O9tQF3qQv27dp2PCMt/i1fdNKCJAFGHsP6iVbjs7xGJUVHN6Ulxe72Ra2wEHk5n+la74ta4MZ2IWD0Og3y9DV8nzk28XucBZkMumPJvLylO7dubMJZ51JFZwuRoavuJakkYDfOkOGwWbrUhJBF36z7wqfHsxzYt8szLi3sEakksAZnHWlQoCo5Vjnn808+sOGsA24O/zWB4uzpE8S5wr1rBALeVziKUSgUtziA+8in7712xGHz/cOH/Xu2OCKk1EcVMnE1jvbpdJpn0azcpzZ/+/Fxf4xN/OkPz3Ymx0oXioR8LLuNM5kMw9TspDs2fv2exm6HfAHXdtkMreb6cpuq7uTqYLnkSzILUSgUlBAT/lL5qd3renv8d/bapo1fqZRB9Mmx0WGk7mFIo1Gdj6y67cUdW776wdjXR2bTw/Ljt581T8iInsjncUvIHLRnsZiu2VMz73vnX389ZTDcfEeWADyuOAW0p7uVsOhqn8zOTNlApVA81/NzOvBDzmYxeyfnpP5Pn6by9f5RcJ7OT99+3ssm+qaGKKXXfTs48PoCRAJ1emrM7M8+ePX1qgr/7r1qNhnRR/9+pV7MdS6MiQq97h2PBl6fQMA/M3va2Bm7t3y9ywE9FzAMgy7S0XSp3Axk27zynpXVHaruCVabXTTclagUCsWbGBdZmJUcsmz3lq+3V1WWj5p9MupqKuwRyoAtCxcuUXV0avIdDuewt7ak0aiOmKjwr2JCeSsP7/2hsnUUrclpbaox37F07oaQ8EiXukuX4fZ4hr01JIvJcKaPSXjTpq9/8Mfvvmjq7b1xDwujM7lIIA6bT6FQsv19LbeSISVGVnaeSBaecLfDSX+0s0uX6HK7r7rVoFDA6+JwmAfiI4PWt9SWHDh29JDf1gJdC5vDQ8tXrIy2uLmru7r75vcY+tK8XoJ+te8JEgfoJGLhQbrX/FbFueNnW1uafXfBw8TnC9Htd62KsRH833eqtXO6uvXh1+iReiViUWOgSLAvWEz9oqm2tLSg4MZfDcDmSVBw7MR/U6iUZ/x9LbeSYXVJYuOTqDPnLJQ0tmrmxcQm3q7R9sSqNXoKh81EoUqZRxwoOqbv7jhYUnRiV4+2067X+f0c+GFJTBlDnTlzfpxKa5onkytXdGp0gd3aHiQQ8FBosKxfKOBt72iprRNwqLsOH9hrUXf5bY3oiCxavJQZEZWQ16ruGyNTBC9Ta/RSnd6AJIEiFKKU2QR83s6qsuIjpp72Y2fPFN5Uh9xTaUwkko+LYjAds329AfytaubMGeIRT82KjI4Z6Hgik9mC6AwaEgn5qLtLhUxGvBss+UrqmHRkMlmQud+K2CzGQK8M1dXePJs4x8TGIYfLiywWG+Jy2UjA56Ha6gp/XxYAAAAwNNBVBABgAwEDAMAGAgYAgA0EDAAAG+pLL72E5WxeAMCtDbIFAIAV3CIBALCBgAEAYAMBAwDABgIGAIANBAwAABsIGAAANhAwAABsIGAAANhAwAAAsIGAAQBgAwEDAMAGAgYAgA0EDAAAGwgYAAA2EDAAAGwgYAAA2EDAAACwgYABAGADAQMAwAYCBgCADQQMAAAbCBgAADYQMAAAbCBgAADYQMAAALCBgAEAYAMBAwDABgIGAIANBAwAABsIGAAANhAwAABsIGAAANhAwAAAsIGAAQBgAwEDAMAGAgYAgA0EDAAAGwgYAAA2EDAAAGwgYAAA2EDAAACwgYABAGADAQMAwAYCBgCADQQMAAAbCBgAADYQMAAAbCBgAADYQMAAALCBgAEAYAMBAwDABgIGAIANBAwAABsIGAAANhAwAABsIGAAANj8/wAAAP//bKRzZ1QytI0AAAAASUVORK5CYII=;" parent="1" vertex="1">
          <mxGeometry x="467.5" y="352.5" width="65" height="65" as="geometry" />
        </mxCell>
        <mxCell id="uqWdyP-RkQtU8MaK-FNy-21" value="" style="endArrow=classic;startArrow=classic;html=1;rounded=0;" parent="1" target="uqWdyP-RkQtU8MaK-FNy-11" edge="1">
          <mxGeometry width="50" height="50" relative="1" as="geometry">
            <mxPoint x="290" y="384.66" as="sourcePoint" />
            <mxPoint x="330" y="384.66" as="targetPoint" />
          </mxGeometry>
        </mxCell>
        <mxCell id="uqWdyP-RkQtU8MaK-FNy-22" value="" style="endArrow=classic;startArrow=classic;html=1;rounded=0;" parent="1" edge="1">
          <mxGeometry width="50" height="50" relative="1" as="geometry">
            <mxPoint x="430" y="384.66" as="sourcePoint" />
            <mxPoint x="460" y="385" as="targetPoint" />
          </mxGeometry>
        </mxCell>
        <mxCell id="uqWdyP-RkQtU8MaK-FNy-23" value="ROS 2&lt;div&gt;Message&lt;/div&gt;&lt;div&gt;Translation&lt;/div&gt;&lt;div&gt;Node&lt;/div&gt;" style="rounded=0;whiteSpace=wrap;html=1;fillColor=#e1d5e7;strokeColor=#9673a6;" parent="1" vertex="1">
          <mxGeometry x="570" y="350" width="80" height="90" as="geometry" />
        </mxCell>
        <mxCell id="uqWdyP-RkQtU8MaK-FNy-24" value="" style="endArrow=classic;startArrow=classic;html=1;rounded=0;" parent="1" edge="1">
          <mxGeometry width="50" height="50" relative="1" as="geometry">
            <mxPoint x="540" y="384.66" as="sourcePoint" />
            <mxPoint x="570" y="385" as="targetPoint" />
          </mxGeometry>
        </mxCell>
        <mxCell id="uqWdyP-RkQtU8MaK-FNy-25" value="ROS 2&lt;div&gt;Application Node&lt;/div&gt;" style="rounded=0;whiteSpace=wrap;html=1;" parent="1" vertex="1">
          <mxGeometry x="680" y="390" width="100" height="50" as="geometry" />
        </mxCell>
        <mxCell id="uqWdyP-RkQtU8MaK-FNy-26" value="ROS 2&lt;div&gt;Application Node&lt;/div&gt;" style="rounded=0;whiteSpace=wrap;html=1;" parent="1" vertex="1">
          <mxGeometry x="680" y="330" width="100" height="50" as="geometry" />
        </mxCell>
        <mxCell id="uqWdyP-RkQtU8MaK-FNy-29" value="" style="endArrow=classic;startArrow=classic;html=1;rounded=0;" parent="1" edge="1">
          <mxGeometry width="50" height="50" relative="1" as="geometry">
            <mxPoint x="650" y="369.17" as="sourcePoint" />
            <mxPoint x="680" y="369.51" as="targetPoint" />
          </mxGeometry>
        </mxCell>
        <mxCell id="uqWdyP-RkQtU8MaK-FNy-31" value="" style="endArrow=classic;startArrow=classic;html=1;rounded=0;" parent="1" edge="1">
          <mxGeometry width="50" height="50" relative="1" as="geometry">
            <mxPoint x="650" y="414.65999999999997" as="sourcePoint" />
            <mxPoint x="680" y="415" as="targetPoint" />
          </mxGeometry>
        </mxCell>
        <mxCell id="uqWdyP-RkQtU8MaK-FNy-32" value="&lt;span style=&quot;font-size: 18px; font-variant-numeric: normal; font-variant-east-asian: normal; font-variant-alternates: normal; font-variant-position: normal; font-variant-emoji: normal; text-align: center; white-space-collapse: preserve; background-color: transparent; font-family: &amp;quot;Roboto Condensed&amp;quot;, sans-serif; color: rgb(28, 69, 135); font-weight: 700; vertical-align: baseline;&quot;&gt; FAST-&lt;/span&gt;&lt;span style=&quot;font-size: 18px; font-variant-numeric: normal; font-variant-east-asian: normal; font-variant-alternates: normal; font-variant-position: normal; font-variant-emoji: normal; text-align: center; white-space-collapse: preserve; background-color: transparent; font-family: &amp;quot;Roboto Condensed&amp;quot;, sans-serif; color: rgb(61, 133, 198); font-weight: 700; vertical-align: baseline;&quot;&gt;DDS&lt;/span&gt;" style="rounded=0;whiteSpace=wrap;html=1;align=left;verticalAlign=bottom;fillColor=#f5f5f5;fontColor=#333333;strokeColor=#666666;shadow=1;" parent="1" vertex="1">
          <mxGeometry x="120" y="590" width="720" height="200" as="geometry" />
        </mxCell>
        <mxCell id="uqWdyP-RkQtU8MaK-FNy-33" value="&lt;span style=&quot;font-variant-numeric: normal; font-variant-east-asian: normal; font-variant-alternates: normal; font-variant-position: normal; font-variant-emoji: normal; white-space-collapse: preserve; font-family: Arial, sans-serif; color: rgb(32, 33, 36); background-color: rgb(255, 255, 255); vertical-align: baseline;&quot;&gt;μ&lt;/span&gt;&lt;span style=&quot;font-variant-numeric: normal; font-variant-east-asian: normal; font-variant-alternates: normal; font-variant-position: normal; font-variant-emoji: normal; white-space-collapse: preserve; background-color: transparent; font-family: &amp;quot;Roboto Condensed&amp;quot;, sans-serif; color: rgb(28, 69, 135); font-weight: 700; vertical-align: baseline;&quot;&gt;XRCE-&lt;/span&gt;&lt;span style=&quot;font-variant-numeric: normal; font-variant-east-asian: normal; font-variant-alternates: normal; font-variant-position: normal; font-variant-emoji: normal; white-space-collapse: preserve; background-color: transparent; font-family: &amp;quot;Roboto Condensed&amp;quot;, sans-serif; color: rgb(61, 133, 198); font-weight: 700; vertical-align: baseline;&quot;&gt;DDS&lt;/span&gt;&lt;span style=&quot;color: rgb(0, 0, 0); font-variant-numeric: normal; font-variant-east-asian: normal; font-variant-alternates: normal; font-variant-position: normal; font-variant-emoji: normal; white-space-collapse: preserve; background-color: transparent; font-family: &amp;quot;Roboto Condensed&amp;quot;, sans-serif; font-weight: 700; vertical-align: baseline;&quot;&gt;&lt;br&gt;&lt;/span&gt;&lt;span style=&quot;color: rgb(0, 0, 0); font-variant-numeric: normal; font-variant-east-asian: normal; font-variant-alternates: normal; font-variant-position: normal; font-variant-emoji: normal; white-space-collapse: preserve; background-color: transparent; font-family: &amp;quot;Roboto Condensed&amp;quot;, sans-serif; font-weight: 700; vertical-align: baseline;&quot;&gt;agent&lt;/span&gt;" style="rounded=0;whiteSpace=wrap;html=1;" parent="1" vertex="1">
          <mxGeometry x="140" y="610" width="80" height="150" as="geometry" />
        </mxCell>
        <mxCell id="uqWdyP-RkQtU8MaK-FNy-37" value="ROS 2&lt;div&gt;Message&lt;/div&gt;&lt;div&gt;Translation&lt;/div&gt;&lt;div&gt;Node&lt;/div&gt;" style="rounded=0;whiteSpace=wrap;html=1;fillColor=#e1d5e7;strokeColor=#9673a6;" parent="1" vertex="1">
          <mxGeometry x="430" y="650" width="80" height="110" as="geometry" />
        </mxCell>
        <mxCell id="uqWdyP-RkQtU8MaK-FNy-40" value="ROS 2&lt;div&gt;Application Node&lt;/div&gt;&lt;div&gt;&lt;font style=&quot;font-size: 10px;&quot;&gt;(msgs ver: a.b.2)&lt;/font&gt;&lt;/div&gt;" style="rounded=0;whiteSpace=wrap;html=1;" parent="1" vertex="1">
          <mxGeometry x="720" y="610" width="100" height="70" as="geometry" />
        </mxCell>
        <mxCell id="uqWdyP-RkQtU8MaK-FNy-44" value="&lt;div style=&quot;forced-color-adjust: none; color: rgb(0, 0, 0); font-family: Helvetica; font-size: 11px; font-style: normal; font-variant-ligatures: normal; font-variant-caps: normal; font-weight: 400; letter-spacing: normal; orphans: 2; text-indent: 0px; text-transform: none; widows: 2; word-spacing: 0px; -webkit-text-stroke-width: 0px; white-space: nowrap; text-decoration-thickness: initial; text-decoration-style: initial; text-decoration-color: initial;&quot;&gt;&lt;span style=&quot;forced-color-adjust: none; color: light-dark(rgb(0, 0, 0), rgb(255, 255, 255));&quot;&gt;msg: VehicleAttitudeV3&lt;/span&gt;&lt;/div&gt;&lt;div style=&quot;forced-color-adjust: none; color: rgb(0, 0, 0); font-family: Helvetica; font-size: 11px; font-style: normal; font-variant-ligatures: normal; font-variant-caps: normal; font-weight: 400; letter-spacing: normal; orphans: 2; text-indent: 0px; text-transform: none; widows: 2; word-spacing: 0px; -webkit-text-stroke-width: 0px; white-space: nowrap; text-decoration-thickness: initial; text-decoration-style: initial; text-decoration-color: initial;&quot;&gt;&lt;span style=&quot;forced-color-adjust: none;&quot;&gt;topic: /fmu/out/vehicle_attitude_v3&lt;/span&gt;&lt;/div&gt;" style="endArrow=classic;startArrow=none;html=1;rounded=0;startFill=0;labelBackgroundColor=none;align=left;strokeColor=#0000CC;" parent="1" edge="1">
          <mxGeometry x="-0.8095" width="50" height="50" relative="1" as="geometry">
            <mxPoint x="510" y="750" as="sourcePoint" />
            <mxPoint x="720" y="750" as="targetPoint" />
            <mxPoint as="offset" />
          </mxGeometry>
        </mxCell>
        <mxCell id="uqWdyP-RkQtU8MaK-FNy-45" value="ROS 2&lt;div&gt;Application Node&lt;/div&gt;&lt;div&gt;&lt;span style=&quot;font-size: 10px;&quot;&gt;(msgs ver: a.b.1)&lt;/span&gt;&lt;/div&gt;" style="rounded=0;whiteSpace=wrap;html=1;" parent="1" vertex="1">
          <mxGeometry x="720" y="690" width="100" height="70" as="geometry" />
        </mxCell>
        <mxCell id="uqWdyP-RkQtU8MaK-FNy-49" value="&lt;div style=&quot;forced-color-adjust: none; color: light-dark(rgb(0, 0, 0), rgb(237, 237, 237)); font-family: Helvetica; font-size: 11px; font-style: normal; font-variant-ligatures: normal; font-variant-caps: normal; font-weight: 400; letter-spacing: normal; orphans: 2; text-indent: 0px; text-transform: none; widows: 2; word-spacing: 0px; -webkit-text-stroke-width: 0px; white-space: nowrap; text-decoration-thickness: initial; text-decoration-style: initial; text-decoration-color: initial;&quot;&gt;&lt;span style=&quot;forced-color-adjust: none; color: light-dark(rgb(0, 0, 0), rgb(255, 255, 255));&quot;&gt;msg: VehicleCommandV2&lt;/span&gt;&lt;/div&gt;&lt;div style=&quot;forced-color-adjust: none; color: light-dark(rgb(0, 0, 0), rgb(237, 237, 237)); font-family: Helvetica; font-size: 11px; font-style: normal; font-variant-ligatures: normal; font-variant-caps: normal; font-weight: 400; letter-spacing: normal; orphans: 2; text-indent: 0px; text-transform: none; widows: 2; word-spacing: 0px; -webkit-text-stroke-width: 0px; white-space: nowrap; text-decoration-thickness: initial; text-decoration-style: initial; text-decoration-color: initial;&quot;&gt;&lt;span style=&quot;forced-color-adjust: none;&quot;&gt;topic: /fmu/out/vehicle_command_v2&lt;/span&gt;&lt;/div&gt;" style="endArrow=none;startArrow=classic;html=1;rounded=0;startFill=1;endFill=0;labelBackgroundColor=none;align=left;strokeColor=#00CC00;" parent="1" edge="1">
          <mxGeometry x="-0.8095" width="50" height="50" relative="1" as="geometry">
            <mxPoint x="510" y="704.58" as="sourcePoint" />
            <mxPoint x="720" y="704.58" as="targetPoint" />
            <mxPoint as="offset" />
          </mxGeometry>
        </mxCell>
        <mxCell id="uqWdyP-RkQtU8MaK-FNy-53" value="" style="endArrow=classic;startArrow=none;html=1;rounded=0;startFill=0;endFill=1;strokeColor=#0000CC;" parent="1" edge="1">
          <mxGeometry width="50" height="50" relative="1" as="geometry">
            <mxPoint x="220" y="730" as="sourcePoint" />
            <mxPoint x="430" y="730" as="targetPoint" />
          </mxGeometry>
        </mxCell>
        <mxCell id="uqWdyP-RkQtU8MaK-FNy-54" value="&lt;div style=&quot;&quot;&gt;&lt;span style=&quot;background-color: transparent; color: light-dark(rgb(0, 0, 0), rgb(255, 255, 255));&quot;&gt;msg: VehicleAttitudeV5&lt;/span&gt;&lt;/div&gt;&lt;div style=&quot;&quot;&gt;&lt;span&gt;topic: /fmu/out/vehicle_attitude_v5&lt;/span&gt;&lt;/div&gt;" style="edgeLabel;html=1;align=left;verticalAlign=middle;resizable=0;points=[];labelBackgroundColor=none;" parent="uqWdyP-RkQtU8MaK-FNy-53" vertex="1" connectable="0">
          <mxGeometry x="0.0449" y="1" relative="1" as="geometry">
            <mxPoint x="-90" y="1" as="offset" />
          </mxGeometry>
        </mxCell>
        <mxCell id="uqWdyP-RkQtU8MaK-FNy-56" value="&lt;div style=&quot;forced-color-adjust: none; color: rgb(0, 0, 0); font-family: Helvetica; font-size: 11px; font-style: normal; font-variant-ligatures: normal; font-variant-caps: normal; font-weight: 400; letter-spacing: normal; orphans: 2; text-indent: 0px; text-transform: none; widows: 2; word-spacing: 0px; -webkit-text-stroke-width: 0px; white-space: nowrap; text-decoration-thickness: initial; text-decoration-style: initial; text-decoration-color: initial;&quot;&gt;&lt;span style=&quot;forced-color-adjust: none; color: light-dark(rgb(0, 0, 0), rgb(255, 255, 255));&quot;&gt;msg: VehicleAttitudeV4&lt;/span&gt;&lt;/div&gt;&lt;div style=&quot;forced-color-adjust: none; color: rgb(0, 0, 0); font-family: Helvetica; font-size: 11px; font-style: normal; font-variant-ligatures: normal; font-variant-caps: normal; font-weight: 400; letter-spacing: normal; orphans: 2; text-indent: 0px; text-transform: none; widows: 2; word-spacing: 0px; -webkit-text-stroke-width: 0px; white-space: nowrap; text-decoration-thickness: initial; text-decoration-style: initial; text-decoration-color: initial;&quot;&gt;&lt;span style=&quot;forced-color-adjust: none;&quot;&gt;topic: /fmu/out/vehicle_attitude_v4&lt;/span&gt;&lt;/div&gt;" style="endArrow=classic;startArrow=none;html=1;rounded=0;startFill=0;labelBackgroundColor=none;align=left;strokeColor=#0000CC;" parent="1" edge="1">
          <mxGeometry x="-0.8095" width="50" height="50" relative="1" as="geometry">
            <mxPoint x="510" y="660" as="sourcePoint" />
            <mxPoint x="720" y="660" as="targetPoint" />
            <mxPoint as="offset" />
          </mxGeometry>
        </mxCell>
        <mxCell id="uqWdyP-RkQtU8MaK-FNy-59" value="&lt;div style=&quot;forced-color-adjust: none; color: rgb(0, 0, 0); font-family: Helvetica; font-size: 11px; font-style: normal; font-variant-ligatures: normal; font-variant-caps: normal; font-weight: 400; letter-spacing: normal; orphans: 2; text-align: left; text-indent: 0px; text-transform: none; widows: 2; word-spacing: 0px; -webkit-text-stroke-width: 0px; white-space: nowrap; text-decoration-thickness: initial; text-decoration-style: initial; text-decoration-color: initial;&quot;&gt;&lt;span style=&quot;forced-color-adjust: none; color: light-dark(rgb(0, 0, 0), rgb(255, 255, 255));&quot;&gt;msg: VehicleCommandV3&lt;/span&gt;&lt;/div&gt;&lt;div style=&quot;forced-color-adjust: none; color: rgb(0, 0, 0); font-family: Helvetica; font-size: 11px; font-style: normal; font-variant-ligatures: normal; font-variant-caps: normal; font-weight: 400; letter-spacing: normal; orphans: 2; text-align: left; text-indent: 0px; text-transform: none; widows: 2; word-spacing: 0px; -webkit-text-stroke-width: 0px; white-space: nowrap; text-decoration-thickness: initial; text-decoration-style: initial; text-decoration-color: initial;&quot;&gt;&lt;span style=&quot;forced-color-adjust: none;&quot;&gt;topic: /fmu/out/vehicle_command_v3&lt;/span&gt;&lt;/div&gt;" style="endArrow=none;startArrow=classic;html=1;rounded=0;startFill=1;endFill=0;labelBackgroundColor=none;labelBorderColor=none;strokeColor=#00CC00;" parent="1" edge="1">
          <mxGeometry width="50" height="50" relative="1" as="geometry">
            <mxPoint x="220" y="620" as="sourcePoint" />
            <mxPoint x="720" y="620" as="targetPoint" />
          </mxGeometry>
        </mxCell>
        <mxCell id="uqWdyP-RkQtU8MaK-FNy-63" value="" style="endArrow=none;dashed=1;html=1;dashPattern=1 3;strokeWidth=2;rounded=0;exitX=0;exitY=0;exitDx=0;exitDy=0;entryX=0;entryY=1;entryDx=0;entryDy=0;" parent="1" source="uqWdyP-RkQtU8MaK-FNy-32" target="uqWdyP-RkQtU8MaK-FNy-2" edge="1">
          <mxGeometry width="50" height="50" relative="1" as="geometry">
            <mxPoint x="80" y="590" as="sourcePoint" />
            <mxPoint x="130" y="540" as="targetPoint" />
          </mxGeometry>
        </mxCell>
        <mxCell id="uqWdyP-RkQtU8MaK-FNy-64" value="" style="endArrow=none;dashed=1;html=1;dashPattern=1 3;strokeWidth=2;rounded=0;exitX=1;exitY=0;exitDx=0;exitDy=0;entryX=1;entryY=1;entryDx=0;entryDy=0;" parent="1" source="uqWdyP-RkQtU8MaK-FNy-32" target="uqWdyP-RkQtU8MaK-FNy-2" edge="1">
          <mxGeometry width="50" height="50" relative="1" as="geometry">
            <mxPoint x="70" y="610" as="sourcePoint" />
            <mxPoint x="340" y="520" as="targetPoint" />
          </mxGeometry>
        </mxCell>
        <mxCell id="uqWdyP-RkQtU8MaK-FNy-65" value="" style="endArrow=classic;startArrow=classic;html=1;rounded=0;" parent="1" edge="1">
          <mxGeometry width="50" height="50" relative="1" as="geometry">
            <mxPoint x="540" y="340" as="sourcePoint" />
            <mxPoint x="680" y="340.34000000000003" as="targetPoint" />
          </mxGeometry>
        </mxCell>
        <mxCell id="RF38b-a2h2vWJZELN6bo-1" value="" style="endArrow=classic;html=1;rounded=0;endFill=1;strokeColor=#00CC00;" parent="1" edge="1">
          <mxGeometry width="50" height="50" relative="1" as="geometry">
            <mxPoint x="430" y="680" as="sourcePoint" />
            <mxPoint x="310" y="620" as="targetPoint" />
            <Array as="points">
              <mxPoint x="310" y="680" />
            </Array>
          </mxGeometry>
        </mxCell>
        <mxCell id="RF38b-a2h2vWJZELN6bo-2" value="" style="endArrow=classic;startArrow=classic;html=1;rounded=0;" parent="1" edge="1">
          <mxGeometry width="50" height="50" relative="1" as="geometry">
            <mxPoint x="100" y="685" as="sourcePoint" />
            <mxPoint x="140" y="685" as="targetPoint" />
          </mxGeometry>
        </mxCell>
        <mxCell id="RF38b-a2h2vWJZELN6bo-4" value="PX4&lt;div&gt;&lt;span style=&quot;color: rgb(0, 0, 0); font-size: 10px;&quot;&gt;(msgs ver: a.b.3)&lt;/span&gt;&lt;/div&gt;" style="rounded=0;whiteSpace=wrap;html=1;horizontal=1;verticalAlign=middle;align=center;fontSize=18;fillColor=#f5f5f5;fontColor=#333333;strokeColor=#666666;shadow=1;" parent="1" vertex="1">
          <mxGeometry x="20" y="590" width="80" height="200" as="geometry" />
        </mxCell>
        <mxCell id="dYesfy6yM3i9_zLge6Ut-6" value="" style="shape=image;verticalLabelPosition=bottom;labelBackgroundColor=default;verticalAlign=top;aspect=fixed;imageAspect=0;image=data:image/png,iVBORw0KGgoAAAANSUhEUgAAB2IAAAWJCAMAAACb+ydZAAAJ0WlUWHRYTUw6Y29tLmFkb2JlLnhtcAAAAAAAPD94cGFja2V0IGJlZ2luPSLvu78iIGlkPSJXNU0wTXBDZWhpSHpyZVN6TlRjemtjOWQiPz4gPHg6eG1wbWV0YSB4bWxuczp4PSJhZG9iZTpuczptZXRhLyIgeDp4bXB0az0iQWRvYmUgWE1QIENvcmUgNS42LWMxNDAgNzkuMTYwNDUxLCAyMDE3LzA1LzA2LTAxOjA4OjIxICAgICAgICAiPiA8cmRmOlJERiB4bWxuczpyZGY9Imh0dHA6Ly93d3cudzMub3JnLzE5OTkvMDIvMjItcmRmLXN5bnRheC1ucyMiPiA8cmRmOkRlc2NyaXB0aW9uIHJkZjphYm91dD0iIiB4bWxuczp4bXA9Imh0dHA6Ly9ucy5hZG9iZS5jb20veGFwLzEuMC8iIHhtbG5zOmRjPSJodHRwOi8vcHVybC5vcmcvZGMvZWxlbWVudHMvMS4xLyIgeG1sbnM6cGhvdG9zaG9wPSJodHRwOi8vbnMuYWRvYmUuY29tL3Bob3Rvc2hvcC8xLjAvIiB4bWxuczp0aWZmPSJodHRwOi8vbnMuYWRvYmUuY29tL3RpZmYvMS4wLyIgeG1sbnM6ZXhpZj0iaHR0cDovL25zLmFkb2JlLmNvbS9leGlmLzEuMC8iIHhtbG5zOnhtcE1NPSJodHRwOi8vbnMuYWRvYmUuY29tL3hhcC8xLjAvbW0vIiB4bWxuczpzdEV2dD0iaHR0cDovL25zLmFkb2JlLmNvbS94YXAvMS4wL3NUeXBlL1Jlc291cmNlRXZlbnQjIiB4bWxuczpzdFJlZj0iaHR0cDovL25zLmFkb2JlLmNvbS94YXAvMS4wL3NUeXBlL1Jlc291cmNlUmVmIyIgeG1wOkNyZWF0b3JUb29sPSJBZG9iZSBQaG90b3Nob3AgQ0MgKE1hY2ludG9zaCkiIHhtcDpDcmVhdGVEYXRlPSIyMDE4LTAzLTEyVDExOjI5OjIyKzAxOjAwIiB4bXA6TW9kaWZ5RGF0ZT0iMjAxOC0wMy0xMlQxMTozMDo1MCswMTowMCIgeG1wOk1ldGFkYXRhRGF0ZT0iMjAxOC0wMy0xMlQxMTozMDo1MCswMTowMCIgZGM6Zm9ybWF0PSJpbWFnZS9wbmciIHBob3Rvc2hvcDpDb2xvck1vZGU9IjMiIHBob3Rvc2hvcDpJQ0NQcm9maWxlPSJzUkdCIElFQzYxOTY2LTIuMSIgdGlmZjpPcmllbnRhdGlvbj0iMSIgdGlmZjpYUmVzb2x1dGlvbj0iMTE4MTEwMC8xMDAwMCIgdGlmZjpZUmVzb2x1dGlvbj0iMTE4MTEwMC8xMDAwMCIgdGlmZjpSZXNvbHV0aW9uVW5pdD0iMyIgZXhpZjpDb2xvclNwYWNlPSIxIiBleGlmOlBpeGVsWERpbWVuc2lvbj0iMTg5MCIgZXhpZjpQaXhlbFlEaW1lbnNpb249IjE0MTciIHhtcE1NOkluc3RhbmNlSUQ9InhtcC5paWQ6YTU0MzQ0ZTgtMTRlYS00NDcyLWEyMmItYmI3YzlmYjFjNjQ4IiB4bXBNTTpEb2N1bWVudElEPSJhZG9iZTpkb2NpZDpwaG90b3Nob3A6M2MyNjc2MjctM2Q5Yi1jNzQ0LWJkODgtMTA0NDdlN2FhZjZlIiB4bXBNTTpPcmlnaW5hbERvY3VtZW50SUQ9InhtcC5kaWQ6NTljOTg4YzktNTlkYi00NmU1LTgzN2EtMTc3OGM5NGQ0NDJjIj4gPHhtcE1NOkhpc3Rvcnk+IDxyZGY6U2VxPiA8cmRmOmxpIHN0RXZ0OmFjdGlvbj0ic2F2ZWQiIHN0RXZ0Omluc3RhbmNlSUQ9InhtcC5paWQ6NTljOTg4YzktNTlkYi00NmU1LTgzN2EtMTc3OGM5NGQ0NDJjIiBzdEV2dDp3aGVuPSIyMDE4LTAzLTEyVDExOjMwOjQzKzAxOjAwIiBzdEV2dDpzb2Z0d2FyZUFnZW50PSJBZG9iZSBQaG90b3Nob3AgQ0MgKE1hY2ludG9zaCkiIHN0RXZ0OmNoYW5nZWQ9Ii8iLz4gPHJkZjpsaSBzdEV2dDphY3Rpb249InNhdmVkIiBzdEV2dDppbnN0YW5jZUlEPSJ4bXAuaWlkOmVhMWM5MjRhLTJjYjUtNDczZS05OTdiLTdmYTFiZmRmMWUzNyIgc3RFdnQ6d2hlbj0iMjAxOC0wMy0xMlQxMTozMDo1MCswMTowMCIgc3RFdnQ6c29mdHdhcmVBZ2VudD0iQWRvYmUgUGhvdG9zaG9wIENDIChNYWNpbnRvc2gpIiBzdEV2dDpjaGFuZ2VkPSIvIi8+IDxyZGY6bGkgc3RFdnQ6YWN0aW9uPSJjb252ZXJ0ZWQiIHN0RXZ0OnBhcmFtZXRlcnM9ImZyb20gYXBwbGljYXRpb24vdm5kLmFkb2JlLnBob3Rvc2hvcCB0byBpbWFnZS9wbmciLz4gPHJkZjpsaSBzdEV2dDphY3Rpb249ImRlcml2ZWQiIHN0RXZ0OnBhcmFtZXRlcnM9ImNvbnZlcnRlZCBmcm9tIGFwcGxpY2F0aW9uL3ZuZC5hZG9iZS5waG90b3Nob3AgdG8gaW1hZ2UvcG5nIi8+IDxyZGY6bGkgc3RFdnQ6YWN0aW9uPSJzYXZlZCIgc3RFdnQ6aW5zdGFuY2VJRD0ieG1wLmlpZDphNTQzNDRlOC0xNGVhLTQ0NzItYTIyYi1iYjdjOWZiMWM2NDgiIHN0RXZ0OndoZW49IjIwMTgtMDMtMTJUMTE6MzA6NTArMDE6MDAiIHN0RXZ0OnNvZnR3YXJlQWdlbnQ9IkFkb2JlIFBob3Rvc2hvcCBDQyAoTWFjaW50b3NoKSIgc3RFdnQ6Y2hhbmdlZD0iLyIvPiA8L3JkZjpTZXE+IDwveG1wTU06SGlzdG9yeT4gPHhtcE1NOkRlcml2ZWRGcm9tIHN0UmVmOmluc3RhbmNlSUQ9InhtcC5paWQ6ZWExYzkyNGEtMmNiNS00NzNlLTk5N2ItN2ZhMWJmZGYxZTM3IiBzdFJlZjpkb2N1bWVudElEPSJ4bXAuZGlkOjU5Yzk4OGM5LTU5ZGItNDZlNS04MzdhLTE3NzhjOTRkNDQyYyIgc3RSZWY6b3JpZ2luYWxEb2N1bWVudElEPSJ4bXAuZGlkOjU5Yzk4OGM5LTU5ZGItNDZlNS04MzdhLTE3NzhjOTRkNDQyYyIvPiA8L3JkZjpEZXNjcmlwdGlvbj4gPC9yZGY6UkRGPiA8L3g6eG1wbWV0YT4gPD94cGFja2V0IGVuZD0iciI/Pk3/e9QAAAAJcEhZcwAALiMAAC4jAXilP3YAAAIWUExURUdwTAoKCiYmJn19fQICAq2trQYGBp+fnw8PDwAAAEBAQBISEjY2NpmZmUVFRb+/v11dXS8vLx8fH09PT3BwcHZ2drKystPT04ODg7q6usvLy5SUlBcXF2dnZ4uLizs7O9vb21dXV9fX11NTU2tra6Ojo6amprW1tYeHh8/Pz2JiYhoaGktLS4+Pj8jIyMLCwg0NDSoqKh0dHQAAAP///+Dg4GBgYHBwcNDQ0JCQkFBQULCwsEBAQMDAwBAQEAICAv39/QcHBwQEBPz8/Pj4+CAgIBQUFAkJCf7+/hEREQwMDIuLi2VlZRsbG0hISLi4uPf391tbWw4ODtnZ2Xd3d4CAgO/v7319fTs7O6amppWVlfLy8hgYGB4eHiMjIzQ0NJiYmCcnJ6CgoMjIyCsrK3R0dOPj4+Xl5WdnZ6ioqNXV1aysrPX19YSEhDg4OOrq6oiIiJycnOfn54eHhzY2NkNDQ1hYWLa2thYWFi8vL9/f3729vcXFxd7e3qurq3p6emxsbPr6+vHx8c7OziUlJUpKSrq6ulRUVNvb28zMzAsLCy0tLV5eXkVFRb+/v01NTWJiYunp6WlpaVZWVj09Pevr60FBQc/Pz/Pz8ykpKcfHx9TU1IGBgZubm1JSUjExMY2NjUxMTLOzs5KSkp6ensPDw3JyctfX1+7u7srKyqOjo29vb+zs7FNTU6+vr5+fn66urmtraycldZYAAAAzdFJOUwDUuWLcMthAz9+fzalGmSCCr7+QbmgsC1wkE0vIeFOjA4cHjHM8OClYD3zEk1AXHNG0wkJpf1AAACAASURBVHja7NWNCsFgAEBRMx+NmDE/DZGlpZjw/u/GOyg2nfMQ93Y6AAAAAAAAAAAAAAAAAAAAAAAAAAAAAAAAAAAAAAAAAAAAAAAAAAAAAAAAAAAAAAAAAAAAAAAAAAAAAAAAAAAAAAAAAAAAAAAAAAAAAAAAAAAAAAAAAAAAAAAAAAAAAAAAAAAAAAAAAAAAAAAAAAAAAAAAAAAAAAAAAAAAAAAAAAAAAAAAAAAAAAAAAAAAAAAAAAAAAAAAAAAAAAAAAAAAAAAAAAAAAAAAAAAAAAAAAAAAAAAAAAAAAAAAAAAAAAAAAAAAAAAAAAAAAAAAAAAAAAAAAAAAAAAAAAAAAAAAAAAAAAAAAAAAAAAAAAAAAAAAAAAAAAAAAAAAAAAAAAAAAAAAAAAAAAAAAAAAAAAAAAAAAAAAAAAAAAAAAAAAAAAAAAAAAAAAAAAAAAAAAAAAAAAAAAAAAAAAAAAAAAAAAAAAAAAAAAAAAAAAAAAAAAAAAAAAAAAAAAAAAAAAAAAAAAAAAAAAAAAAAAAAAAAAAAAAAAAAAAAAAAAAAAAAAAAAAAAAAAAAAAAAAAAAAAAAAAAAAAAAAAAAAAAAAAAAAAAAAAAAAAAAAAAAAAAAAAAAAAAAAAAAAAAAAAAAAAAAAAAAAAAAAAAAAAAAAAAAAAAAAAAAAAAAAAAAAAAAAAAAAAAAAB85nIs0TasQwgCAbzu987tM67Md/YfjLWzi3XyfzUb9JEmeAPzau8ZJ9Mgm08U1FEbVPqvlNZ/fI1MFaPhuo6yMB7VvtcJtnA+31grQqtP2uuW6srAGC4vLzFwBXuzd62ukVx3A8U4ymewkmdwm191cZpJNNvcbrljbErdaaWEFKYhadG9eXmjVF1prQS0FC7YKQvGFdV+sVGyh+kdKhZZWdrdJZs7M+T3P5/MPLJtfyJfznOc5J+yKdqDdmBez/NauK+u76goQv7OjzStrqpaNxdmxqroCFCezJztz4tZ/BwsjNXkFKFxla3vDGtdPm+1L8gpQ1MpWRxpK1x+NcctXgKKvZZtDetdrK2PebQIoRWVHZ7xk3EMb495uAihRZVc3pa83rw9PVvQVoGSRXVrQv+QWTvQVoIyRrS23RDChiXUPiAFKq9p2Z0Aqw1P6ClDupWxTZFPYWhJYAJFtO1yx22a94gTAR6rLothNM86YAODjhWzF28XdW8EKLACfjuy0I5+685XOkcAC8H+RHfcFT8caXnIC4CFqnhZ3eJDTscAC8PCF7LEPeC6u1RRYAB6pOiiVF92Erfn1AeCxC9lttbzIM+IBS1gAPkdtRTDPbUdgATjDQnZcMs9nbldhAThTY3cnZPMcJgUWgLOqbgnnmXdh3QgLwHkWsuvaecbjEqt+WwA4V2OPnfV0lm9hxyxhATivURuyn2voyO8JAOdX29DQx5uxhAXgQurOLH6sVYUF4KKNvaqjj3TgY1gAOmhsW0ofYcORxAB01Ng9MX2oQUtYADps7IicPkRbYQHQWC86AaCxQbi4DoDuNNbNO5+x7VViALrV2KaufupjnVG/EQB0rbE7yvqxiYrfBwC62NhZbVVYAJI09oq6fmTOgRMAdFn1mr4+8cQ1hQWg6yrbCuspMQApnCiswgKQQumPoLjs/nUAEjW23FfbrfkeFoBkjd0sc2JP/AIAkExlrbyFnXJqIgAJHZe2sCMKC0BK9eWSFnZSYQFI3Ni5UhZ2S2EBSG20jIUdUlgA0i9jS3ix3bYjJwDoRWM3SpfYaVMHoBdK96jYy8QA9GgZ2y5XYWcVFoBeNbZU99rNKSwAPTNdosK2Lpk3AL1bxg6WJ7Fjxg1AD9VaZSnsjMfEAPRUWT6OvaawAPRWfbEciV0yagB6bKoUhW1axALQ82VsGc54aigsAL13UoLvdRxNDEA/lrGN4h+caMoAWMYmcMVjYgD6s4zdL3hij8wYAMtYbxMDUKRl7HCRCzuksAD0zUCRE7trvgD0bxk7VNzCXrWIBaCPVgtb2IOq6QLQz2XsZVfYAUAKkwUt7LDHxAD0V80FOwCQQn2lkIWdtYgFoN8K+d1Oq2awAPR9GXtYwMSumysA/bdTvMIeekwMQAYqPtgBgBTqG0Ur7JxFLABZ2CtaYqfMFIAsFO3T2E2LWADyULQr7QaMFIBMFOtJccMiFoBcFOtJsWtiAchGoW6NtYgFICNFum5n2jgByMdocQq7YRELQEYKdDH7sWkCkJOFohR2yCIWgKysOp0YAFIoymc7ixaxAOSlvliMxI4bJQCZGSxEYectYgHIzUghErtskADkphj3slcMEoDcFOLL2C3PiQHIT6MAiT0xRgDys+PYCQBIYSp+YkdMEYAMVcMXds0iFoAcxX/fadYQAcjSRvTELpkhAFmaDV7YTc+JAchT0/HEAJDCQOzCtqpGCECegr9SPGiCAGSq3nKyEwCkEPrK2AkvOwGQrdCnFO+YHwDZCn0r+yXzAyBbkS8CcAMAABkbD5zYpvEBkK/IH8bWjA+AfI3GLWzDc2IAMlZ3UywASOxnODwRgKwTOx+1sMOeEwOQtcOoid0zOwCyds37xACQwlDQwm54TgxA3oaDJnbd6ADI277nxAAgsZ+Y85wYgMwtxEzssskBkLmgt9ntmhwAEpvAtufEAEhsCgsGB4DEprBqcABIrCsAAJBYRzsBQLeE/Ghn0twAyF7IoyeWzA0AiU1g3nNiAPLXCJjYfWMDIH+bARPbNDYA8jcXMLFHxgZA/ibiFfbAViwA+atvOz0RAFIkNuBz4hFjA0BiU6gZGwD5q8Qr7IStWAACOLEVCwApjMVL7LipARDAerzEVkwNgACuhivsoa1YACLYshULACls2IoFgATqh7ZiASBFYh1QDAAp1MIldsvQAIjg2FYsAKTQtBULACnM2ooFgBSGbcUCQAL1A1uxAJAiseG2Yo8MDYAIpqMV9rKtWABCCPdC8YqZARDCYLTE7pkZABHU52zFAkCKxNqKBYAUdm3FAkAK4d52apoZACEsREvsqJkBEEF9MVhht23FAhBCNdoidt/MAAhhzFYsAKQwYysWABKoD9mKBYAUiY22iL1iZgCEcBwtsetmBkAIy7ZiASCB+mawws7bigUgRmJtxQJACtO2YgEghUlbsQCQwrCtWABIoN4KltiGmQEQQrjr2NtmBkAI7WiJXTIzAEJoBCvsmq1YAEKoz9uKBYAERm3FAkAKzWiJ3TUzAELYD1bYVtit2Hdv/vO9t+5f50x+96X/eeuZZ5566sN7d5781o/e+fOXX7l968V8Bnr6jdd+9XQKP3y7PH9/nr37185+WN957daNDmb43IOOx/XzzOd14+7tjv+Pt+8+q5UXU79sK7Ynff3Hj79AN3z1Fx/89qcvvX7zzQcv9HGe33/nu398I93/8Qfvf68Mf33e/uKrL3fhx/X89d/fvMgvw59+9vevdWdgHzz5bp4/4dNX7vzkK136nXz9N3p5AUfRnhNPRvwpP3hVGhP42/33Xnr/L7dOe/5369f/Sv5/e+Pe06cF/9vzh1/+p3s/r5fvfP2c//yb3R3ivRfy+wnf+Pf1bv4Xv/ntU8U8t3Fbscm9eOd5OUxZo/v/Ze9am6o6smj5LoxxotHJmCprkqoZtSaVMSlBLgLChctbQAERkKcgCooKIqNcGYQRCKCjg6AYfCAOjyCK+YfzBb7MB+3L7bV7971r/YGzH+fsdbpX794fX5yok8vn03YZvy71n4zdwlM2cddyuKZKInl+/bDtdPXVa4vxUK9tH8N5pMxIcYRSLBpNi2RBASyFix5JLCSCjXI+db2J0bJTVzQI+NWKgGMfTNt/fquujVTIizrMdWykUuxRSrFgNEyR/qSQP1PzvhCbztx5SYcyS2Ky7BwPYf6yjAXsWcjzSzXFOLcZ4mMHSTMybKIUi17DkmFlERp+lwPc3xyV9aYrN/aKDm4fYNbQghTQ80/oCXJxOegv9iFZMyLs9I1i93oW4MJ2kp48mn8HMVPWsLQrbTFXc4p/xZ1/M2vfWUA9f1TPGvYXlI9JlGMjwhbfKNY3KfYt+c7NEajUIUQ6Z+U9GYmxkjPZBQzWLRMLHmbCnt+tZaPgLi7G90ibkUixBzxj2B2eUezzbLKdK5RPWL8RoMqBGyux1SH7bgAZrAWTBd513PNvxsGf/Sh5MwJspxSLxX/JdA6x1G/57FOzCy/mYqjg5C1jY2VyGKcN+Px0HWFOgwa5gMRpjl2UYrEVZZo85xRd94IW0/ncjRPHY6be1AfAoTJYxU4in39JR5yfQYN8jcRpjv2UYqEoIcm5Rq9FTTbZjQvn62Kk3JQsoUNlkOx05PMrVcT5ETbIaSROcyn2MKVYKG6S4tzjgzUxs9GRB+HYKDfnMtGBGvz8nsU4dtdERaDnsFF+TeY0xlbfFrF/8yzA8yQ4BVh57znFxsQhzrJUfJzeft6MIqgBzRoiPRaC+pjJrh1z7PGNYjf7Fd9giPymAo12FNkOV/Zfve99rWkpx4ep0qAbesY1x3svT/FEcQTYRykWiiqSmxI013pQuz5lv+9Xw45IHPzr+bwduVgLnsSBPJVC4jSXYrd5xrB/9Yxi+8ltWpDUYmNX4roz+yu8rjQZRRIxMllCvseaoKKHGSxPnSBzmlMspVgsOCVWD6ZsXLzzwpn5oXGPC01uWCJE1SYr/RSoCeUaop0HvdwjMZ9tseb4mVIs9t99kMymB4MWOHYsyZn5gSxv60yDSNRWjfbSsY25nRrCfQv8IpI4zXGQUiwUd8hrqji2wWc11t8pYo9DEuHpN7KlLB9qxAMN8T6LDXQNidN8n/iQZwx7yDOKvUda07VXXB99Tp317SRmd3tZZWQm2A8aCoRvsGbkaIh4OtbHETJn7EqxBz0LcBtZTRcWT0a/VVzuzvqgh0WmWORa5xnTpibssaskFf804E2DXDKnMfZSisWii6SmDB+iT2q3u9lJHnZLpIl8A8vGI5WwhL+sIeST4B89Eqc5vqIUC0U9KU0d3qmXuj6BfO8uh00eEAjLwISxPYXY/6NTGmJ+DhvtRhKnOXZQioXiOBlNHU43RZ3WrN+cWd9b6NUHkFctEZTWCDRq8Gm1Jg1RBzdI9ZA4zaXY7yjFQtFJRtMHCwM97191Zv1Lr3ZxAhIhCUeiDWJvwFQxAyAL/HbWkjmN8QOlWCzKSWgKcSb6xE64s37In9d/qFIiIDcjulkSe+/RFQ1hv4aN9y8kTnN8TykWitukM41IsnAu192tXZe8uVrnXL5AOCoju8wPfNhWxTykCmzEO0mc5vjSM4bd5hnFjpDOYvXEU+2KM+ur/Xj5T85JBCMQYaNzGtacOxoiX6p+Eyh+pNhvPKPYv3gW4BSymUq0WriJ8JU7873o/G8REUmWIx1cij0MvqRhGlLGeWzMc8icxvjCt33inz0L8CjZTCdskNSqM+unPDhv8kRicl0EvTrrwB62ndMQ+gawzELiNMfXlGKhKMwkmelE2EJ2y3qdmZ+q/c2XmVzXGvl9kkHsYduLGoJ/ERv1CyROc/xIKRaKEnKZVthoX5x09wd1XPeLLzO5LryBe/yqsCZd0xB9sAb+mMRpLsV+SykWig5SmVactZHfG87MH6zT/N43tErE4OZGdM8KqEnTGqYNZixh415P5jTGT77tE+/xLMDppDKteGYjv8GAM/uHFb/2IpPrIuzVWUdp7GcFPD+zlcRpjt2+UexWv+IbPE0qUwsry8CWkDP7f1f71otMrgtsbC0FPmx7TkMC3mEjX03iNMcRSrFQXCOR6YWdOwKSndl/9b7Ol15mcl3EvTrrW9hYsyY1ZOAK1sfLJE5zKfaoZxS7z7MAV5DI9MLSz3jYmQN3MzS+82n/EXB9A706a1iA2hVSMc13Chv8JjKnMTZRisVijkSmF5a6+4ornXlQofCVT5aYpLuBXp11pEINm9eQghZs8LtInObYSSkWixUSmWJYur6hx5kDoRZtL/yYyOS6jfTqrEux2MO2HRqSAB5Q8U8Spzm2UIqFIoc0phmPLKW52pkHz7J0vfAyk+tuRrFBPo417aGGLLT5cIYhTqTYA5RioagijWnGgqU0F7Q6c+GFqvddZHLdBnt11nAPalt2oYY0dGET0ELmNMZ23/aJd3kW4DTSmGY02srzLWcuZDcoet3PSkyuC0R37wH2sG2zhjQ0YROwQuI0xy5KseB9M9KYZoStJdrdPKXFoJaXXWZy3YW86KzErvCKNCTiFDYDqSROc+z3jGH/6JkUeyyDx500o89aooPtzpyYVfKut/wi4Gwo2pZM8ArvkYZMLGN9TCZxmkuxhynFglFDHlOMaXuJfj3gyol8FZcdyEyui6JXZw2Xsbko0JAK8MmAO2ROY2ylFAvfKQ6RyBTD4iZrhTMnehUcscmYlfB0ODdqQ7ErvICGmgNuYxjMIHMaYw+lWDj6yWOKUWyRZOadedHo/C3P/beEnx0Wijt2hVejoeQcx2ZhjsRpjn2eMezhBA+DPEsi04txm4uH887cKHH8jotMrqu0oXOCzx+OaKg4F7A+XiRxmkux2zyj2P1ehvlJF6lMK6zKSo+duXHppNM3XGRyXcDKjFLwCq9WQ8Hpw/rYTeY0p1hKsSIoTG4nmelEldVEf3Tmh8vpYsGXEh5G26sjssJb1FBuirGJmM4icxpjM6VYsRMIPR2dV1IJI4TTZ6QW/ml2FUl3+xWv3FV0icl1IVvj07CNRS811Joz2FSUkjjNcZBSLKEUeeOnqqd9o9hjQ84odirXUaKeSkyua7W1OQle4Z3R8Ol0Yn2sYHEy3yc+RCmW0EyzyZWeUeyxRmcc6+jKnQWJyXXD1v4fwCu8Og2fzaJP2kqMUyylWEL5/jr6wiDb9WKs3BnHPnCQn7E2Cc867DViYn+BkjR8M7XYZFwNsiwZYy+lWEI5msBnVa1fVNOd7YpiK4vFs1M/40uvjswKb1nDJwMeXhxmUTLHV54x7AFKsfGHG9iC0WTd4LPOlrHD0rl5IzG5zk6vzhpysbae0vDFgK9sPcuaZI4dnlHsFqYs/vAcWzByrBuc9Zszjp2QTY3I5DpLvTprGPHth20DAO8spLEmGSPhO88o9s/MWRwCu1ICXNlw/6orip2uF8yLyOQ6a706Iiu8Lg3fC3ihHqIUa44ffJNitzNncYhfkQVjAGHxhLNl7LzcBe0ik+tabV8kFICa26bhewEv1NNZkczxPaVYQj+G/Vt3/MMZx4pdH/tEYqk+bLvXtwC7tX1Pw/eSAj7dzYpkji8pxRL6Ad2PnIGYXLviimJDLSI5yRIZbdFhfU3+CGvwuIbvBbtQT7zFimSMhG8oxRL6ke5hB8IrZ8vYUYkLZG9LTK6z2quzhiKoxUsa5qiCF+oDeaxIxviCUizhAaAHJFGNjKvOOFagp6JbYnJdAHF0axRqcqqGzwW8UG9mQTLH154x7B8oxcYloCeKUcpSWa8rih1oQCfkVEjAjVXEaqkQey2Iijmq2IV64g0WJHP8SCmW0I8yaMWA3RUwmemKY9uxXRXBTgEfQpi8lGCtbtDwvWAX6oklrEjGSPjWM4rdyZzFI6qgFeMhzO4brig2sQiZjjqJizWSGnzMiYo5qoXYX7vMQlYkY/xEKZbwANgmU9x1PMGAK4rNn8Rl4+l1AQdKUXP55rFma/hcwAv1URYkc+ymFEt4AOholEzgpmpLyBXH9sGWGiKT616gDubmDUDtPqfhcwFvnhSxIJnjiGcU+yemLC4BPVDch7R8wdlWcQ3GIZHJdZVDuCU41nIVc1SbsT6+YUEyRsJRzyh2N3MWjyiDtvnNQW0PO+NYiMQsMrnuGfCaZewMJBWX94IX6vkFrEjG2OSbFLuJOYtHYLUl7L5XXaUrim0FTDcQmVy3irzZAHqJiY7Le2+Bm5VZkMyx0zOGPUopNi6B1ZYeY43vcbaMtX6lRobEGNwQdN5qEHutsorLezuwCUphQTLHFkqxhAe467V81uaMY0/YdaRAYnJdEraxFNv+pePyXuyZ6cRXLEjGSDhAKZbQD6y2lI/u8itodUWxU1YbX8YlJtfBenXW0A+1PntMwecSBJ9iz2VFMsZ2SrGEB8BqS+We2/8pfLS54S0xue4F+hL9Uqj5zRo+lzRsimZYkMyxi1Is4QGwCqDACO0UZxx7xpYLIpPrgL06625Mx37HKFgwr2FBMsd+zyj2CFMWl8AeAhW4tz3Y7opiK4vteCAyuQ7Zq7OG7jjoGAW3ifWwIBkj4TClWEI/gqf9ax/9P7wecMWxdi70E5lctyowhfQitmP0pIbPBbyhX8uKZIytlGIJDwA+BCrSSN/vimITL1uwXmJyHbZXZx3YM9GBOPhcFlmQzLHHM4b9O6XYuASWnspFfMiYd0Wx0zlRL4skJtcliQyBy1iCOvE29j+XxJcsSObYRymW8ADYQ6DLMk7kTLvi2PkoD+mKTK4rlekEuYP1YiT2Pxd7B+jiAAnbKMUS+gE+BHpZyI3HzraKF6Ky++lULPTqrOEd1o3bsf+5JBazIplTLKVYwgOAD4GOS/nxwRXFhp5HYfVCJt5AfK/OOq7Evkx5DZurPhYkc2ymFEt4AOwh0PMZUn7kdrni2NGsjdpcKHH547/+x96ZcFV5HnG87r1qjLvHtdo2xjbNMa2sIrlcuGyCqAiiBpBdQLSCKCBFRQFxSTVoDBGUaFxASXryDdvTc++N2fRV+T8z88z8vgB33ndm/rzPPDOT68yXsF/kNf6HS1KdJaTgbBQmsZvslakEewl0yJ0hg2RHxeVv+YsHXGyue+xu/9vXCsqU4DnSKZaQgp8TbxUmsX+zd6YR8CXQCoem1FBJbP/EW/3emw4217np1YnR7H+ZMnwJa2OuZaTgEiutFPuJvTONgC+B7nJoyrVhKo0de4svxfC4N706cbDH3skcwmUC+76aLCEFZ7kwhV1npViVYC+BRiMubenModLYNx+eW9jlolen0KkvYWdUsShTpmJf2HNLSMFZaqVYQwDYS6BP3BozTiWxWW+6FNfF5rqC8bDTp1+NNaeYQ7hkKLBRCgusFGsIAHsJ9IRbY7KnqDR2+M02mbrYXDc56NiVwK3J1RzCZRpr44AlpMCENguT2N/bO9NILTZllDg2Z6CNSmPfZAdZtovte5ed35ypg9rTwSFcGpL8t1EKHwlT2L9YKVYl2EugObtd2zNC1rkTfKNQd6aDn/M44tyXkqEGtXAIl4tJ/tsohS3CJPZje2UqOQxNGfXuDeqiktimoJvWOo951qsTowpr0g8cwgV7c8HZtFEveE+YxK6wV6YS7CXQIvcGVU5TaWzAG6/NDnbbuu3VibEfa1MDh3DpUGCjEEJrhEnsIntnGgFfAr1JYNIDsqPinQF+nZPNdY57dWLcx17e4hAu4JsLX1pCCs4iK8UaAkjBdo2QpPo6KonteP3GOBeb61z36sR5BrUqg0O4gMdXHbeEFJwVVoo1BICVozQSm0rPUWns+df9NBeb65z36sRP6LFmPeUQLtibC0kvLCEF52NhEvsne2Uq6WPTyDKD3Mmi0tjXDKpvdPDDLlNNub2Ntesoh3DB3lxI6rGEFJjQOivFGvzZg00ZV4jMOkUlsZOvmlS/+7yfvToxjkDtGg0zCBfwzYXJsGWkwHwiTGHXWClWJeBLoN1EZkXSqDS267d/lIvNdVHCAXxY8/ZyCJdi7NvLsIQUnCXCJHa9vTKVYNe/PSOzqyFKpbG/qXEuNtclE56mFhZATbvAIVzAF+kaLSEFZ5uVYg0BYC+B3qcz7CmVxI7+einUyeY6ml6dGDuxth3iEC7Y8VU8ys1CCG23UqzBn27Syz9Qeqk0NvPXCmouNtdR9erEwI5d3hdhEC652Bd4yUqxwZllpVhDAFewOaOK0LSqg1Qam/rLH3O9D/9nqXp14lzF/uPCIVxukNXxjZ+z0EqxhgCwl0CTSW07SyWx0dqf/5T9Dtb/XM2ldaVSbD/SOIdwAQ/mKrOEFJw5wiR2i70ylWAv3tbRGtdCpbFT2T/5HU4217VTH6SWYO07wyFchrE2nrSEFJjQWmESu8HemUbAl0CLia1rotLYipd/RqWDzXXRW+S+hG1F7s9nEC7gJvK2bMtIgZkvTGH/aKVYlYAvgVYTm3eGSmL7X5rSc9LB5rpzE/S+VA+1sJ5DuIBLD72WkIKzWJjEvmevTCVF0JTRQW5fOpXGjiWObV1srusqpHelfKydpziEC7aJ/KdnH8arWWWlWEMA2EugLeT2RVqpNDYmCZHHDnp1yjn0eoBPDB5yCBdsEzmPzl8hhD60UqzBn9050JQxQm/hRD+RxGb9/+qKi811kyUsfOkE9nGWMjAxD1xPj1hGCsxcK8UaAgBfAm1gYOIFqs/Y4fz/fdk52FxH3asTB3unK42DieAm8kxLSMFZZqVYQwCnoSljmoOJ4SdUGnvEyea6diafPpEo1Mx0DjZim8iTyi0hBWelMIldaq9MJVj54bE2JHeUSmP/raJXJ8YdrKHfcbARvL3priWkwITmCZPYj+ydaQR8CTSVh5W3kryFQ69OjAqspXkMTAQ3kbPo/BUjscIUdrOVYlVyF5sWuawN+d5XheXQqxNnCGppHwcTwU3kTywhBWe2lWINAZRDUwabtSF5HV4KLI9enRjZ2OP4RxxsBDdZn7CEFJyNVoo1BIAtFvJZGzLoo8Iy6dWJcRJ9dYwB2CbypBJLSMHPibcKk9h/2DvTSAS7/oXR2pAa/xSWS69OjDL/v/DAm4RydltGCi6xwhT2d1aKVckhbFpkNKvm2rBvCtvObEzBI//7WR5iTay3hBSc5cIUdoFJrEqwUxnaOIlAZ45XAsunVydG+JL/X7HYTUJJRZaQgrPUSrGOqLyZOp7+bhRV3OhR6qd7oSmD19qQcevVQTIBtriGgY3YTUI8hjBLYYEwiV0u8zHvqZipQGHgkwAAIABJREFUGe8dp/MUuin4EiivWTXZU/4oLKdenRipYJMZTDEBz/NmMYRZCqHNVop1ILDtMzk3YfK2Pj89is2Ku3hZO9DmicCy6tWJg249PkBvInie91UTzuBssFIsnpGZ/gR7qs5PG6Epg92smhE/FHaaZW8Het0Bg2887CYhHkOYpbDFSrFoSgEXGHdq81PsJVB+s2q6fFDYqSqOrtQAt5v+HwvwOgl16eddWC9MYmfLOyRGLNqertLlpuFJaMo4zc7gymn5Cnuf50pR/AkB+UceeJ53QeEOIyihNVaKxZKbDPHye2FVftrj+2fHL3ggXWD3pTD1pRb8JWrq4ATP8x4z4QzOImEK+4E0ie1GzRH4QZWfXsQWzzjOqqmTrbB9E1x9ycEQaOr/LrDzvHlMiJTCCmES+1dhzzf7Xyg3b8rW5KfH9V2QLD1nvToIBhxY39FNa2Mm1rwrJpzB2WSlWChFOD//XJOffgFNGd+wtPlOlliBzarg60pONvL2kpahI1Gsdd07jKCE1lkpFskEMEuOK/LTWpUXJE9JVdhpzntY2t18xX9KaCJ4nvczE87gzLJSrNgDm+eK/LRZ5QXJSJr16sw8rW4eQhPh/20VWNNqdhiBWSJMYjfKerydSEdvUeSnz3VekGyISlRYpr06MUoLXD2HtLLrRPclerGGnTXhDM42K8UigW7+/FaRnzYpvSD51Hp1ZprPXT6M/tZ7mQSA/zO7msmU3ozDJ/bzOkIJbbdSrFhluKVHYauxKeM2X8t7pSks316dGBeSDL+ZSmHUbDFfmMJuDZkyJKjVI7Ep2Jis5Gt51UFZ6a2L/dyfw6ZB3pPWwMbdFlopVqwydCg6J8ZOYTjA2fSzklIb516dOJdNgfyn7S4Xd5tjpVixynBekcQOQ+OxnbXtLXISG+tenThtJkAKuFTNpBS71kqxSPqQTnRRj8LuwYbjDdbGFzZJSWtTElZTVJn8qKCeRz12rjCFnRcyZUhwXY/E7sdGYy5v688ISWq8e3WkPU3jHSlj4W6LhUnsn00ZEkwq2rQD7X1KSuZufrqEjMa9VyfODRMfHfC4q7JKmMT+3ZQhwSNFpdhn0FhkPyUr0so/obHv1YlTZuKjBA63ikOrrRQrVhka9ShsHjYUi9k/gIl+7umsS8yO7m9Me5Swy0qxvpdiscpwVI/EXsGGooD+YubjEiT06sSxtlgtdDLwtmVWihWrDKOKtsV+q6Bm82rCTzjnsmlJaxV7TXt0wGK3x0orxYq9pbJXUSkWu29GRH9x7ijfXCaiVydBpomPDuo5lGLnWSlWrDJc0KOwhdjVKDL6i2+xTWU1EVHeZMOdlDDCQWKtFIsEuzTrkB6JfYgNRSH9xd/zTGT7bgjzpjQTHxX8M5+Bs80WJrErTRkSRCN6JLYIGopS+ovzOjgmsr4ead7UZ+qjgmYOzrZRmMQuM2VIkKmoFDsFDcUMKY9hkGEee1QozpsOmPpo4CCH/5xDHwiT2LmyYrke6UHjehR2dw40FuX0F9dwS2OSenUS3DP50UAXB1+zUiyUa1BlOKNHYkuwsSinv/jaMK8sJqpXJ0GGyY8GWPz3t9xKsUig48b78/VI7AloKI4KGvXcmcMpicnq1UlwxORHAyz+/VtqpVixylCvqBSLnbogqr94nFEOqxF64a7M5EcBBaUcfG2BlWKRQFvcT+lR2HzsfF5R/cXZU1xSmLhenQQ7TX8UMMaiFLtZlsKullWKjUSRHvRQj8TuwsairP7i2jYeGUxer06CAdMfBdzn4GobrBSL5A7SgbJK9UhsOfZrTNhx5wiLBCawVydBuM0EyH9ucXC1LcIkdrGsSK5AOtBXikqx2LHt4vqLu+jTl8heHVe1fYMFX3PwtPVWikUyhHSgdD0KG8F+dJRLex6V09TZS2avzo8UmQB5D4/BE2usFIu8mALdjPJAj8QewsaivP7i74izl9BenR8pMQXyHhZ9AouEfcSukhXHnVAPytMjsWXQBymxv7iONHnViB+OfS1qEuQ7LA6nVlgpFkkj0oFaFZVi90JDsV7gEylNpktdcnt1nLmUwYASDn62yUqxSB5BvyT0KGz4M2goiuwvvpNFlbkE9+q8RLFJkOcUfMqhFLtOlsJ+KKsUG55EetBZPRJ7FBuLgyIfyimq1OXHZOw8Oyn2HBbHfLOsFIukB+pBe/RI7FPogxTaXxyhWive6seW4uMmQn7TzsHLllgpFslFpAMNKyrFYveiXBX6VBqovsP86BY7YyLkN8UcvGyblWLF/p/8H0Wl2ElTDPcf994fFY+ZCnlNA4dS7HYrxSL5AulAKXok9jo2FHeKfTC9RMnrWKEPbvXAVMhnPuMweGK+sI/YObJCuBbqQdV6JPYiNhbl9hdXHSRKXy1e+FWm6ZDHDHFwsYXCJPYPsiK4GelATYpKseehoTgm+Mnsp8pfXlxnr42aEPnLOAcXmyNMYufLiuDnSAc6rEhiO6ChKLq/uIUofx304j57owmRv3AYPBFaK0th1worxTYhHahZj8JiD9xlf5AVHiNKYL0+eFZ4yJTIWzjcF5hrpVgkuVAHqtUjseA5PLK/x8haT1J9cK3uJpMiTznAwb8WWykWSQrSgb5UdE4MPXAX31+cTpTCog0++FbPqImRn9RxcK9VVopF0o50oOOKJBb7pdEu/OlEWoly2FdeDHkq6Tc18hIOlbTQalkK+76wUuww0oFe6FFY7IG7/P7iF1RJ7LQX7nXTNNZLrlsp1vdSbCXUgXr0SGwKNhRzZT+d8HgBVRLLOuSFfw22mR75xzSHwRPLhEnsf9k786aqsiuKl7Z219PWcuo27VSajikzmpTXicHHg8cMKgiCiIiiTAIiKkMjreCISjQt2qixVQyitN2VfMNU5Y9UBk0ffXfte/bd6/cF4O6z3l73nn32Pot0/XL7kQI6mLRjsdANd+39xYPDEaaxkbJYCKz+Ph0pbnRN+qCsVSzFImlGKmjaUCkWuuEezOl2h7ZIE9mZeCiscBc9KWYO68X9lImFLMUigQ4Zr7HjsJXxPxXxwZwsiDiVZcVDY8VP6Eqx2iXu8UJWCZZikRRBNdRjx2L7sb9Gxf3Fe36MPJfdH4yJyrJu0Jhiw+sjfohqPkux0N8sUkNT+XYsFrrhHpzWG5inIx5ks9hULPIrOulNsSCv3JdusvXKLHaerp8sdCLAsB2H3YbNfHr7iyvSXiS0GA3yfNDBORT6eezNDl9isy6H3aqsFDuOlFGdHYfFbrgHl5SG5eacJxltKk6XKqbuNPCedtV09vvTa6GtFPszXT/W6jykkHLsWOx17E9SaX/xMX92NR/FrGhRdP7k8dztBXQrdYxefubVGZUVyix2qa4f6l6kltIpOxaLHcH7Smd/cb9PO5rx3FIpbTqXk3M1SxsvwcfbvH3wq/UPfcuKy1iKRdKLFPqMoVIstmVR5WmdVINfHw9HtxFfaMeu9SlG2J1PWIpF8ggp9G47Mt2DHQ94UmFICl97tkE3W8x06guHsEv9PSPsTGIjS7FAiqGzxSfs6PQ5NmUo7C9+/sq7ItgL5lNfAN9/O8QIO7OOpVgk0IuyC8rs6LQcexxW3VGd5FkfD5rsZUL1ZIcDu85jSYbYmU0sxSKpRQq9xZBOW6Ap45q2cDTmenmWs62IGdULwLdSTTPC7qzV5bC/V1aKhWbCcjsyLcM2T2g7DJvT52m/xNfMqF6AvZXK0mj0jEms1mWxW3SFNwW9gvK5HZ1OYFPGpK5oXMwLfOU2c6oPgCct9zDCzixmKRZJPVLnJaV2dNoNzRi6+otLBzxu+z94hEk1ehqxi9yVYoidWclSLPRzAyn0XYZ0OgNNGbmaQnFue+Azf+JJmOgB30o1zAi7s4GlWCT72CIRzoZ7GpoyNPUXX0oHfvOSWTVywDNJahlhZxJrWIoFkoTOt7tuR6c52JRxXk0gyjoC30nfYl6NGvAdBg8YYWfmKdsn/q2u8B6FCn3Qjk7roIHU0198Yjbwn12s1EVMKXYU2iineLmzVJnF/kFXeKGzuGcN6XQYmjJatIThdleggV4m1mjJwq7vBUbYnS26HHaNslJsNlLozXZkiu190tJfnHoS6KBkkpk1Usr5CuULia26LHaDrvAmoVNkq+zotAebMnT0Fzd9G2hhezVza5SA74fgmEx3PmYpFskJqNAr7ei0BvvRpcIQsg4GejjO3Boh4FFoeXyBcmcRS7FILkG/FAzpFDtrQUN/cX55oIofmFyjYy92bccZYXc+YikWSQc/FMLZcB+Dpozd/kegckaXwwZvGpldIwM7Ck3D78UbEl/ostjfKYsvdFb7XTs6xfY+KegvnjgdaGOA6TUywO9j3zHCzixQtk+8Uld4r0CF3mRHpzuxKcP3C9iStXmBPr5hfo0I8Ci0gBcWuvOpMotdrCu8FUidtxnSKbT3yfv+4qJ9gUa6rjDBRsMkdmE7GWF3PtPlsL9SVoqdQwq9w5BO30BThuf9xT2tgU5a8plhIwE7Cs1SP37GJD5nKRYJ9EYUQ/tw2N4nz/uLd44GWuGw+Gi4Zvn34hcsxUIphAr9hB2dXsKmDJ/7i6tPBXopOMccGwH5U3Z/L76xnKVYJFVInd83pFPs5TIjHj/50I1AMwc4Lj4CzgVmfy/esUqXw65WVoo9gxR6tiGdQnuffO4vvrs/0A3LdhFwMrD6e/GOxEJdFrtWWXyh947ttKPTY9iUscPX5y4+HqiH02zlmcYu6V1G2N1ile0Tf6krvI1QoR+1o9MKbMrwtb/4ymP9Dhv0sYdSGuzdI6b68TNmPkuxSO4hdT6WtKNTaO9T0OrpU1+fCuLAKeZZYW6BX5oYYXfWsxSLpAEpdEvj6aC9T572F6d2BzHhNhOtLODz9x2MsPs+8WaWYpFA9/lq7OgU2/sUtPv4zEda4uKwweFCplpRsOfvg78zwu4Wy1IsktISpNB77Oj0NjZlPPTwkfe+CeJDbpK5VhLs+XtL/fgZs0KZxa7TFd4spM67UnZ0Cu198rG/ONldEsSJGuZaQa5gF/MVI+zOMl0O+3NlpVjoFdrDhnSKnb7g33GcweEgXqSHmGzlAJ+/z2aE3Vmiy2KXKAvvOFLohqa/Ynuf/OsvnmwL4sbjFLOtGOBm6pOMsDOJjbosdpOu8JYVIIWeY0en/diU4dsXVk1BED+eMd2KgT1/b6kfP2PWsRSLZC9S56OGZr82QzOGZ/3FpdlBHCnJYb4VohK7klO8oNCdTSzFIjmLFPqMIZ1iZxxNe/WsR0eCeNJazYQrQxV2Ifcxwu6sZSkWyQxS6GftyLTI0GnX9rSU5WUfFvbYOSbcOGz6BHWMsDOJ1bosdpmu8BZDL9I2NFw9C5syPOovvjkn5XfpdvQIoP/lOlOuCLPYZaxnhJ1ZrKwU+xtd4c1B6jyvzI5OsYMEu/wpLT3slHK7G0PbtiUvCFvsG17kHYNNnzTPhruzUpfDblRWiq1FCn3ckE6/haYMf/qLq8Sm/h/65wvaw7Swx7KKJ8EP2EXMZYTd2cBSLBLo+IByOzKtzjNRWko1Sznd/gqJl8C3cYlJV/umT9DNCDuTWMNSLDJldiGFnmVHp8+xKcOTZpLCcSmfm731L4l2Clts1zGmXeWbPsEEI+zMPJZikfRAuwxL7ei010Jp6c5BsYO9/1bF75GehPyaPZXKN30KyhhiZ5ayFIukBin0x4Z0ir3UzYv+4vxese/IHf/xh19IbxX/hXkXzFXsArYwwu5s0WWxnygL7wBS6A12ZIodQ+lFaakxV8rhOv/rHrKyVmGLLehh4tW86WPpEEjGJLayFAskOYYU+j07Oj2PTRke9Bc/6JMyuDM3hb953tIuxI1GLI+w63eHEXbmY2Wl2BW6wvsUKvRGOzrtjntp6WKekLtNVb3lrx+S9thmpl4k2IE3pg6BZMwiZRarrBS7Eyn0A4Z0Ch1DGbyO+vFKB6S87fFbj/MWvZH22OfMvcgtEezi7WKE3flIWSlWmcX+CN3wsyPTVDrWpaVzYsXQ5ndczXRb2mL7iph8cYB7nRsYYWcSX7AUi+Q+UuhVdnSag00ZEZeWLo0K+dpU/zv/h33SHpvN7ItjGLt29xhhZxawFIvkBFTohXZ0Whfj0lLZ11KutuvKu/+Lwi5pj73L9Avb9AEvZiND7MynLMUiaUfqfDvfyuNQWrp1QMrTGv7vfI2d0hY7Vcj8C6IHu3IHGGF3PtPlsJuVWWwHUuiGbt7Mx76VR1la2iH19Tj2E7fIJV9Le+xMkgkYQw2464sRdibxuS6L/bWy+LYhhV7Bt/KQiO4K09QZKT8bb/rJz+lRaY+tYQbGAD6ffpsRdkZbKXa+rvA2QYVuaJg6+K08stJS0y4pN9vtMIS5W9piR4eYghFgB96YOgSSMctZikVyF9r1YEin09CMMRvVY303JuRlB52uZErNSntsJy/2RoAdeBO0MsLurGIpFslxpNA7+FYeEk+iear8Z1JO9sjxs2NS2mKD3czBAMAn1+YYYWcSC1mKRfIVUuiGLrYGv5VH019ceUHKx8qd745rFvfY88zC4XMKu2btjLC7xbIUC02iUKHf4lt5SByJ4pkm7guZ2Kv3mKtR3SZtsa17mIZDByytY4ywM/NZikVSBc2chjoesqEZI4r+4mSt1NT/mfd6gcgS/4w9xDQcNsewK3afEXZnvS6H/aUyi4Vuu1maP4d9Kz8u/0BF16QcrDf//f6zU+Ie2888HDLt2AU7xQi77xNv1mWx65XFF3pA86QdnZ7Apgz5/uJ6qan/b977HtzGg9IW+6qSmThcwDcT7mSE3S2WpVjopwpU6Eft6PQbbMpokn6el1IzHnI/wL3uin/GDjMThwv4BY7NzO6sYCkWyXWkzqcMlWKhYyjF+4ur/yZkXSXdH6SRYXGP/Z6pOEwKsas1xrGX7ixjKRbJC6TQ9xnSaV+cztsMjQgZ158nPuwfbBK/cif9kLk4RHZgV2uAEXZnCUuxSKDD8S7akekVbMqQvVOtIi21/frBUyFrxD9jL+czGYcHeOw1B0u7k9ioy2L/qCu8pSVIodfb0WkFNmVIDly9eVzItPJqP3w7L/+yuMd2MxuHxw3sWvUwws6sYykWyXOkzvcbGu46B80YI4JPcuyxkGW1ZTQ06WmBtMXm1TMdh0Ujdqm6OFbanU26HHahMosth54VNaTT7dCUIXj35b0pIce6NpjZP9or/hk7UsZ8HBL9PP/tDWt1WewvlIW3BSn0WjsyBR+QFJt8kHoh9UlYl+mZz+Ib4h7LW77DogG7ULWMsDOJ1SzFAimD7rYZmp5ehfWjIqHHOPJayKxaJzP/Zx+IW2xwhxk5HMDFiAeMsDOLWYpFMoHU+WixHZ1iD0g+EnqKq6+ErGqgyP+gv43Tg0zJYYA9ZWkq82TMSpZikXTHwRh84AA0ZdSJPEOyW8ioCkJqqSjtE/fYaabkMABf5HCBEXZngy6LXaUsvDNIoffakSn4gORTkWeQmpjUGtrJ3OviFhvBrOg4Uo5dpF5G2JnEGl0Wu1xXeFNppNCv2tEp9oBkm8Qj5Eh9Ek6XhvdPZ4tb7FQTs3LmgEv+exlhZ+YpK8Uu0BXeHOgZnWo7OsUekPyrwBPUCLWZjoZ6+VLlYXGPvcDptxmDPWVpKvNkzFKWYpHUIYU+bkin2AOS+HOspdNCBvXVP9g7E6eqkjOKl2sKt7iU+5JotDKpLKYq7Khsjx2Eh2wiu4DsIhFRUcfHMIKigVFRFB0jCijiOP6HqaRSIgrY/Xinu793z+8v6Hfu975zb59eLoZ24E3GLdZLp4KiOIl9Qj9QYXW+YxSLBHrndpx3yhR7I2Af/Kia6quG7OmXrFAPfdK4xQZesC8vE/C6ujgqrEzEUUaxQFKgB/nEe6dOsQskm9HDv+8zY04+wIVwtT7jHjvN0/ncfi/6mQors5ZRLJIOaKGne6dOsVHse+zgs08bsqbr1eLCjoV5xc68LJLBr0XplFiZdbIcdoewKLYBWefjHqpT6K7YAuw++voWQ8bUilmEkhJr3mPvsTUvh4fgWQYqrM4qRrFIoGtcarxTppVYa4KO3W/obnPffdQvqE4ybrHnstib3Z14qKHCykTslmWxG2TJm1iCLPRL3qnTm9COgcy0k2sMmdLgFdyPiDP/GdvM5rwM8rEPx0+FlVnNKBbJFWih53mnTqELs98AF9dU3TZlSchr4O5cNe+xbOPLmNoHX5eYR4mV2cAoFsk76GeLd8o0PSB02iu+xIwfFYBPHbxn3mJLKtmeg+UieOs1FVZnO6NYJK3IQvfQ1ZrYeeIy1LBTcgzZ0fQQ+gnMmPdYXvodNA3YJ1NHhZWJ2MEoFskostCjvVOn0NnW66hR55k6tGEmG/4E0kfNe+wUG3SQgA+WHqHCyjCKhVILLfQ0znuFBNRxfd0/mXGiNiPvWpfMW6yvnh06KBLBlxLzngZ1tshy2D8Ki2Khx7s2eqdMobOUgQpMmys1tNOlxZAR9Zj32Fge8hQUQ9jH0kWF1Tksy2K3C5MXeqjPjGeqtB96awhmU2y6KUf6cMfQU6gcM++xvJU0KLBLF7ifSoOINYxikTQiC73JM2UKXTSGOUeoo9GMB435w6ZxL0RSGZt0EDRjn8pHKqxusYxikVRBC73WK1WK3TAC2fr0LmDGgsZNFkHiU/Mee5X3kgZBF/ahMCJXZyWjWCTRyDo/75UivYz9IARcTZPdasiAnmcYfRL1PvMe+5pdWj9YwT6SN4mUWJn9jGKRvJYXIbpHxnFovygJ/X6XoUFDk8TGD9AsNm+xXrqwMVTkYp9IAhVWnyc+IstifydMX2irvemNGk0H7y3NCf3cRYGh5bb9xh9Gcot5ix2tYKPWpA77RBqosLrFCoti18qSNw9a6Fc8UaID4GVDgVCftprx2pD1lNvY0FKWad5jJ9ioNYnCPpBqKqzMVlkOu1tYFAvdrF/igUCkagr+1XQ6xEPuN3S1at+AnUfyysJUcRM7tUOv9pFjKZRYmc2yLHaVMHlr3H23Tz7hMnlp1d3Rz341sO8l80mIP7rPmHGd27bO18luNG+xY/1s1Tr4sY8jnwqrs5FRLBLoJ1iwgUjiw+KJQQsrQ93kbHRIKTc07Dh7px69tPGU+N3kzKt9ZGQpFVYm4hCjWCDp0ELvCGpMta/O01elU2J1ke1pC7+YXV2HaezDeEiFldnHKBZJvHOBSG0z/SkMvrztXv9wedb8Tw5whY0rr/aRPp4brc5BRrFI4pCFfiuIKeL2AP1JPjm2Z03vWvjR0xls16q8xz6K41RYnb2yLHadMHl/cGvqrLCX9iSfN8P2C/uWhd9dznbtxKt9ZGQ7FVaPYncyigVSCL3LTDsQKXxLf5LPtUoHKjutzcIvP8mGrchj7IO4R4WVWS/LYX8rLIr90alAJHmS/iSfTjeW1k5Z+Onn0tmxHXi1j0zNpsTKbGMUi6TTqUCknP4knllXvuQSbcyI3GDHtv9qHxl5lgqrc4BRLJKzLgUix2hQ4jme50xtD9lYOHeXLdv6qz3iTO8wjmL3MIoFkgHtQt2ao7lNhxJOZrtLJ2b+04ICfZVs2gqAL/UdpsLKrGAUi6TbpUCEH7HSOe/WKpPkUzY+43lPqe1X+8jMLEqszCZZFrtLmLzPXApEauhRsul17Ua3hzZU4C1q3+YR9hHEUmF1dsmy2E3C5IVeJK4biETRpCSTVOze95uNtzbfENv2tyjGPgLuT9aIYo/KstgVsuRN9iEL/aXeYPLoUpLp6nawwAvPWVAilof3fQvwATMPqLAya2U57FFhUWwZNBA5oTcYP21KMLcuO1nh8Ta04HrWb73ag48FqaDEyqxjFIvke5cCEUaxgieJS11d5NNqQY3MY+zcS9KB1f8UFVZnFaNYJPnIQo/THMw4nUoq59z1lIoSC3pEFbJ1L0URVv4LVFg9it3NKBZIyhiy0Af0BpNFp5JKj8vHBo7YUGSGvXsperDq8/gPdVbLcti/CYtiq6GFrtl3h2lVMkktcrvK/2VDlPds3ouT2IcVP40SK7NBlsV+J0zeBmSdT2sOJodmJZLGMservL/AgiqzXHGzOC/AFUmF1dnOKBZJArLQazQHc5ZuJZEJ9w/SKbKhSw+796LEcJbemSh2B6NY5HzNG2Sh+/UGkxGgXckjIOEoo5THNqS5z/69GOBV3k1UmFGsGwxBC13zxpVH9Ct5XO2QseYg1YI2bf1s4IswilW+lgors4VRLJKbyDq/rjmYYhqWOH6Rctq6lZz/bQo7+ILUYnUfpcLqHGYUi+QGstDrNAfTS8eSNkkcI6bSM67bEOgZO/iCNGFlb6XC6lHsGlkW+3dh+nYhCz1aMy8bo2fJ4nq1oFLvtqFQ6kX28IWYwcoeQ4XVLVaWw+4RFsVi52uq9AZzkZ4li1ZZBxi9tqHRqTts4gvQiFX9ChVWZqUsiz0gTN5cZJ3r7k1roGlJwndTWLFnddmQqYZN/GvSsJr3JVJiZfbLsti/cL5mjmbNwSTQtgQxKO9L4YEVoX5kF/+Ku1jJuSFZY574CKNYJNAb0HX3ps3St+TQnC2wnVh5ietKZx//kgtYyYuoMKNYL8zX1OsN5gl9SwwFMrf2552xIdav7ONfMohVvIMKK7OVUazY+RrdvWlNdC4pTA8J7Sf3rcgVzUY+nwqs3m3JlFiZzbIsdhvna4J/eZ+hdQlhJltsQ5m0odcZXvsyH3Ao3kuF1dkoy2LXC5P3FLLQdfemRdG7RNA2Irih1PpsSHaLnXwe5Vi5i6mwehR7SJTD/klYFIudr3mhN5hKmpcIWupFt5RSK6I9YC//nHGs2o+osDL7ZH3E/lWYvJeQda67N81P95JAnfCjFFLGbaj2mL38M7IyoWIHMiixMgcZxYqdr9Hdm1ZD+3KfMb/4nnIxyYZw1Wzmcwxjtb5GhdXZyyi6obLjAAAgAElEQVRW7HyN7t60FhqY84yHwx1hcTaUa2AznwN86VEnFVaPYncyikXO10ALXXNvWjoNzHkuhMUMXLaNdXXP2c3neIvVmsdpqbNe1kfsXmHyxkPXnaY4NBgSikniS2HSVk5aEO80u/ncO04qVOqkQkqszDZZFvsHYfL+G1nounvTcuhhbhPbHzZ9xcIO7Dh280+AbxV8S4XVOcAoFsltZKGXag4mnybmNDVhdGJO+qhx+XLZzT8xhZX6eyqsHsXuEeWwO4VFsdnQpZXHNEcT6znT8rWeETPWvoGw6izGN4glXWY7NzRhVUCp1VnBKFZsJOVLpsUuybWmrH+MSRns7aoway09hgW8wW4+RydU6nYKrM4mRrFiK31SdzRemijOvFb0P8+ScmTkq7A7Vr3S7NtN6hN28zk+IqUe5xUAGuxiFItk0ql3yVKv+GtbT27F/39zs4gBl8SHYW95Z1TCUjbzz7gCVHq2ivpqRLFHRTnsIWFRbEYA2VRO6g6nKtMD9pr6tP3YZ2/ZP0sY89uwvCYm8axBCfMT2c0/B3fkzegLqqvBWlkfsRuFyfsI6iX61519CHN7ne0pvffFjr3Ex+4POydMJ97qfcYknODc5XwGUEoP1lJcHdbJstiDwuQthn766I8n62rYuuub3hz/gn/+K22Oj3wsPmzby4gpDTv5DfslrRilT/PQCT1WybLYfcLk7YV++wQxoMrx8DPXkqcfioaXmGl9GXB6+K2VYdxfRox8x053s5N/RTJiFcKsn8JqRrG7GcUiqxz6ATUc1JA6feFirb7B3gul/rJvb9F77+7GndQbYR5sVeNvnmjJTWEnX4i7XSFW+kznCaqqyWpGsUjKkJ0lMyu4QeU9m5Zrq4GfWiYTLuQU+bufaPz8/gk3Z4jzp9LCvsUkj0wAXzRTY3M62MYX407TZOiOvinIz+UcsT4bGMUiKUI26Njgx5U3/K44TgA5xf8lJmYkeiD+XtlQWlbQa1qeFE+W6IjbVjKPqHkMxs7j2vF5JMzjRt08yj/9tFL/kFfyw5SLuc9CXxydxVMPqu+why9N4aOm0pxla91e5K/merKg2C7LYv8sTF7oUQ/lLF89stPmcWIe7NWEkFATsUOUw/5eWBSb2Ie02AHWLyGEOAyjWCjV0CSvgvVLCCEOs0WWxW4WJm8MdKMCy5cQQlzmMKNYJAlIi33O8iWEEIeJWMMoFsks0mK5B5wQQpy2WEaxSOqhUWwl65cQQhxmJaNYJPeRDhvF8iWEEJfZL8titwqTF3pT6QzLlxBCHCbiiCyLlRbFdiEtNpf1SwghLlusLIf9jTCLrYJGsf2sX0IIcZitjGKR5CIdtovlSwghLrOZUSySOqTFNrN8CSHEZTYyikUShbTYj/9h78yfokqSOB6eEa2OO46roeuxoaGz68aG7gYIiGBDc8gtIIcg4AEiI6eIyKWIiqigjCMyiBeiCDLo6H+4P6ixhnTle/26sjuL+n5+5vVLMrPe91VlviqkLwAACMa32yiF3WuYxFazlmLrkL8AACCY7WZNYv9lmHuLOBV2DukLAACS2WWWxC43zL3POSX2MNIXAAAksw2lWE5mOSX2LdIXAAAE49uHUiwjXayl2FPIXwAAEMxalGI5GeJU2JN+5C8AAAhmI0qxnFRySuwxpC8AAEhmJ0qxnCRwSmwJ0hcAAATj22+Uwv5smMRmZ3FK7AnkLwAACGaZWZPYHYa5d5RTYZtSkb8AACCY9SjFcpLLKbEPkL4AACCZLSjFclLLKbGlSF8AABCM7wBKsYzkpHFK7DjyFwAABLMapVhOCjgVduAo8hcAAASzBqVYTpo5JbYP6QsAAJJZgVIsJzOcEtuG9AUAAMH4thqlsKsMk9jUdE6JLUD+AgCAYFaaNYndY5h7kzgVNqUY+QsAAIJZZ5bE/tcw95ZzSuxdpC8AAEhmE0qxnPRySuwhpC8AAAjGtxmlWEYCTZwSm4j8BQAAwaAUy0oL63HsmchfAAAQzAazJHaDYe4t4VTYp0hfSeSVfqEkLikH7gAW0/V1LJTGDw377fbFHrMkdqVh7p3mlNhKDGVB+E9+2+s9+RZLDMBaHn37nDrZ+N5ilfWtQimW87F7g1NiOzGUBVH3/TmDU/ikCljK1HeD4WqRvRJr1iT2r4a5t5u1FFuFoSyIvEXxab8PrwAr6Vs0GG7b+rRajlIsJ/GcCnsHI1kSzxdHKCsebgEWEihcPBjqh+30xQ6UYjlp5JTYixjKkngaLEbl8Auwj1PBxsJjKzXWt9cohd1s2sYTjzkldgRDWRA5KUGDlAfPAOv4FHQstFfbKLEoxXLyhLUUm4GhLIjLwYOUfgquAbYxH3wwTAbsc8VPZknsOsPc28CpsPUYyZLoV4QpIQDfAMs4rhgM5+xzxY8oxXJSwSmx8xjJklB+Ad0A3wC7yFSNhQn7Phb/AaVYTuo5JRZVPlE8VDZ+++EcYBWDyoeWde1/vt0oxTJSw1qKPYOhLIgMdaDG4B1gFc+UY+Gqba7YjlIsJ3GcCtuOkSyJTnWkpuAdYBXH1IOh2zJX7EIplpOznBLbiJEsiUPqSL2Dd4BVlKkHwyfLXLHNKIX9h2ml2DucEnsdI1kStepITcA7wCbO4OiSr/j2GSWxmwxzbz5rKbYbQ1kQqelEqLLhH2ARVIHsil2uWItSLCednAo7hz5VSXRgjxAAPnOaGAvJdrliI0qx0cq0sJnGSJbEH5BYAD5zkxgLM3a5YidKsZzMckrsOYxkSZCbjOBwdmARR9OwUPwF336UYhnJZC3FdmAoS+IqEap0rOkDixijnlt/WuWKZSjFcvKeU2EnsPOtJLqoWCXAP8AiSqjBYNf2TutRiuXkEKfEHsNIlsQoNpMG4DPkIdkvrHLFFqMUdqtppdgETonFUd+iuIQvmAH4DLkze75NnvAdMEpiVxjm3uIUTok9gZEsiV4qVi3wD7AHcjuA81a5YrVZ68R/N8y9rzgVNj0VQ1kQ/gkiVgNH4SBgD0PUg+ujVa5YY5bErjbMvW2cEpuMkSyJOipWN+EfYBG51GAoscoVK1CK5aSWU2KbMZIlkUfF6jn8AyxihhoM4zZ5wrcVpVhGyO+vw+YyRrIkLlKxyoN/gD0EmoixkJVjkytWmrVOvMYw917mVNg0XeW9QM144khc1EikbKv68kcjifdvRe0r4EBNUmLRF0PUzZBPyRUH9/6o82JehOL3frBOQ9blvCx4ERl7OxNPVIVg2H3qt8jtuUa//NHQq+7iCCZmxv8Tk5kXg3UhtH68pMbC4xBua34LwzqUYjlp5pTYWh0W+semalmn2s4cpuxr+OYPC2dKIr/Rr398qnbAzfcGOVma/PEqJPta2iYHIhqutJtt4ZzvlD1S0RPZ/Hp4rdPtg5ranos8KunbVresC68j0ervb2nri3Dk7za7ff37TdMty8yfxW4ySmH/YlopNpkz49vCty+/+WFs1CGbH7470D7t2q2IBrC6rdXt9wbaVixCOPUus/9gVELW61VDkj4MRMPehVJXIktuz3WcuvL7VreE98yJ2VVeLznyZzXdzvzNjH2bUYplhDw/NMKznWCLsJUDsQJIomxcdIrCQHnkNvvNf75ogt+o/ON+Te644Nq8I7mFUQvaxXse/DleGzV769202LzyvD3X4la3Xs7tFTKnohf5N24qqboOPzF/cx2UYlk5wZnqKWHWfPxvmyQIbGwK9bDODrZt5L3IRC/QXxjKlHtakz9Ou7Uvbi6aYZutDvmF5UNU08zFqVTNnrfnCtLqNpfElpkNN6Ia+Rrnlz90dH5lA0qxnJRzZnqY+8rfuhsrA/L/KAhahI5IQ8lw0L0vx5R/36rJHyMuBas3ynGrrwnNn0VlUTbYubBym7qcPNUqWKvbwChT8WImyo5sP+NkYoGu9yLze4/3oBTLyTHORD8UlmmPJoQoLD1rKw1eEIrAtla/Bl2KU3dx1+jyhzvlut8a9cAdDKVX9+jF6Gea0zzWT00Oya3Ugre6pY9xJOaruag7st5pEVzX3ML846l8q4yS2C2GuTfAKmNhNVQ0x4ohjrLzCsfrhZtV9NfBb3xXeUWnrimCK/v+SBEQuWT3VfGuSQklCYdlxyfUxbXUlYpWt1aGemyJhDHb5/D93JVIF03kSqxZ68TrDXNvB2uaZ4YhIPNyFDb2CWXpgpcWqfBJPay4b6XyEl2nFl5zY99rGaE759afNT0i7K2nq/hx1LWvqStVrW7T2jOzUkbk+2krFzTdpsh4iV1ulsQuM8y95ziT/EIYClshSGHLqKnQLdVVT1nbilOnQy+U6mqWbXBh32khsZtw+ZpXUy/E4Gfe3Uo+7ZX5UqA5M6VEvoksEtzSdZsu4yV2h1EKe8C0Uuw0Z5KHsYbyXJDCxt6mLB1RXpbIGTj1K4iy0UPb91kuNtfIFRM8d7tkdx2UYm8Z2ShHnu1Mfo+tLIzP6E1MOZHPpcws0nSTd+avE+9FKZaznsfal9Apc3Kt9ymtXhabZgxcqfKuC8prWnRVuZzNy5MTvPNuFhNS35lR+L9H7XK2QM7SY0N/J/OCoMi3BiKwmn0dpViUYim6WXPccydFS5ooiR2kbFV/WDTA184/rt4JUb3ZTLwmdzh/stOdLih6bvb6qRRkL/VmNkZdeMXjrK1fY2IOS4o81Tqm6Z1qItt4if0JpVhOrnNm+B2vVh29Kkphya4t6qCiAq6wFZ9X37TUw9pyaA05jkcdpF6QFD0XCjIoyd4bxLS7xHMV97XHOkhoBJ5K8iThkKOaNo1rM15hY35EKZaTRs4MP+vVqmeyFPY4ZSu1O9Y5rrBR9S61rmtqmXWexMpa5v/F+ZWuR5TBGR7HK7nYQrS6tetLzLeiHPnB27ANgblM8yX2B6Mk9p+mubc9WkUliqpCWRI771VOuD6Zq6ZewZUrV116vOHcHZM9ISp8zg0pJbLyjVjfrPe62JJKpYy209iOlIly5O/s7wIN5iusbzdKsYycYc3wGo9Wtcl64sV+8roOMM8UNqpyOKu8alRP8cm5OaZcVviOO9mbsyDLYHUner7nugzZ6lalKzH7ZTnyoNrSX7Tc4LbffIndjlIsJ6ztf/UejUotEyaxpyhrqXnFNZ6oFTd5Wp2/FKGlicBDWeHrcTK4QVi+DSktfU9dVkH9j2SrW7WmxPS3GyOxWr7RelhlvsLG7DJKYfebVopl3UGpwqNRQ8KeeIVUew85r3jDE7U4b0tXWvbkzzWsdyjWxSaytcIMHvRUg4+Np/5HctZ2RFNiFghzpHrrmyodP9/UsQQUNmYbSrGcsO5o47VOUSFsoPZ5fh9gajckd1ftVk4xdFRIK1ysjL0RFr9jTpVtYfYSqybJ1GUt1D9JzdrSdSXmRWGOTFZamqjh17lOKYpwKXYfSrGMZLAm+BOPVrUKG6jkxC038s0Q5MkNTcopd12EFDbmoLD4OZ3HkCdNYpWfUweoCsEAdcxOVVjTfLf0CHNkJWfRZGkobMxalGI5GeHM78cejXoi7Yn3iLKWPBeT5yCAFm8v7hqU5LQbhRU3KXT6yEjaqslVpaXkRjFk4zQ5a9PVlScu8nlKUx+E/ds3CpaEwsZsNEph/2ZaKZZ1YafRo1G/ShuoVDMIOa9Iu8cStXhva9NhBzvlrSvzHkmLn1MLtLS5V4W3vqxK6n8kZ2269gAUF/lhvqJJT93SUNiYnUZJ7E7T3HuHM7/jPRp1Wtg4PU8Ze4q68neeqJGdK+oPPsLdcem8yzn5IWHxK3Owt0uaMKgV70/Pk/UH3mq/oTElzJETykWX4XB/ejp7iSisb79REvtvw9xbxZrg3R6tShA2UD9Sxv5GrqvyhI2sdSo/IyjOCnNu5XYfm0lh8XPqdhqVJrEd3t6SqMk6OWsrDGhKzD5hjnzAVTQ52RCzVFhmVin2P4a5t5Mzv294/Co7J0XYQC2hrJ0PpwjI8GKk/hb5clhOmB10a562E/N08czB4EvC7E1P9fSWRE7WySKursPsAtIif4mpaFKRv2QUNmY9SrGcsB4v4vUkt3Fpk4oxytrj4RQBvUF2rqg3uwhn453ZPPcTnQ5p8XNqS+kVZu+k0tL71GXkXv5kETdXU2KKizxL0STl48uYJcQWlGI5YT0Vo8SjUcL2YKN7lrKpKxd4okZuL6nuSJr2vBwxH1Lv5HVpD1qHqpl/Qpi9U96GBnmm8RvqyiFNiSku8l36iyazzRlLSWD/x961NlV1ZNEaEzN185gkJpWZVDJTk0xMVZya+TBXHoKCShQEBJGHb0VUQPGCgAoEUFHAt4L4QkQxShBl1PmH82mqwPGsw1nde/c5nLO+t910e8/uvfZeq9OpT5NSrCA2i/7/biVXlY/+0Y4sCTShKWHPErSz6ZI5Nmg/4P02KlIbF3lszMT065rWDcGWByUwd0TODxqoVPus9zAkbUXWm4Xa0IFGbBL9m/AeBLM2W7QnPPlR/ZPP4oom9989VX9u15rs/eklhg+iVYr9KGLbmycZYY+zPRSjVDOPEYboniX46t4OkcXCrMvbfmA/x00GxyWuk8cEsLbgJ/qEnS8NMr886Ni4z/58MGtrVDn5cZGNhE/S7eLogJp0jPBhpCLsT1ErxYqqK3rJRW1arfE1WIgMmhPa3leikddFFkvaD1Rx3KRdauTnDSJbAr+Yt3wGT5oM5gA7wjoEJoRF3BZLk0DxU53MLxc+TJzDFU3WpmOE9yIVYv8Rte29LBli2RQOdjkfldmIYbpnCb0JVLJdZLGk/cBTjpsMjCdonj6Z84NfTL/mlAmTwRxgX9ArgQnh64JHNE6+UubkW7hSVRvbe7HUkPo6UiH2i4ht73ZRdQx7F1zD3UuNqNc97PUbPrd7TObYGtCcVc65yYxG72qAL6ZfwQJqxI5vFFnvS22esosr31s8+VqZk2+iKBNYNMlNxwjvJ6VYSYi+PEVTgockWqgwDtPXb/iqXLvMsc2gOT3bMTYMKHGTwxq9qwG+mH6iz7smg0ns0uYp0ZPzA8WWJuk1UU5xgC9JHuKYsvp0jPBxUoqVxAnJEMt+nGCZSqiUBxteoHEB9HosF1lsAWzY9RwGnw7IV2IEVstI9qtMEuezDrLufiS7FOApB9HfeNnWyd83UE6RgKbIazimLDtOIfbLpBQrCVG7swy5qFatxtd5aKev3/fQSBmfcMg9eNt95Chxk+MOutWgg8q/fQbnmwzm0K3NU1Zx5XuLXNCMzMlDU+TTHFN2MB0fpL6KVIj9W8S2t3hAMsSyxFAOdy81wjH2+n2lCAzcUyiy2Fqux+yoEjc54qBb7bJJ4tyhn3Xf1OYpd3Ple4tc0DMHWcImiimrS8cISSlWFKJGhUWl5KqOKjW+zqdeS1jjgrUSqiUfwM6VU57DspS4yXr9bjV4V/RLnF1oxDq1ecpZNOGgpUmg+EnGNh/GylHPYbChuysdI3weqQj7x6iVYmslQ+whdlVZyqL8tI9oEBoX1EhQ5T54TsmE1LjJXP1uNWg/cMZn8JjJYBK9yhYN8A5izeUTip+uimzkSa7B4KWD1udw4odIhdhvora9NyRDLNsnAkNBk8xG7KC9B96gkUMiiyVlQnlK3CSUwAh1q9WYiD6nNBSjCwH7giR4yp0aWVsp4oLuyxRNYFXprOewXfqtz+FEanlSihXEhuOSIfYmuao8DRuaINQrfK0aehtvFlnsNU4mpMVNrnXQrdZiIvrs01CMLgSvESPxG1e+D4ZTDoomsKp013NYv37rc0hDbFKKlcROyQhbwv5H7dQW5aexQxP0Hti3mi3i8iBlQlrcJMwop2S2pMlA9AmfOLWmGF0IXiNG4gya0JbLJxQ/dcqcPGwwKKWYspl0jLAsKcVKokYyxNLVvRv6ScVBWt47RhdxeVygZEKYm7TI4uXrd6vBi86sz+CTGorRt0BqxAr+h8COU41U+T4goInlE5GN3Mt9gqDRY0M6RlgVqRD7SdS2t1IyxLJaOxgKimSSimy6plxGF3FpQJmQd8XrqhY36UACM2byH/GchmL0LUxQPOW8eNI2XVYRIM5u5cr3AdGmXzR5hKac9ByW0W99DilPvDJSIfa7iG0vduExBWuU1+Mgqain/5A+uohL4zZX8dLiJvc5kMBMmYg+X2goRheilNOIvdWlcCez6LD1iCvfBwM0sbwkc/LwijvCFU164hRio1WK/TZi23tQMsIOFJCranaQVOSyidfGbWwRV4je7+S4SYutzy4kMA9MRJ+XNBSjC3GKKy/8X5fC88UadJ7gyvfBUOWgaDJNNRjA5EKo9TmcWBGpCPt91Eqxom8A0O9xvXaQVKxnE68DdBGXxxuujfuYEosHM8rfRHYE2g/4iT7h47ZzMkdIPm77jtzrzOIqJ+uo8n1APNUvmmxEmojznrESNnTfiFGETX+WlGIlkScZYk+yq+JekTHCXVomdE5CGOwDKBPq9hq1nfavCog+feOJkyaizyENxehb4B63fWeXwvR200hkLWub1S+awCvusOewEQetz+HEJ0kpVhLXBSMsbUgKrQzbHCQV0HsA1vEeiSwW1jr7ucO2yOJhCYyM8USOiegzo6EYfQvc47bvzr1uLCKP7dEQrMK3EoWKJvCK6+2tBo0e82IUYVPfJ6VYSWyVi7AzrD8x+4qMXFIBZUKwjrdXZLGw1rnLcxjvX2Uxozwkc35HTUSflRqK0YUgH7f1aFh77T9hMxeJgqHVQdHkBddgkEsRQUsQ3yalWFnkSkXYRp7QhaHgrH5SAWVCm8PWPfuSu0ZYZPFgXiH0TFKWiegTuY6UFIis9zRXXvDKvU77TtigIViFBlInZE7+EtVgAHsvfokTT/xdUoqVRblQhO03KJlCK8O7+kkFlAnBOp7Qs219XAX8Dhi1zSKLt0vfeGKviehzXEUxuhDwOXDv92m9xLQdvpTRjEar21H9okk3JxO6yxFBSxDfRCrEfha9Dd54QSTCDpv8aOfAP7y+VGQb+NeqYR1P5tk2WOv0NtknuUnLeYXMM0lGos9skY4CjEOURsw79/JzFd2iIljN0i+a3OQaDGo4ImjpIfVTpELs3yO4xYON9gPsz0dMOhQH0T+dK7ML8LXqa2jkcMi6Zx9w1wiLrc+QOhd6JqnMRPQJXUccPHHaSOReTT6/uAqNrA1yCVkyJw/tzM95DssXkUJEEB9FKsL+NRXFPd46bTvC9pqp7OArMvUym3AZzXkQDCw8T2WURiBrnVCzeNHe8oZo/RMP+H/Y75XSe2iwjM9PK2fOcZYuoNRykSgY8hwUTXq5BoMO/Z9tOPFFUoqVR2F2tcX4OpBvWi2FGWW2yBYUF7HeA+MOumdhrdO78WWW4iaDI0Prn3jq3ET0SRo+GyGH26N8upmIf6oxAE7oF02gnbl3g8E+jghagvhLUopVwc7McGOReXgdfVBfZd45QWeUBn8/7T0w4qB7FtY6N3lykwNK/O0wrX+iccBE9HkbDV7n4Ja0k8m9fP7KOY1Wt3X67CuU+/Z5Dhtz8LMNJVL/jFSI/Ve0d7u4wAyWGpFgRlkn86fD5odaNLKeyyhNAHsoRzlu0iJ/W1inbzzxH/S3dZocfqfMf7hf0B4VM7kXLnUOcpEo4Mkf12dfm7kGgyn9pvdw4nfRegMglU5gjtt0RsmjBc1ZgUbmUhmlEeBDl/kcN2nxmXsX1Dm0H7hpcvgyPj/dnEYM5V734YTXNFrdehywrw1cg0GfftN7OPGHSEXY3ychVjyjFHKzg56/W8BAqGDvkFlshnPmgJrF2/aWByUwTx1Q590mh+9AaeKtEYN903DC3RqtbjCjnJI5+WqqwQC+jtURp6/tn5JSbPwAkwoZNzvY/DCDRq5FI1/JbFAv58yBNIs2n7l3QJ1DmZCfVc/WsClNqqjcC2exlzVa3Rr02VdSIHbAwc82lEh9GqkQuyIJj9IZpZCbHWx+aKBT7hqRxcIeSm9nDqhZvGBxfWGjzv1EnxfDpjQZpHIv6NUJ+xustbrN6LOvFVyDwTn9n2048UFSio0fYFLhws0O+uPnK7Gv83CYc+bIo/2rguGKA+q808SqpyxkSpM5LvcaRhPu1Gh12+LAcuQhFyth7X5tjL62Hyal2PgBZpTtMnM+QHM+RiORgr3oishiyzlnjk7avyoYIHX+xkFS6CcWmda35zrMdfTdomudRzSytgqNOP4WhrkrbrX+zzaceC9SIXZVEh5twMgKjwN0s4OvXG7SYl/noR3NOeI57IaS2jhs1LmfWAS6VghpjMq5jj6+1tmiIVWu1bccKdxDNRjACu69GH1sU19HKsQuS8KjDcB2+sMiU/KvXI4psa/zMYHmHKfC0HOLy3ulbzxx1UQm9NiBxqid6+irpqvcjRqtbl36Jz/OXXGHOCJo6eH9pBQbP8CWjj0O3OygMd0aJfZ1HraXgCnPe25Qj5bauIMyVTBCs4lVzy0HGiN0S/J+3BbWOmGVeysnww2IOf2TL+euuA/1f7bhxMeRirArkxBrA3xLBw/+lcsHVGeoEU5xG9RM+1cFA9Q/zcqc32sTmVADp58RuyV5d/RVcJYjaZ+maVtky0EHJ9/OxcpKpaJJ6PFlUoqNH2A7fUZmzkZWNAiLuHMyi93BbdAz2r8qGMYcJIUzJjIhOHi//i3Ju6OvlrMcSfv0N9i6RlxzUDQ5xsXKOv2fbSiR+iopxcYP0B99SGRKqBiFcsOTDrwef+U26BjrXxUQU/pJISRQR00Gt8kc4Vmuo6+LsxxJ+zRN2yJbdoeMDpjj8u2uGH1sk1JsHAGt8DaLTPkITXmGTrmFvB7vUBsEP0YzFpfXp58U8gSq3+BfHdySvB+3naMsR9I+TdPWsrYL+id/nYuV2Q5+tqHE55GKsD8mIdYGYDt9tcycZbTYYJe+1+N+NOUl7mPUYG95sFttVOb8eALVdDCJNuSD6NmwNshZjqR9+lBqGaAAABaYSURBVBtsZW3QQEqIDtjBNRjUKxVNQo8fIhVi/5yERxuAVngvZOacpsUG/VRnqBGquA3aQftXBcMBk4ySRCVNoPqxr6f0b0m93MlPoglvaWRttx3QAV1crLyHfrYF8fnYppYnpdj4IaMUChZLo0GxQbcDr0dY8TrHfYwe21ueA/NX+D7ter9HjBH7WlIqsmAYKzu5kx9BE77QIFtqHNABz6kGA5hvz8ToY5tKSrExRK9SKFhs4nWZTrmFvB5n0ZwHqEgC/asC4gVnaGeCcZpA9WNfJ2SO8CmaM487+XE0YbUG2QINpGRsf2Hb0gyXbz+L0cd2WVKKjR+gIZrNULDYxGs3nXLLeD0WD4Apt22kuMl1Ftd3ScNGaCFGTKx6qhzckg6hOT0ft90wwHqybFEhW5pMuAQO2VyDAcy3m2P0tV2VlGLjh8NaoWCxiVcVnXLLeD3CJ1P6uEhywt7yNqvYCC3EJE2g+rGvQo7YKFZ6P27bSnuyVGhcI7aacAkk6rlY2cI1dC89nnhlUoqNH8qVQsFiEy8oGoQpt5DXI3wypYyLJI/sLW/Igf3ABE2gpn2eKnfgiO39uG0O7cnyUOMacdGESyABXybuofLt+4Xx+dgmpdg4YpIrU5kA9izN0Sm3kNfjGTTnmOewWda/KiAy+vYDpeh92rpCA979vgNHbO/3aaHL5xM0YaXGNQIq37L1T/54IZVv98boY7siUhF2eRJi5TOSbpEpn9CiwfLIeD1CbrLR4vL+y965P1dVXXH8IoF6FVAoWhgcKBgKMhSnjQSI2IQkJEBigBBjEBKQMIYQnqEm4U1oACFpI29T5SEReVf9D1un05kqnLXPOfc81jr38/n9zl53rXv3d++99l5ro7JqhK6FTlsK062old7NbY+FrsnSmsQy4kS4UoaFcCNcVulCuAvd2eN1UxJbijrGvi49Gc+YR0I/GryVfK1HcQXeFU5JTkVoX6uy8gOuhc73KUy3y4UhvZvbDoQrOVLmuHcb1TJCLDkSU9nf0+GySuJ+e7SIZtuppiT2T8hj7DuSrfGMeTz0o8Gvk6/1+EwasiecknwfnXlj2qoRuhY6p5KfbkWt7PT82Gjov0Z5EsuIRApIBYm8d1bpfvInZSrJLyAVW3yI69InsQwptioXS72IW+4t8TioIVxlh+7Q9auCUZ5C+YGnhSx0Pkt+uq2QhvRubrs/XMmRMse9228j+lZpVOuW6lC+t91zv70v+ZMylbxFKrYIuRcuTVUIw+Ger7u23GnUerwW6mwyymbZO5MvPyDWjnAtdMQeS2kkJvrCHbaIf42bSSwjEikg9UvEt97LPT92J4WTMpXMJxVbhEjr0tp4Ck+Ircp/CL3lTqHWo3dlB1FJomyWLb2iqLkUi0tGClnoVGhLTHg2txUfiIl/jUs1SSwjvkiigNQvEd96d3t+7EryJ2U6mUMqtvgQ16WDK2PhYOhSL+KW+2QsxopNX/8WTkla/Q/vuhsjzuYxxa9X+m4/OQw+JH34cjwGS5e7vVsRjYUrOVLmKBf4lX+7O6W7x2LJkaoUIu99wWCX9LFj/oc/Y3yyzb9jSmJLkMfY16VpcFSy9rIyY3eGU5IAuJ7ArNYWvx0Ogz9QZq93KyKxSuRd6Tu2RGRbpzTIOW2RP+Bp6oOIRugzPtm+Siq2CBlX9j8VHw2u1TarjMSuJK4nMC3KPLLJkVsQr7qlwelwWe6r0pf8MSLbVkmD7FfmyEHPx0/roxqiw/hku9SUxM5EHSPhkbI/qlgUuU+bxHq+76/cF9EIrkqLPyrzyH2HvcPaQngjVJb7vXbpS3ZFZJtYm+u8Mkd6XzBoimiEh9Yn27mmJHY66hgFYg2iNBCLIq9SZqz3f/5oVEO4Ki12KXNJg8PeRmX2ejekuSQ9EOuVvmN7Eru2yrPKPDnuaerHCSVN1Kdil5GKLT7atG0qxKLIncqM9X7fvyeiEXod8WvXFr8LDoMPK7N3Zbgs9/vSd7wakW3XpUHGtEXee8vdn1DSRDsTSMUWId9r+6Nul7bctcqM/cjT1B8iGsFVnumqtvi5dt17ldl7K1yWu0X6jg2xr+Bcl7HSwHvL/TShpIl2ppGKLUJOKfufLpeMPaBtVmnyNDWqO5SuIj0NyjzS5bC3eZ0yg72b24otTsWaHieSCP4tZY70Loc9lNTyTTuzTEnsFNQxEh4o+6N2S8buUWZsjWcerzqqFPc1R/zOW4pfmaM8l66918lQGdyfierStFhm874yR3p3trgd0QhfWE/FvksqtghvO9Uo+6OK9fG1PTDyvj3bEdEIra7yWp8pc4mr2/hpM6cm9etCZXDLontaJgdf2xPxPbHfdho3PtlONqWwb5KKjYTt2jYVbZZOtb17ef81ohEOuwKo7EJ4jav+7j1lIVwVTih3St8xquB/J3pS2eJ4cCD2lXGb8cl2HqnYImRI2Yzn/Xz9ZzaamVWiqrl0wBG/emXxc7ZQO6jM4Duelh4Nl8GN8DBcThIoc6RwL29XNCM8sD7ZTiQVW4RoK5f0yNIWaFdZ3BJ7whW/SmXxc/V36VBmr1DoZLf0uTHpS0YU/ItlliRWuP8V0e36PdZTsbNJxRYhdcr+qHK6pVvXoein3pbeSUaxyspqVbmk02WutvJcgoM/lLKkUpVPuVW6fypkV7aqcuQ/BUvvRpM1X2N8ri0hFVuUKKsYK1aMU1aVdTz2pcs9d/x03Qh3nWtrK88lnWtXCmnu8wmsWz9wuHKlJkeuk7rnrohkiAvWp9oppiT2DbQxIpTVS+qwswfqEjtyRnHf86u17vj1aHLJLWM/t33iz01oq+4oM9QbgW2Dww5XqjrSEa9//T3u1ZANZpKKLUp0lS64Lhv7oaZ1++exS9+Ij/itUOSSB84G8MrKczWG3XGfk79mFDffW1y+PGMm8huqCh/h8oD1mTb/JqnYokRXwSTXyaiiTZCj7NJI4SMc9hM/RfeHtg0b+7U9lo0Vbi3VxZ5x3ljp8qWi6tTbdsumFl4fZfBz8zOtrVTsIlKxkaEqmecqF9hoZXouay64D8o//F3vUFPkp6bJbewTTT+2+w4HV37h9UlXmaFLDwveFja7nXncTOQ3x3zeYILppGKLFFXVxF03aNdoad12z6l/hwocobPZX/xGlXikarMPY7cq+q25HVwedn1V9k2Btp30U423yUzkq5fHfWpugFJSsUVKpaKbieucs56SC0897h1m8+VEFFbLZqa2wo+tJ/X81i66HVx50eOzZ1yf3FDYUvCzDl+R11GJZbDPbelVFDY/iVRssbJDzxWUvW5rVdygPeTHrwUVP79X7zt+QxreXT31VdxuQI/C9m/wYe/ufS/+8I54zxZu+uwos1bD09iHq/2Y+q9CNLw8C9Ns3pTCziYVGyVX1Mx7Pi74bPg6dSv3jfjzawEv7g9VBojfs6rUXXLR37ZrVM0vrcGfg1+8+9pU7f5kATf1ezb4jfxo+pFfOeTL0vVbQo/QeyMTs+xLpiR2IrIYKWoqOvi51LB9S9qTym6/fn0cdlJpMrZGGl9j64d2fbQg156IM/j7gtQJbEy7++4nfksutYdtCbVxezYm2SWmJHYeqhgtK6p0TH3DfoytO5GmibUfV/v3a7itzHfrg8Zvc6pn/Q+u+bVTyR3Yx3X+Xdv3AtfejTH4/WsDRf7CpjQduWW1f0s/vBkqAVGekSk2v9CUxE5GFCPmmop7KF/5O72rPpJaH691j9sD+bUieGOZ4ztCxG84vePzy2d8146t3KbhV/bBgWCuff464FV/n7x9PXgWtilo5Hend1vx4JNAVYPXrAq85d7UsD4rMyyp2GJnTYuCDs/H/Vo71pPKAdnZ8aGgfm0+FEhWarsPhItf9U/p9Gb/urE+gByk/xMbPNVWuGv9LrP+0hDoJlpVf1OYyF9Znoon9+6pD2rq0f5AI3R9NJCdCXYGqVhEtq8n7V6eR/xb23G6M+Fm5FsOj4Zq9dH8Zb/Pi5+93V8WsGivvr21N1mP1N7/ZjiQiWkXDukK6eBfubY3QPAb+32q7OUf9wyEjvxj7ZH/H59+/MjfCVTVyvEblVmaXl8nFQv/Ye2NzV+uSI+xQMbWH60ov5KIXWfKK3YUcmJV2fH5SKM8RPmFaxFc62hfnVT8Gjc3DVUHNe+WeHEmVnuflF9oq4vItc+CBX+oyRH8n23bbiryhbSVc/9tr4x8e/RS1qbWqaRiASBexLThAP6BzJJfYElhXyMVC2APseHKMfwD2eUtU5vYxQQMwB43pE1sN/6B7PK2KYldSsAA7HFaktgV+AeyyxxTEvsyAQOwx/uSxLbhH8gs+XcsKewCUrEABpFelgzW4x/ILK+a2sQuJGAA9miXNrEX8Q9kl6WmJLaUgAHYQ+wZehf/QHaZSzt2AIgXsbffOfwDmSW/zJTETiBiAPaQGiS1rsE/kFkm5LjtBACxUi21XduJfyC7TDMlsX8gYAD22CH1CBzDP5BdZtFmBwDi5YwgsT24B7JL/l1TEvtbIgZgj8dCb7Qh3APZZbIphc29RMQA7LHFW2L34x3IMPNsSWwJEQMwR523wj6qxj2QYSaaUtjfcaEYwB7nPBX2YQfegQyTn21KYicRMQB7fONZnXg1zoEsU2LrnHguEQOwx0YPha3qwzeQaabYklgqFAMYpNVjD7sZ10C2mWlLYqcRMQBzfPpihT3bhGsg2+Tf5M0OAMRL+QsV9uQwnoGMYywVSxMAAIPsfJHCnmrGMZB1phuTWN7sANjj5vMCe52LTlAElNpSWJ7FAtijvua5ool363ALZJ/8JFsSu4iQAZjj2q+vOd1txylQFBJr7Jx4ISEDMEfL/+vr056+S7gEioOXjEkslScA7NG467980tDyjN6wUEQsMSaxbxAyAAAwQX6hMYldQswAAMCGxBpT2NzbxAwAAExgLRVL/UQAADBCqTWJnULMAADAAtZexVKiGAAAjGCtQHEuN4OgAQCABaabk9iXCRoAAFhgJhILAAAQA/lF5iS2hKgBAIABJptTWHrZAQCACaYhsQAAAHHwRyQWAAAgBvILkFgAAIAYmJFDYgEAAGKgFIkFAACIAYNPdnK5CcQNAADUY/DJDqUnAADAAkstSuyrxA0AALST/41FiaUNAAAAqKfEosLmphM4AADQzismJXYegQMAAOXk55iU2GlEDgAAtEusSYXNzSdyAACgnCk2JbaUyAEAgHIW25TYWUQOAAB0k/+9TYmdSugAAEA3Rs+Jc5MIHQAA6N7EzjEqscvoAwAAAKopyVkFiQUAANVMMyuxJQQPAAAUk19oVmIpUgwAAJqZbFZhc68QPQAAUMx8uxK7hOgBAIBe8ovsSuxiwgcAAHr5s12F5WEsAABo3sRONCyxC3i1AwAAainJ/Zu9e11KHAkDMNwGRBEFQTwgKJ6PqOje/73tj53ard11ZjyQpNP9PLfQqXrr63Q6TearHQCi1W90Yl8tIACR6t40OrH+GAtArHqNLmw4tYIARGrc7MROnHcCIE7ts2Yn1o8AAIjUouGFDYU1BCBG3UnTE7trEQGIUdH0woapRQQgxiF22vjEHnsZC0CElqH5lpYRgPiG2HECiV1YRwCi006gsC6fACBCuykk1stYAKLTPUwhsWFmJQGIzF4ShfVlLADRDbHPaST22k4xAHHZConwW3YA4hpib1NJ7JbFBCAm26kUNjzZKQYgpiF2kkxi/dAOgJhspVPYsG05AYhniB0klNhTYywA0eiHlDhTDEA0Q+xxUol1phiAWOwlVdiwYacYgDi0L9JKbFizpgDEoHuVWGHDg0UFIAabqRU2vNgpBiCGIfYpucSGoWUFoH5FeoUNU2MsAPUPsQcJJjYsLSwAdeunWNgwNsYCULPORZKJdcMTADXrttIsbLi0tgDUqki0sOHYTjEAtQ6xk1QTG/pWF4AaC7ubbGHDwBgLQH16IWH+twNAfUPsRsqJdYsiALUVdhGS5m0sADXZTLuw4dkYC0A9Q+x14okN5xYZgDoKe556YcNZxzIDUL3HkD43FQNQvfYgg8SGmYUGoGLJ3k38bxvGWAAqLuw85GHbWgNQqV4mhQ33fmoHQKVD7G0uiQ37tooBqLCwrZCPkfUGoLLC9jMqbJgYYwGoyihk5UpjAajG2n1eibVVDEA12uuZFTa8OFUMQAW6dyE7LVvFAJRf2IeQobnGAlB2YfshSz1LD0C5hR3mWdhwa4wFoFRvIVcueQKgTL2LbBMb+hoLQGmWxyFjhQcAgJKsTXIubDhc8wgAUE5hByFvt26gAKAMnYOQux2vYwFQWMeKAWiG7HeJ/7KrsQAobCkWGgvAKvWexfWHLY0FYGW6j/fS+rdtjQVgVYUtdFVjASihsHNV1VgASijsuaZ6HwtACYVtKapfAgCwep1rPX3PucYC8K0R9u1YTd93pbEAfKOwW1L6U3caC8CXC7svpL+w7t92AHwtsD33/v/a88wgC8AXCutrWB/IAlCCtm91PuJBYwH43AhbvMjnh+x0PC0AfKKwJ9r5UfeFQRaAjwZ2NFHOT/CXdgA+pj1Wzc+52RRZAH4/wg79fN2VxQCsPrDLJ7380qmnpcgC8AvtB7H8qoXGAvDTEXZuj/g79yk+iiwA7wa2WJfJ7xm3PUYA/C+wjzsS+W2Hjj0B8J/A9k71cSUOXkUWgH8CO3OMeIVni72SBeBHYEdTXVypu57IAvBHd3ijiSILwKr72r4c6GEppm8iC5BxYGf7Ulie66HIAmQ6wPbtEJdscNlWWYDsAvt6p4BVaNkvBsiqr7PxvfhV5fayo7IAefT18cT/1qv+UnbeVVmA1Pv62nLRfz0HjOdeywKkm9e1/umZ1tU4yy7WVBYgvby25y0fwEbwXnb8assYIKXpdb5/oG7xfC57UsgsQALDa/Gw4/BwfA5afTcsAjQ1rt3e/Gr6ImbxOls/uiycgQJoUls7Rf/k1Hc5DXFxcHq1GC5tHQPEXNa37cVJ69qhpoam9uVmejR+2OvPh8Vo9LYJQD1mo9FoOBxub+2dn+wfPW2sDy5ECgAAAAAAAAAAAAAAAAAAAAAAAAAAAAAAAAAAAAAAAAAAAAAAAAAAAAAAAAAAAAAAAAAAAAAAAAAAAAAAAAAAAAAAAAAAAAAAAAAAAAAAAAAAAAAAAAAAAAAAAAAAAAAAAAAAAAAAAAAAAAAAAAAAAAAAAAAAAAAAAAAAAAAAAAAAAAAAAAAAAAAAAAAAAAAAAAAAAAAAAAAAAAAAAAAAAAAAAAAAAAAAAAAAAAAAAAAAAAAAAAAAAAAAAAAAAAAAAAAAAAAAAODP9uCQAAAAAEDQ/9dusAMAAAAAAAAAAAAAAAAAAAAAAAAAAAAAAAAAAAAAAAAAAAAAAAAAAAAAAAAAAAAAAAAAAAAAAAAAAAAAAAAAAAAAAAAAAAAAAAAAAAAAAAAAAAAAAAAAAAAAAAAAAAAAAAAAAAAAAAAAAAAAAAAAAAAAAAAAAAAAAAAAAAAAAAAAAAAAAAAAAAAAAAAAAAAAAAAAAAAAAAAAAAAAAAAAAAAAAAAAAAAAAAAAAAAAAAAAAAAAAAAAAAAAAAAAAAAAAAAAAAAAAAAAAAAAAAAAAAAAAAAAAAAAAAAAAAAAAAAAAAAAAAAAAAAAAAAAAAAAAAAAAAAAAAAAAAAAAAAAAAAAAAAAAAAAAAAAAAAAAAAAAAAAAAAAAAAAAAAAAAAAAAAAABwBYx7uDlGBYXIAAAAASUVORK5CYII=;" parent="1" vertex="1">
          <mxGeometry x="70" y="457.52" width="70" height="52.48" as="geometry" />
        </mxCell>
        <mxCell id="dYesfy6yM3i9_zLge6Ut-7" value="" style="shape=image;verticalLabelPosition=bottom;labelBackgroundColor=default;verticalAlign=top;aspect=fixed;imageAspect=0;image=data:image/png,iVBORw0KGgoAAAANSUhEUgAAB2IAAAWJCAMAAACb+ydZAAAJ0WlUWHRYTUw6Y29tLmFkb2JlLnhtcAAAAAAAPD94cGFja2V0IGJlZ2luPSLvu78iIGlkPSJXNU0wTXBDZWhpSHpyZVN6TlRjemtjOWQiPz4gPHg6eG1wbWV0YSB4bWxuczp4PSJhZG9iZTpuczptZXRhLyIgeDp4bXB0az0iQWRvYmUgWE1QIENvcmUgNS42LWMxNDAgNzkuMTYwNDUxLCAyMDE3LzA1LzA2LTAxOjA4OjIxICAgICAgICAiPiA8cmRmOlJERiB4bWxuczpyZGY9Imh0dHA6Ly93d3cudzMub3JnLzE5OTkvMDIvMjItcmRmLXN5bnRheC1ucyMiPiA8cmRmOkRlc2NyaXB0aW9uIHJkZjphYm91dD0iIiB4bWxuczp4bXA9Imh0dHA6Ly9ucy5hZG9iZS5jb20veGFwLzEuMC8iIHhtbG5zOmRjPSJodHRwOi8vcHVybC5vcmcvZGMvZWxlbWVudHMvMS4xLyIgeG1sbnM6cGhvdG9zaG9wPSJodHRwOi8vbnMuYWRvYmUuY29tL3Bob3Rvc2hvcC8xLjAvIiB4bWxuczp0aWZmPSJodHRwOi8vbnMuYWRvYmUuY29tL3RpZmYvMS4wLyIgeG1sbnM6ZXhpZj0iaHR0cDovL25zLmFkb2JlLmNvbS9leGlmLzEuMC8iIHhtbG5zOnhtcE1NPSJodHRwOi8vbnMuYWRvYmUuY29tL3hhcC8xLjAvbW0vIiB4bWxuczpzdEV2dD0iaHR0cDovL25zLmFkb2JlLmNvbS94YXAvMS4wL3NUeXBlL1Jlc291cmNlRXZlbnQjIiB4bWxuczpzdFJlZj0iaHR0cDovL25zLmFkb2JlLmNvbS94YXAvMS4wL3NUeXBlL1Jlc291cmNlUmVmIyIgeG1wOkNyZWF0b3JUb29sPSJBZG9iZSBQaG90b3Nob3AgQ0MgKE1hY2ludG9zaCkiIHhtcDpDcmVhdGVEYXRlPSIyMDE4LTAzLTEyVDExOjI5OjIyKzAxOjAwIiB4bXA6TW9kaWZ5RGF0ZT0iMjAxOC0wMy0xMlQxMTozMDo1MCswMTowMCIgeG1wOk1ldGFkYXRhRGF0ZT0iMjAxOC0wMy0xMlQxMTozMDo1MCswMTowMCIgZGM6Zm9ybWF0PSJpbWFnZS9wbmciIHBob3Rvc2hvcDpDb2xvck1vZGU9IjMiIHBob3Rvc2hvcDpJQ0NQcm9maWxlPSJzUkdCIElFQzYxOTY2LTIuMSIgdGlmZjpPcmllbnRhdGlvbj0iMSIgdGlmZjpYUmVzb2x1dGlvbj0iMTE4MTEwMC8xMDAwMCIgdGlmZjpZUmVzb2x1dGlvbj0iMTE4MTEwMC8xMDAwMCIgdGlmZjpSZXNvbHV0aW9uVW5pdD0iMyIgZXhpZjpDb2xvclNwYWNlPSIxIiBleGlmOlBpeGVsWERpbWVuc2lvbj0iMTg5MCIgZXhpZjpQaXhlbFlEaW1lbnNpb249IjE0MTciIHhtcE1NOkluc3RhbmNlSUQ9InhtcC5paWQ6YTU0MzQ0ZTgtMTRlYS00NDcyLWEyMmItYmI3YzlmYjFjNjQ4IiB4bXBNTTpEb2N1bWVudElEPSJhZG9iZTpkb2NpZDpwaG90b3Nob3A6M2MyNjc2MjctM2Q5Yi1jNzQ0LWJkODgtMTA0NDdlN2FhZjZlIiB4bXBNTTpPcmlnaW5hbERvY3VtZW50SUQ9InhtcC5kaWQ6NTljOTg4YzktNTlkYi00NmU1LTgzN2EtMTc3OGM5NGQ0NDJjIj4gPHhtcE1NOkhpc3Rvcnk+IDxyZGY6U2VxPiA8cmRmOmxpIHN0RXZ0OmFjdGlvbj0ic2F2ZWQiIHN0RXZ0Omluc3RhbmNlSUQ9InhtcC5paWQ6NTljOTg4YzktNTlkYi00NmU1LTgzN2EtMTc3OGM5NGQ0NDJjIiBzdEV2dDp3aGVuPSIyMDE4LTAzLTEyVDExOjMwOjQzKzAxOjAwIiBzdEV2dDpzb2Z0d2FyZUFnZW50PSJBZG9iZSBQaG90b3Nob3AgQ0MgKE1hY2ludG9zaCkiIHN0RXZ0OmNoYW5nZWQ9Ii8iLz4gPHJkZjpsaSBzdEV2dDphY3Rpb249InNhdmVkIiBzdEV2dDppbnN0YW5jZUlEPSJ4bXAuaWlkOmVhMWM5MjRhLTJjYjUtNDczZS05OTdiLTdmYTFiZmRmMWUzNyIgc3RFdnQ6d2hlbj0iMjAxOC0wMy0xMlQxMTozMDo1MCswMTowMCIgc3RFdnQ6c29mdHdhcmVBZ2VudD0iQWRvYmUgUGhvdG9zaG9wIENDIChNYWNpbnRvc2gpIiBzdEV2dDpjaGFuZ2VkPSIvIi8+IDxyZGY6bGkgc3RFdnQ6YWN0aW9uPSJjb252ZXJ0ZWQiIHN0RXZ0OnBhcmFtZXRlcnM9ImZyb20gYXBwbGljYXRpb24vdm5kLmFkb2JlLnBob3Rvc2hvcCB0byBpbWFnZS9wbmciLz4gPHJkZjpsaSBzdEV2dDphY3Rpb249ImRlcml2ZWQiIHN0RXZ0OnBhcmFtZXRlcnM9ImNvbnZlcnRlZCBmcm9tIGFwcGxpY2F0aW9uL3ZuZC5hZG9iZS5waG90b3Nob3AgdG8gaW1hZ2UvcG5nIi8+IDxyZGY6bGkgc3RFdnQ6YWN0aW9uPSJzYXZlZCIgc3RFdnQ6aW5zdGFuY2VJRD0ieG1wLmlpZDphNTQzNDRlOC0xNGVhLTQ0NzItYTIyYi1iYjdjOWZiMWM2NDgiIHN0RXZ0OndoZW49IjIwMTgtMDMtMTJUMTE6MzA6NTArMDE6MDAiIHN0RXZ0OnNvZnR3YXJlQWdlbnQ9IkFkb2JlIFBob3Rvc2hvcCBDQyAoTWFjaW50b3NoKSIgc3RFdnQ6Y2hhbmdlZD0iLyIvPiA8L3JkZjpTZXE+IDwveG1wTU06SGlzdG9yeT4gPHhtcE1NOkRlcml2ZWRGcm9tIHN0UmVmOmluc3RhbmNlSUQ9InhtcC5paWQ6ZWExYzkyNGEtMmNiNS00NzNlLTk5N2ItN2ZhMWJmZGYxZTM3IiBzdFJlZjpkb2N1bWVudElEPSJ4bXAuZGlkOjU5Yzk4OGM5LTU5ZGItNDZlNS04MzdhLTE3NzhjOTRkNDQyYyIgc3RSZWY6b3JpZ2luYWxEb2N1bWVudElEPSJ4bXAuZGlkOjU5Yzk4OGM5LTU5ZGItNDZlNS04MzdhLTE3NzhjOTRkNDQyYyIvPiA8L3JkZjpEZXNjcmlwdGlvbj4gPC9yZGY6UkRGPiA8L3g6eG1wbWV0YT4gPD94cGFja2V0IGVuZD0iciI/Pk3/e9QAAAAJcEhZcwAALiMAAC4jAXilP3YAAAIWUExURUdwTAoKCiYmJn19fQICAq2trQYGBp+fnw8PDwAAAEBAQBISEjY2NpmZmUVFRb+/v11dXS8vLx8fH09PT3BwcHZ2drKystPT04ODg7q6usvLy5SUlBcXF2dnZ4uLizs7O9vb21dXV9fX11NTU2tra6Ojo6amprW1tYeHh8/Pz2JiYhoaGktLS4+Pj8jIyMLCwg0NDSoqKh0dHQAAAP///+Dg4GBgYHBwcNDQ0JCQkFBQULCwsEBAQMDAwBAQEAICAv39/QcHBwQEBPz8/Pj4+CAgIBQUFAkJCf7+/hEREQwMDIuLi2VlZRsbG0hISLi4uPf391tbWw4ODtnZ2Xd3d4CAgO/v7319fTs7O6amppWVlfLy8hgYGB4eHiMjIzQ0NJiYmCcnJ6CgoMjIyCsrK3R0dOPj4+Xl5WdnZ6ioqNXV1aysrPX19YSEhDg4OOrq6oiIiJycnOfn54eHhzY2NkNDQ1hYWLa2thYWFi8vL9/f3729vcXFxd7e3qurq3p6emxsbPr6+vHx8c7OziUlJUpKSrq6ulRUVNvb28zMzAsLCy0tLV5eXkVFRb+/v01NTWJiYunp6WlpaVZWVj09Pevr60FBQc/Pz/Pz8ykpKcfHx9TU1IGBgZubm1JSUjExMY2NjUxMTLOzs5KSkp6ensPDw3JyctfX1+7u7srKyqOjo29vb+zs7FNTU6+vr5+fn66urmtraycldZYAAAAzdFJOUwDUuWLcMthAz9+fzalGmSCCr7+QbmgsC1wkE0vIeFOjA4cHjHM8OClYD3zEk1AXHNG0wkJpf1AAACAASURBVHja7NWNCsFgAEBRMx+NmDE/DZGlpZjw/u/GOyg2nfMQ93Y6AAAAAAAAAAAAAAAAAAAAAAAAAAAAAAAAAAAAAAAAAAAAAAAAAAAAAAAAAAAAAAAAAAAAAAAAAAAAAAAAAAAAAAAAAAAAAAAAAAAAAAAAAAAAAAAAAAAAAAAAAAAAAAAAAAAAAAAAAAAAAAAAAAAAAAAAAAAAAAAAAAAAAAAAAAAAAAAAAAAAAAAAAAAAAAAAAAAAAAAAAAAAAAAAAAAAAAAAAAAAAAAAAAAAAAAAAAAAAAAAAAAAAAAAAAAAAAAAAAAAAAAAAAAAAAAAAAAAAAAAAAAAAAAAAAAAAAAAAAAAAAAAAAAAAAAAAAAAAAAAAAAAAAAAAAAAAAAAAAAAAAAAAAAAAAAAAAAAAAAAAAAAAAAAAAAAAAAAAAAAAAAAAAAAAAAAAAAAAAAAAAAAAAAAAAAAAAAAAAAAAAAAAAAAAAAAAAAAAAAAAAAAAAAAAAAAAAAAAAAAAAAAAAAAAAAAAAAAAAAAAAAAAAAAAAAAAAAAAAAAAAAAAAAAAAAAAAAAAAAAAAAAAAAAAAAAAAAAAAAAAAAAAAAAAAAAAAAAAAAAAAAAAAAAAAAAAAAAAAAAAAAAAAAAAAAAAAAAAAAAAAAAAAAAAAAAAAAAAAAAAAAAAAAAAAAAAAAAAAAAAAAAAB85nIs0TasQwgCAbzu987tM67Md/YfjLWzi3XyfzUb9JEmeAPzau8ZJ9Mgm08U1FEbVPqvlNZ/fI1MFaPhuo6yMB7VvtcJtnA+31grQqtP2uuW6srAGC4vLzFwBXuzd62ukVx3A8U4ymewkmdwm191cZpJNNvcbrljbErdaaWEFKYhadG9eXmjVF1prQS0FC7YKQvGFdV+sVGyh+kdKhZZWdrdJZs7M+T3P5/MPLJtfyJfznOc5J+yKdqDdmBez/NauK+u76goQv7OjzStrqpaNxdmxqroCFCezJztz4tZ/BwsjNXkFKFxla3vDGtdPm+1L8gpQ1MpWRxpK1x+NcctXgKKvZZtDetdrK2PebQIoRWVHZ7xk3EMb495uAihRZVc3pa83rw9PVvQVoGSRXVrQv+QWTvQVoIyRrS23RDChiXUPiAFKq9p2Z0Aqw1P6ClDupWxTZFPYWhJYAJFtO1yx22a94gTAR6rLothNM86YAODjhWzF28XdW8EKLACfjuy0I5+685XOkcAC8H+RHfcFT8caXnIC4CFqnhZ3eJDTscAC8PCF7LEPeC6u1RRYAB6pOiiVF92Erfn1AeCxC9lttbzIM+IBS1gAPkdtRTDPbUdgATjDQnZcMs9nbldhAThTY3cnZPMcJgUWgLOqbgnnmXdh3QgLwHkWsuvaecbjEqt+WwA4V2OPnfV0lm9hxyxhATivURuyn2voyO8JAOdX29DQx5uxhAXgQurOLH6sVYUF4KKNvaqjj3TgY1gAOmhsW0ofYcORxAB01Ng9MX2oQUtYADps7IicPkRbYQHQWC86AaCxQbi4DoDuNNbNO5+x7VViALrV2KaufupjnVG/EQB0rbE7yvqxiYrfBwC62NhZbVVYAJI09oq6fmTOgRMAdFn1mr4+8cQ1hQWg6yrbCuspMQApnCiswgKQQumPoLjs/nUAEjW23FfbrfkeFoBkjd0sc2JP/AIAkExlrbyFnXJqIgAJHZe2sCMKC0BK9eWSFnZSYQFI3Ni5UhZ2S2EBSG20jIUdUlgA0i9jS3ix3bYjJwDoRWM3SpfYaVMHoBdK96jYy8QA9GgZ2y5XYWcVFoBeNbZU99rNKSwAPTNdosK2Lpk3AL1bxg6WJ7Fjxg1AD9VaZSnsjMfEAPRUWT6OvaawAPRWfbEciV0yagB6bKoUhW1axALQ82VsGc54aigsAL13UoLvdRxNDEA/lrGN4h+caMoAWMYmcMVjYgD6s4zdL3hij8wYAMtYbxMDUKRl7HCRCzuksAD0zUCRE7trvgD0bxk7VNzCXrWIBaCPVgtb2IOq6QLQz2XsZVfYAUAKkwUt7LDHxAD0V80FOwCQQn2lkIWdtYgFoN8K+d1Oq2awAPR9GXtYwMSumysA/bdTvMIeekwMQAYqPtgBgBTqG0Ur7JxFLABZ2CtaYqfMFIAsFO3T2E2LWADyULQr7QaMFIBMFOtJccMiFoBcFOtJsWtiAchGoW6NtYgFICNFum5n2jgByMdocQq7YRELQEYKdDH7sWkCkJOFohR2yCIWgKysOp0YAFIoymc7ixaxAOSlvliMxI4bJQCZGSxEYectYgHIzUghErtskADkphj3slcMEoDcFOLL2C3PiQHIT6MAiT0xRgDys+PYCQBIYSp+YkdMEYAMVcMXds0iFoAcxX/fadYQAcjSRvTELpkhAFmaDV7YTc+JAchT0/HEAJDCQOzCtqpGCECegr9SPGiCAGSq3nKyEwCkEPrK2AkvOwGQrdCnFO+YHwDZCn0r+yXzAyBbkS8CcAMAABkbD5zYpvEBkK/IH8bWjA+AfI3GLWzDc2IAMlZ3UywASOxnODwRgKwTOx+1sMOeEwOQtcOoid0zOwCyds37xACQwlDQwm54TgxA3oaDJnbd6ADI277nxAAgsZ+Y85wYgMwtxEzssskBkLmgt9ntmhwAEpvAtufEAEhsCgsGB4DEprBqcABIrCsAAJBYRzsBQLeE/Ghn0twAyF7IoyeWzA0AiU1g3nNiAPLXCJjYfWMDIH+bARPbNDYA8jcXMLFHxgZA/ibiFfbAViwA+atvOz0RAFIkNuBz4hFjA0BiU6gZGwD5q8Qr7IStWAACOLEVCwApjMVL7LipARDAerzEVkwNgACuhivsoa1YACLYshULACls2IoFgATqh7ZiASBFYh1QDAAp1MIldsvQAIjg2FYsAKTQtBULACnM2ooFgBSGbcUCQAL1A1uxAJAiseG2Yo8MDYAIpqMV9rKtWABCCPdC8YqZARDCYLTE7pkZABHU52zFAkCKxNqKBYAUdm3FAkAK4d52apoZACEsREvsqJkBEEF9MVhht23FAhBCNdoidt/MAAhhzFYsAKQwYysWABKoD9mKBYAUiY22iL1iZgCEcBwtsetmBkAIy7ZiASCB+mawws7bigUgRmJtxQJACtO2YgEghUlbsQCQwrCtWABIoN4KltiGmQEQQrjr2NtmBkAI7WiJXTIzAEJoBCvsmq1YAEKoz9uKBYAERm3FAkAKzWiJ3TUzAELYD1bYVtit2Hdv/vO9t+5f50x+96X/eeuZZ5566sN7d5781o/e+fOXX7l968V8Bnr6jdd+9XQKP3y7PH9/nr37185+WN957daNDmb43IOOx/XzzOd14+7tjv+Pt+8+q5UXU79sK7Ynff3Hj79AN3z1Fx/89qcvvX7zzQcv9HGe33/nu398I93/8Qfvf68Mf33e/uKrL3fhx/X89d/fvMgvw59+9vevdWdgHzz5bp4/4dNX7vzkK136nXz9N3p5AUfRnhNPRvwpP3hVGhP42/33Xnr/L7dOe/5369f/Sv5/e+Pe06cF/9vzh1/+p3s/r5fvfP2c//yb3R3ivRfy+wnf+Pf1bv4Xv/ntU8U8t3Fbscm9eOd5OUxZo/v/Ze9am6o6smj5LoxxotHJmCprkqoZtSaVMSlBLgLChctbQAERkKcgCooKIqNcGYQRCKCjg6AYfCAOjyCK+YfzBb7MB+3L7bV7971r/YGzH+fsdbpX794fX5yok8vn03YZvy71n4zdwlM2cddyuKZKInl+/bDtdPXVa4vxUK9tH8N5pMxIcYRSLBpNi2RBASyFix5JLCSCjXI+db2J0bJTVzQI+NWKgGMfTNt/fquujVTIizrMdWykUuxRSrFgNEyR/qSQP1PzvhCbztx5SYcyS2Ky7BwPYf6yjAXsWcjzSzXFOLcZ4mMHSTMybKIUi17DkmFlERp+lwPc3xyV9aYrN/aKDm4fYNbQghTQ80/oCXJxOegv9iFZMyLs9I1i93oW4MJ2kp48mn8HMVPWsLQrbTFXc4p/xZ1/M2vfWUA9f1TPGvYXlI9JlGMjwhbfKNY3KfYt+c7NEajUIUQ6Z+U9GYmxkjPZBQzWLRMLHmbCnt+tZaPgLi7G90ibkUixBzxj2B2eUezzbLKdK5RPWL8RoMqBGyux1SH7bgAZrAWTBd513PNvxsGf/Sh5MwJspxSLxX/JdA6x1G/57FOzCy/mYqjg5C1jY2VyGKcN+Px0HWFOgwa5gMRpjl2UYrEVZZo85xRd94IW0/ncjRPHY6be1AfAoTJYxU4in39JR5yfQYN8jcRpjv2UYqEoIcm5Rq9FTTbZjQvn62Kk3JQsoUNlkOx05PMrVcT5ETbIaSROcyn2MKVYKG6S4tzjgzUxs9GRB+HYKDfnMtGBGvz8nsU4dtdERaDnsFF+TeY0xlbfFrF/8yzA8yQ4BVh57znFxsQhzrJUfJzeft6MIqgBzRoiPRaC+pjJrh1z7PGNYjf7Fd9giPymAo12FNkOV/Zfve99rWkpx4ep0qAbesY1x3svT/FEcQTYRykWiiqSmxI013pQuz5lv+9Xw45IHPzr+bwduVgLnsSBPJVC4jSXYrd5xrB/9Yxi+8ltWpDUYmNX4roz+yu8rjQZRRIxMllCvseaoKKHGSxPnSBzmlMspVgsOCVWD6ZsXLzzwpn5oXGPC01uWCJE1SYr/RSoCeUaop0HvdwjMZ9tseb4mVIs9t99kMymB4MWOHYsyZn5gSxv60yDSNRWjfbSsY25nRrCfQv8IpI4zXGQUiwUd8hrqji2wWc11t8pYo9DEuHpN7KlLB9qxAMN8T6LDXQNidN8n/iQZwx7yDOKvUda07VXXB99Tp317SRmd3tZZWQm2A8aCoRvsGbkaIh4OtbHETJn7EqxBz0LcBtZTRcWT0a/VVzuzvqgh0WmWORa5xnTpibssaskFf804E2DXDKnMfZSisWii6SmDB+iT2q3u9lJHnZLpIl8A8vGI5WwhL+sIeST4B89Eqc5vqIUC0U9KU0d3qmXuj6BfO8uh00eEAjLwISxPYXY/6NTGmJ+DhvtRhKnOXZQioXiOBlNHU43RZ3WrN+cWd9b6NUHkFctEZTWCDRq8Gm1Jg1RBzdI9ZA4zaXY7yjFQtFJRtMHCwM97191Zv1Lr3ZxAhIhCUeiDWJvwFQxAyAL/HbWkjmN8QOlWCzKSWgKcSb6xE64s37In9d/qFIiIDcjulkSe+/RFQ1hv4aN9y8kTnN8TykWitukM41IsnAu192tXZe8uVrnXL5AOCoju8wPfNhWxTykCmzEO0mc5vjSM4bd5hnFjpDOYvXEU+2KM+ur/Xj5T85JBCMQYaNzGtacOxoiX6p+Eyh+pNhvPKPYv3gW4BSymUq0WriJ8JU7873o/G8REUmWIx1cij0MvqRhGlLGeWzMc8icxvjCt33inz0L8CjZTCdskNSqM+unPDhv8kRicl0EvTrrwB62ndMQ+gawzELiNMfXlGKhKMwkmelE2EJ2y3qdmZ+q/c2XmVzXGvl9kkHsYduLGoJ/ERv1CyROc/xIKRaKEnKZVthoX5x09wd1XPeLLzO5LryBe/yqsCZd0xB9sAb+mMRpLsV+SykWig5SmVactZHfG87MH6zT/N43tErE4OZGdM8KqEnTGqYNZixh415P5jTGT77tE+/xLMDppDKteGYjv8GAM/uHFb/2IpPrIuzVWUdp7GcFPD+zlcRpjt2+UexWv+IbPE0qUwsry8CWkDP7f1f71otMrgtsbC0FPmx7TkMC3mEjX03iNMcRSrFQXCOR6YWdOwKSndl/9b7Ol15mcl3EvTrrW9hYsyY1ZOAK1sfLJE5zKfaoZxS7z7MAV5DI9MLSz3jYmQN3MzS+82n/EXB9A706a1iA2hVSMc13Chv8JjKnMTZRisVijkSmF5a6+4ornXlQofCVT5aYpLuBXp11pEINm9eQghZs8LtInObYSSkWixUSmWJYur6hx5kDoRZtL/yYyOS6jfTqrEux2MO2HRqSAB5Q8U8Spzm2UIqFIoc0phmPLKW52pkHz7J0vfAyk+tuRrFBPo417aGGLLT5cIYhTqTYA5RioagijWnGgqU0F7Q6c+GFqvddZHLdBnt11nAPalt2oYY0dGET0ELmNMZ23/aJd3kW4DTSmGY02srzLWcuZDcoet3PSkyuC0R37wH2sG2zhjQ0YROwQuI0xy5KseB9M9KYZoStJdrdPKXFoJaXXWZy3YW86KzErvCKNCTiFDYDqSROc+z3jGH/6JkUeyyDx500o89aooPtzpyYVfKut/wi4Gwo2pZM8ArvkYZMLGN9TCZxmkuxhynFglFDHlOMaXuJfj3gyol8FZcdyEyui6JXZw2Xsbko0JAK8MmAO2ROY2ylFAvfKQ6RyBTD4iZrhTMnehUcscmYlfB0ODdqQ7ErvICGmgNuYxjMIHMaYw+lWDj6yWOKUWyRZOadedHo/C3P/beEnx0Wijt2hVejoeQcx2ZhjsRpjn2eMezhBA+DPEsi04txm4uH887cKHH8jotMrqu0oXOCzx+OaKg4F7A+XiRxmkux2zyj2P1ehvlJF6lMK6zKSo+duXHppNM3XGRyXcDKjFLwCq9WQ8Hpw/rYTeY0p1hKsSIoTG4nmelEldVEf3Tmh8vpYsGXEh5G26sjssJb1FBuirGJmM4icxpjM6VYsRMIPR2dV1IJI4TTZ6QW/ml2FUl3+xWv3FV0icl1IVvj07CNRS811Joz2FSUkjjNcZBSLKEUeeOnqqd9o9hjQ84odirXUaKeSkyua7W1OQle4Z3R8Ol0Yn2sYHEy3yc+RCmW0EyzyZWeUeyxRmcc6+jKnQWJyXXD1v4fwCu8Og2fzaJP2kqMUyylWEL5/jr6wiDb9WKs3BnHPnCQn7E2Cc867DViYn+BkjR8M7XYZFwNsiwZYy+lWEI5msBnVa1fVNOd7YpiK4vFs1M/40uvjswKb1nDJwMeXhxmUTLHV54x7AFKsfGHG9iC0WTd4LPOlrHD0rl5IzG5zk6vzhpysbae0vDFgK9sPcuaZI4dnlHsFqYs/vAcWzByrBuc9Zszjp2QTY3I5DpLvTprGPHth20DAO8spLEmGSPhO88o9s/MWRwCu1ICXNlw/6orip2uF8yLyOQ6a706Iiu8Lg3fC3ihHqIUa44ffJNitzNncYhfkQVjAGHxhLNl7LzcBe0ik+tabV8kFICa26bhewEv1NNZkczxPaVYQj+G/Vt3/MMZx4pdH/tEYqk+bLvXtwC7tX1Pw/eSAj7dzYpkji8pxRL6Ad2PnIGYXLviimJDLSI5yRIZbdFhfU3+CGvwuIbvBbtQT7zFimSMhG8oxRL6ke5hB8IrZ8vYUYkLZG9LTK6z2quzhiKoxUsa5qiCF+oDeaxIxviCUizhAaAHJFGNjKvOOFagp6JbYnJdAHF0axRqcqqGzwW8UG9mQTLH154x7B8oxcYloCeKUcpSWa8rih1oQCfkVEjAjVXEaqkQey2Iijmq2IV64g0WJHP8SCmW0I8yaMWA3RUwmemKY9uxXRXBTgEfQpi8lGCtbtDwvWAX6oklrEjGSPjWM4rdyZzFI6qgFeMhzO4brig2sQiZjjqJizWSGnzMiYo5qoXYX7vMQlYkY/xEKZbwANgmU9x1PMGAK4rNn8Rl4+l1AQdKUXP55rFma/hcwAv1URYkc+ymFEt4AOholEzgpmpLyBXH9sGWGiKT616gDubmDUDtPqfhcwFvnhSxIJnjiGcU+yemLC4BPVDch7R8wdlWcQ3GIZHJdZVDuCU41nIVc1SbsT6+YUEyRsJRzyh2N3MWjyiDtvnNQW0PO+NYiMQsMrnuGfCaZewMJBWX94IX6vkFrEjG2OSbFLuJOYtHYLUl7L5XXaUrim0FTDcQmVy3irzZAHqJiY7Le2+Bm5VZkMyx0zOGPUopNi6B1ZYeY43vcbaMtX6lRobEGNwQdN5qEHutsorLezuwCUphQTLHFkqxhAe467V81uaMY0/YdaRAYnJdEraxFNv+pePyXuyZ6cRXLEjGSDhAKZbQD6y2lI/u8itodUWxU1YbX8YlJtfBenXW0A+1PntMwecSBJ9iz2VFMsZ2SrGEB8BqS+We2/8pfLS54S0xue4F+hL9Uqj5zRo+lzRsimZYkMyxi1Is4QGwCqDACO0UZxx7xpYLIpPrgL06625Mx37HKFgwr2FBMsd+zyj2CFMWl8AeAhW4tz3Y7opiK4vteCAyuQ7Zq7OG7jjoGAW3ifWwIBkj4TClWEI/gqf9ax/9P7wecMWxdi70E5lctyowhfQitmP0pIbPBbyhX8uKZIytlGIJDwA+BCrSSN/vimITL1uwXmJyHbZXZx3YM9GBOPhcFlmQzLHHM4b9O6XYuASWnspFfMiYd0Wx0zlRL4skJtcliQyBy1iCOvE29j+XxJcsSObYRymW8ADYQ6DLMk7kTLvi2PkoD+mKTK4rlekEuYP1YiT2Pxd7B+jiAAnbKMUS+gE+BHpZyI3HzraKF6Ky++lULPTqrOEd1o3bsf+5JBazIplTLKVYwgOAD4GOS/nxwRXFhp5HYfVCJt5AfK/OOq7Evkx5DZurPhYkc2ymFEt4AOwh0PMZUn7kdrni2NGsjdpcKHH547/+x96ZcFV5HnG87r1qjLvHtdo2xjbNMa2sIrlcuGyCqAiiBpBdQLSCKCBFRQFxSTVoDBGUaFxASXryDdvTc++N2fRV+T8z88z8vgB33ndm/rzPPDOT68yXsF/kNf6HS1KdJaTgbBQmsZvslakEewl0yJ0hg2RHxeVv+YsHXGyue+xu/9vXCsqU4DnSKZaQgp8TbxUmsX+zd6YR8CXQCoem1FBJbP/EW/3emw4217np1YnR7H+ZMnwJa2OuZaTgEiutFPuJvTONgC+B7nJoyrVhKo0de4svxfC4N706cbDH3skcwmUC+76aLCEFZ7kwhV1npViVYC+BRiMubenModLYNx+eW9jlolen0KkvYWdUsShTpmJf2HNLSMFZaqVYQwDYS6BP3BozTiWxWW+6FNfF5rqC8bDTp1+NNaeYQ7hkKLBRCgusFGsIAHsJ9IRbY7KnqDR2+M02mbrYXDc56NiVwK3J1RzCZRpr44AlpMCENguT2N/bO9NILTZllDg2Z6CNSmPfZAdZtovte5ed35ypg9rTwSFcGpL8t1EKHwlT2L9YKVYl2EugObtd2zNC1rkTfKNQd6aDn/M44tyXkqEGtXAIl4tJ/tsohS3CJPZje2UqOQxNGfXuDeqiktimoJvWOo951qsTowpr0g8cwgV7c8HZtFEveE+YxK6wV6YS7CXQIvcGVU5TaWzAG6/NDnbbuu3VibEfa1MDh3DpUGCjEEJrhEnsIntnGgFfAr1JYNIDsqPinQF+nZPNdY57dWLcx17e4hAu4JsLX1pCCs4iK8UaAkjBdo2QpPo6KonteP3GOBeb61z36sR5BrUqg0O4gMdXHbeEFJwVVoo1BICVozQSm0rPUWns+df9NBeb65z36sRP6LFmPeUQLtibC0kvLCEF52NhEvsne2Uq6WPTyDKD3Mmi0tjXDKpvdPDDLlNNub2Ntesoh3DB3lxI6rGEFJjQOivFGvzZg00ZV4jMOkUlsZOvmlS/+7yfvToxjkDtGg0zCBfwzYXJsGWkwHwiTGHXWClWJeBLoN1EZkXSqDS267d/lIvNdVHCAXxY8/ZyCJdi7NvLsIQUnCXCJHa9vTKVYNe/PSOzqyFKpbG/qXEuNtclE56mFhZATbvAIVzAF+kaLSEFZ5uVYg0BYC+B3qcz7CmVxI7+einUyeY6ml6dGDuxth3iEC7Y8VU8ys1CCG23UqzBn27Syz9Qeqk0NvPXCmouNtdR9erEwI5d3hdhEC652Bd4yUqxwZllpVhDAFewOaOK0LSqg1Qam/rLH3O9D/9nqXp14lzF/uPCIVxukNXxjZ+z0EqxhgCwl0CTSW07SyWx0dqf/5T9Dtb/XM2ldaVSbD/SOIdwAQ/mKrOEFJw5wiR2i70ylWAv3tbRGtdCpbFT2T/5HU4217VTH6SWYO07wyFchrE2nrSEFJjQWmESu8HemUbAl0CLia1rotLYipd/RqWDzXXRW+S+hG1F7s9nEC7gJvK2bMtIgZkvTGH/aKVYlYAvgVYTm3eGSmL7X5rSc9LB5rpzE/S+VA+1sJ5DuIBLD72WkIKzWJjEvmevTCVF0JTRQW5fOpXGjiWObV1srusqpHelfKydpziEC7aJ/KdnH8arWWWlWEMA2EugLeT2RVqpNDYmCZHHDnp1yjn0eoBPDB5yCBdsEzmPzl8hhD60UqzBn9050JQxQm/hRD+RxGb9/+qKi811kyUsfOkE9nGWMjAxD1xPj1hGCsxcK8UaAgBfAm1gYOIFqs/Y4fz/fdk52FxH3asTB3unK42DieAm8kxLSMFZZqVYQwCnoSljmoOJ4SdUGnvEyea6diafPpEo1Mx0DjZim8iTyi0hBWelMIldaq9MJVj54bE2JHeUSmP/raJXJ8YdrKHfcbARvL3priWkwITmCZPYj+ydaQR8CTSVh5W3kryFQ69OjAqspXkMTAQ3kbPo/BUjscIUdrOVYlVyF5sWuawN+d5XheXQqxNnCGppHwcTwU3kTywhBWe2lWINAZRDUwabtSF5HV4KLI9enRjZ2OP4RxxsBDdZn7CEFJyNVoo1BIAtFvJZGzLoo8Iy6dWJcRJ9dYwB2CbypBJLSMHPibcKk9h/2DvTSAS7/oXR2pAa/xSWS69OjDL/v/DAm4RydltGCi6xwhT2d1aKVckhbFpkNKvm2rBvCtvObEzBI//7WR5iTay3hBSc5cIUdoFJrEqwUxnaOIlAZ45XAsunVydG+JL/X7HYTUJJRZaQgrPUSrGOqLyZOp7+bhRV3OhR6qd7oSmD19qQcevVQTIBtriGgY3YTUI8hjBLYYEwiV0u8zHvqZipQGHgkwAAIABJREFUGe8dp/MUuin4EiivWTXZU/4oLKdenRipYJMZTDEBz/NmMYRZCqHNVop1ILDtMzk3YfK2Pj89is2Ku3hZO9DmicCy6tWJg249PkBvInie91UTzuBssFIsnpGZ/gR7qs5PG6Epg92smhE/FHaaZW8Het0Bg2887CYhHkOYpbDFSrFoSgEXGHdq81PsJVB+s2q6fFDYqSqOrtQAt5v+HwvwOgl16eddWC9MYmfLOyRGLNqertLlpuFJaMo4zc7gymn5Cnuf50pR/AkB+UceeJ53QeEOIyihNVaKxZKbDPHye2FVftrj+2fHL3ggXWD3pTD1pRb8JWrq4ATP8x4z4QzOImEK+4E0ie1GzRH4QZWfXsQWzzjOqqmTrbB9E1x9ycEQaOr/LrDzvHlMiJTCCmES+1dhzzf7Xyg3b8rW5KfH9V2QLD1nvToIBhxY39FNa2Mm1rwrJpzB2WSlWChFOD//XJOffgFNGd+wtPlOlliBzarg60pONvL2kpahI1Gsdd07jKCE1lkpFskEMEuOK/LTWpUXJE9JVdhpzntY2t18xX9KaCJ4nvczE87gzLJSrNgDm+eK/LRZ5QXJSJr16sw8rW4eQhPh/20VWNNqdhiBWSJMYjfKerydSEdvUeSnz3VekGyISlRYpr06MUoLXD2HtLLrRPclerGGnTXhDM42K8UigW7+/FaRnzYpvSD51Hp1ZprPXT6M/tZ7mQSA/zO7msmU3ozDJ/bzOkIJbbdSrFhluKVHYauxKeM2X8t7pSks316dGBeSDL+ZSmHUbDFfmMJuDZkyJKjVI7Ep2Jis5Gt51UFZ6a2L/dyfw6ZB3pPWwMbdFlopVqwydCg6J8ZOYTjA2fSzklIb516dOJdNgfyn7S4Xd5tjpVixynBekcQOQ+OxnbXtLXISG+tenThtJkAKuFTNpBS71kqxSPqQTnRRj8LuwYbjDdbGFzZJSWtTElZTVJn8qKCeRz12rjCFnRcyZUhwXY/E7sdGYy5v688ISWq8e3WkPU3jHSlj4W6LhUnsn00ZEkwq2rQD7X1KSuZufrqEjMa9VyfODRMfHfC4q7JKmMT+3ZQhwSNFpdhn0FhkPyUr0so/obHv1YlTZuKjBA63ikOrrRQrVhka9ShsHjYUi9k/gIl+7umsS8yO7m9Me5Swy0qxvpdiscpwVI/EXsGGooD+YubjEiT06sSxtlgtdDLwtmVWihWrDKOKtsV+q6Bm82rCTzjnsmlJaxV7TXt0wGK3x0orxYq9pbJXUSkWu29GRH9x7ijfXCaiVydBpomPDuo5lGLnWSlWrDJc0KOwhdjVKDL6i2+xTWU1EVHeZMOdlDDCQWKtFIsEuzTrkB6JfYgNRSH9xd/zTGT7bgjzpjQTHxX8M5+Bs80WJrErTRkSRCN6JLYIGopS+ovzOjgmsr4ead7UZ+qjgmYOzrZRmMQuM2VIkKmoFDsFDcUMKY9hkGEee1QozpsOmPpo4CCH/5xDHwiT2LmyYrke6UHjehR2dw40FuX0F9dwS2OSenUS3DP50UAXB1+zUiyUa1BlOKNHYkuwsSinv/jaMK8sJqpXJ0GGyY8GWPz3t9xKsUig48b78/VI7AloKI4KGvXcmcMpicnq1UlwxORHAyz+/VtqpVixylCvqBSLnbogqr94nFEOqxF64a7M5EcBBaUcfG2BlWKRQFvcT+lR2HzsfF5R/cXZU1xSmLhenQQ7TX8UMMaiFLtZlsKullWKjUSRHvRQj8TuwsairP7i2jYeGUxer06CAdMfBdzn4GobrBSL5A7SgbJK9UhsOfZrTNhx5wiLBCawVydBuM0EyH9ucXC1LcIkdrGsSK5AOtBXikqx2LHt4vqLu+jTl8heHVe1fYMFX3PwtPVWikUyhHSgdD0KG8F+dJRLex6V09TZS2avzo8UmQB5D4/BE2usFIu8mALdjPJAj8QewsaivP7i74izl9BenR8pMQXyHhZ9AouEfcSukhXHnVAPytMjsWXQBymxv7iONHnViB+OfS1qEuQ7LA6nVlgpFkkj0oFaFZVi90JDsV7gEylNpktdcnt1nLmUwYASDn62yUqxSB5BvyT0KGz4M2goiuwvvpNFlbkE9+q8RLFJkOcUfMqhFLtOlsJ+KKsUG55EetBZPRJ7FBuLgyIfyimq1OXHZOw8Oyn2HBbHfLOsFIukB+pBe/RI7FPogxTaXxyhWive6seW4uMmQn7TzsHLllgpFslFpAMNKyrFYveiXBX6VBqovsP86BY7YyLkN8UcvGyblWLF/p/8H0Wl2ElTDPcf994fFY+ZCnlNA4dS7HYrxSL5AulAKXok9jo2FHeKfTC9RMnrWKEPbvXAVMhnPuMweGK+sI/YObJCuBbqQdV6JPYiNhbl9hdXHSRKXy1e+FWm6ZDHDHFwsYXCJPYPsiK4GelATYpKseehoTgm+Mnsp8pfXlxnr42aEPnLOAcXmyNMYufLiuDnSAc6rEhiO6ChKLq/uIUofx304j57owmRv3AYPBFaK0th1worxTYhHahZj8JiD9xlf5AVHiNKYL0+eFZ4yJTIWzjcF5hrpVgkuVAHqtUjseA5PLK/x8haT1J9cK3uJpMiTznAwb8WWykWSQrSgb5UdE4MPXAX31+cTpTCog0++FbPqImRn9RxcK9VVopF0o50oOOKJBb7pdEu/OlEWoly2FdeDHkq6Tc18hIOlbTQalkK+76wUuww0oFe6FFY7IG7/P7iF1RJ7LQX7nXTNNZLrlsp1vdSbCXUgXr0SGwKNhRzZT+d8HgBVRLLOuSFfw22mR75xzSHwRPLhEnsf9k786aqsiuKl7Z219PWcuo27VSajikzmpTXicHHg8cMKgiCiIiiTAIiKkMjreCISjQt2qixVQyitN2VfMNU5Y9UBk0ffXfte/bd6/cF4O6z3l73nn32Pot0/XL7kQI6mLRjsdANd+39xYPDEaaxkbJYCKz+Ph0pbnRN+qCsVSzFImlGKmjaUCkWuuEezOl2h7ZIE9mZeCiscBc9KWYO68X9lImFLMUigQ4Zr7HjsJXxPxXxwZwsiDiVZcVDY8VP6Eqx2iXu8UJWCZZikRRBNdRjx2L7sb9Gxf3Fe36MPJfdH4yJyrJu0Jhiw+sjfohqPkux0N8sUkNT+XYsFrrhHpzWG5inIx5ks9hULPIrOulNsSCv3JdusvXKLHaerp8sdCLAsB2H3YbNfHr7iyvSXiS0GA3yfNDBORT6eezNDl9isy6H3aqsFDuOlFGdHYfFbrgHl5SG5eacJxltKk6XKqbuNPCedtV09vvTa6GtFPszXT/W6jykkHLsWOx17E9SaX/xMX92NR/FrGhRdP7k8dztBXQrdYxefubVGZUVyix2qa4f6l6kltIpOxaLHcH7Smd/cb9PO5rx3FIpbTqXk3M1SxsvwcfbvH3wq/UPfcuKy1iKRdKLFPqMoVIstmVR5WmdVINfHw9HtxFfaMeu9SlG2J1PWIpF8ggp9G47Mt2DHQ94UmFICl97tkE3W8x06guHsEv9PSPsTGIjS7FAiqGzxSfs6PQ5NmUo7C9+/sq7ItgL5lNfAN9/O8QIO7OOpVgk0IuyC8rs6LQcexxW3VGd5FkfD5rsZUL1ZIcDu85jSYbYmU0sxSKpRQq9xZBOW6Ap45q2cDTmenmWs62IGdULwLdSTTPC7qzV5bC/V1aKhWbCcjsyLcM2T2g7DJvT52m/xNfMqF6AvZXK0mj0jEms1mWxW3SFNwW9gvK5HZ1OYFPGpK5oXMwLfOU2c6oPgCct9zDCzixmKRZJPVLnJaV2dNoNzRi6+otLBzxu+z94hEk1ehqxi9yVYoidWclSLPRzAyn0XYZ0OgNNGbmaQnFue+Azf+JJmOgB30o1zAi7s4GlWCT72CIRzoZ7GpoyNPUXX0oHfvOSWTVywDNJahlhZxJrWIoFkoTOt7tuR6c52JRxXk0gyjoC30nfYl6NGvAdBg8YYWfmKdsn/q2u8B6FCn3Qjk7roIHU0198Yjbwn12s1EVMKXYU2iineLmzVJnF/kFXeKGzuGcN6XQYmjJatIThdleggV4m1mjJwq7vBUbYnS26HHaNslJsNlLozXZkiu190tJfnHoS6KBkkpk1Usr5CuULia26LHaDrvAmoVNkq+zotAebMnT0Fzd9G2hhezVza5SA74fgmEx3PmYpFskJqNAr7ei0BvvRpcIQsg4GejjO3Boh4FFoeXyBcmcRS7FILkG/FAzpFDtrQUN/cX55oIofmFyjYy92bccZYXc+YikWSQc/FMLZcB+Dpozd/kegckaXwwZvGpldIwM7Ck3D78UbEl/ostjfKYsvdFb7XTs6xfY+KegvnjgdaGOA6TUywO9j3zHCzixQtk+8Uld4r0CF3mRHpzuxKcP3C9iStXmBPr5hfo0I8Ci0gBcWuvOpMotdrCu8FUidtxnSKbT3yfv+4qJ9gUa6rjDBRsMkdmE7GWF3PtPlsL9SVoqdQwq9w5BO30BThuf9xT2tgU5a8plhIwE7Cs1SP37GJD5nKRYJ9EYUQ/tw2N4nz/uLd44GWuGw+Gi4Zvn34hcsxUIphAr9hB2dXsKmDJ/7i6tPBXopOMccGwH5U3Z/L76xnKVYJFVInd83pFPs5TIjHj/50I1AMwc4Lj4CzgVmfy/esUqXw65WVoo9gxR6tiGdQnuffO4vvrs/0A3LdhFwMrD6e/GOxEJdFrtWWXyh947ttKPTY9iUscPX5y4+HqiH02zlmcYu6V1G2N1ile0Tf6krvI1QoR+1o9MKbMrwtb/4ymP9Dhv0sYdSGuzdI6b68TNmPkuxSO4hdT6WtKNTaO9T0OrpU1+fCuLAKeZZYW6BX5oYYXfWsxSLpAEpdEvj6aC9T572F6d2BzHhNhOtLODz9x2MsPs+8WaWYpFA9/lq7OgU2/sUtPv4zEda4uKwweFCplpRsOfvg78zwu4Wy1IsktISpNB77Oj0NjZlPPTwkfe+CeJDbpK5VhLs+XtL/fgZs0KZxa7TFd4spM67UnZ0Cu198rG/ONldEsSJGuZaQa5gF/MVI+zOMl0O+3NlpVjoFdrDhnSKnb7g33GcweEgXqSHmGzlAJ+/z2aE3Vmiy2KXKAvvOFLohqa/Ynuf/OsvnmwL4sbjFLOtGOBm6pOMsDOJjbosdpOu8JYVIIWeY0en/diU4dsXVk1BED+eMd2KgT1/b6kfP2PWsRSLZC9S56OGZr82QzOGZ/3FpdlBHCnJYb4VohK7klO8oNCdTSzFIjmLFPqMIZ1iZxxNe/WsR0eCeNJazYQrQxV2Ifcxwu6sZSkWyQxS6GftyLTI0GnX9rSU5WUfFvbYOSbcOGz6BHWMsDOJ1bosdpmu8BZDL9I2NFw9C5syPOovvjkn5XfpdvQIoP/lOlOuCLPYZaxnhJ1ZrKwU+xtd4c1B6jyvzI5OsYMEu/wpLT3slHK7G0PbtiUvCFvsG17kHYNNnzTPhruzUpfDblRWiq1FCn3ckE6/haYMf/qLq8Sm/h/65wvaw7Swx7KKJ8EP2EXMZYTd2cBSLBLo+IByOzKtzjNRWko1Sznd/gqJl8C3cYlJV/umT9DNCDuTWMNSLDJldiGFnmVHp8+xKcOTZpLCcSmfm731L4l2Clts1zGmXeWbPsEEI+zMPJZikfRAuwxL7ei010Jp6c5BsYO9/1bF75GehPyaPZXKN30KyhhiZ5ayFIukBin0x4Z0ir3UzYv+4vxese/IHf/xh19IbxX/hXkXzFXsArYwwu5s0WWxnygL7wBS6A12ZIodQ+lFaakxV8rhOv/rHrKyVmGLLehh4tW86WPpEEjGJLayFAskOYYU+j07Oj2PTRke9Bc/6JMyuDM3hb953tIuxI1GLI+w63eHEXbmY2Wl2BW6wvsUKvRGOzrtjntp6WKekLtNVb3lrx+S9thmpl4k2IE3pg6BZMwiZRarrBS7Eyn0A4Z0Ch1DGbyO+vFKB6S87fFbj/MWvZH22OfMvcgtEezi7WKE3flIWSlWmcX+CN3wsyPTVDrWpaVzYsXQ5ndczXRb2mL7iph8cYB7nRsYYWcSX7AUi+Q+UuhVdnSag00ZEZeWLo0K+dpU/zv/h33SHpvN7ItjGLt29xhhZxawFIvkBFTohXZ0Whfj0lLZ11KutuvKu/+Lwi5pj73L9Avb9AEvZiND7MynLMUiaUfqfDvfyuNQWrp1QMrTGv7vfI2d0hY7Vcj8C6IHu3IHGGF3PtPlsJuVWWwHUuiGbt7Mx76VR1la2iH19Tj2E7fIJV9Le+xMkgkYQw2464sRdibxuS6L/bWy+LYhhV7Bt/KQiO4K09QZKT8bb/rJz+lRaY+tYQbGAD6ffpsRdkZbKXa+rvA2QYVuaJg6+K08stJS0y4pN9vtMIS5W9piR4eYghFgB96YOgSSMctZikVyF9r1YEin09CMMRvVY303JuRlB52uZErNSntsJy/2RoAdeBO0MsLurGIpFslxpNA7+FYeEk+iear8Z1JO9sjxs2NS2mKD3czBAMAn1+YYYWcSC1mKRfIVUuiGLrYGv5VH019ceUHKx8qd745rFvfY88zC4XMKu2btjLC7xbIUC02iUKHf4lt5SByJ4pkm7guZ2Kv3mKtR3SZtsa17mIZDByytY4ywM/NZikVSBc2chjoesqEZI4r+4mSt1NT/mfd6gcgS/4w9xDQcNsewK3afEXZnvS6H/aUyi4Vuu1maP4d9Kz8u/0BF16QcrDf//f6zU+Ie2888HDLt2AU7xQi77xNv1mWx65XFF3pA86QdnZ7Apgz5/uJ6qan/b977HtzGg9IW+6qSmThcwDcT7mSE3S2WpVjopwpU6Eft6PQbbMpokn6el1IzHnI/wL3uin/GDjMThwv4BY7NzO6sYCkWyXWkzqcMlWKhYyjF+4ur/yZkXSXdH6SRYXGP/Z6pOEwKsas1xrGX7ixjKRbJC6TQ9xnSaV+cztsMjQgZ158nPuwfbBK/cif9kLk4RHZgV2uAEXZnCUuxSKDD8S7akekVbMqQvVOtIi21/frBUyFrxD9jL+czGYcHeOw1B0u7k9ioy2L/qCu8pSVIodfb0WkFNmVIDly9eVzItPJqP3w7L/+yuMd2MxuHxw3sWvUwws6sYykWyXOkzvcbGu46B80YI4JPcuyxkGW1ZTQ06WmBtMXm1TMdh0Ujdqm6OFbanU26HHahMosth54VNaTT7dCUIXj35b0pIce6NpjZP9or/hk7UsZ8HBL9PP/tDWt1WewvlIW3BSn0WjsyBR+QFJt8kHoh9UlYl+mZz+Ib4h7LW77DogG7ULWMsDOJ1SzFAimD7rYZmp5ehfWjIqHHOPJayKxaJzP/Zx+IW2xwhxk5HMDFiAeMsDOLWYpFMoHU+WixHZ1iD0g+EnqKq6+ErGqgyP+gv43Tg0zJYYA9ZWkq82TMSpZikXTHwRh84AA0ZdSJPEOyW8ioCkJqqSjtE/fYaabkMABf5HCBEXZngy6LXaUsvDNIoffakSn4gORTkWeQmpjUGtrJ3OviFhvBrOg4Uo5dpF5G2JnEGl0Wu1xXeFNppNCv2tEp9oBkm8Qj5Eh9Ek6XhvdPZ4tb7FQTs3LmgEv+exlhZ+YpK8Uu0BXeHOgZnWo7OsUekPyrwBPUCLWZjoZ6+VLlYXGPvcDptxmDPWVpKvNkzFKWYpHUIYU+bkin2AOS+HOspdNCBvXVP9g7E6eqkjOKl2sKt7iU+5JotDKpLKYq7Khsjx2Eh2wiu4DsIhFRUcfHMIKigVFRFB0jCijiOP6HqaRSIgrY/Xinu793z+8v6Hfu975zb59eLoZ24E3GLdZLp4KiOIl9Qj9QYXW+YxSLBHrndpx3yhR7I2Af/Kia6quG7OmXrFAPfdK4xQZesC8vE/C6ujgqrEzEUUaxQFKgB/nEe6dOsQskm9HDv+8zY04+wIVwtT7jHjvN0/ncfi/6mQors5ZRLJIOaKGne6dOsVHse+zgs08bsqbr1eLCjoV5xc68LJLBr0XplFiZdbIcdoewKLYBWefjHqpT6K7YAuw++voWQ8bUilmEkhJr3mPvsTUvh4fgWQYqrM4qRrFIoGtcarxTppVYa4KO3W/obnPffdQvqE4ybrHnstib3Z14qKHCykTslmWxG2TJm1iCLPRL3qnTm9COgcy0k2sMmdLgFdyPiDP/GdvM5rwM8rEPx0+FlVnNKBbJFWih53mnTqELs98AF9dU3TZlSchr4O5cNe+xbOPLmNoHX5eYR4mV2cAoFsk76GeLd8o0PSB02iu+xIwfFYBPHbxn3mJLKtmeg+UieOs1FVZnO6NYJK3IQvfQ1ZrYeeIy1LBTcgzZ0fQQ+gnMmPdYXvodNA3YJ1NHhZWJ2MEoFskostCjvVOn0NnW66hR55k6tGEmG/4E0kfNe+wUG3SQgA+WHqHCyjCKhVILLfQ0znuFBNRxfd0/mXGiNiPvWpfMW6yvnh06KBLBlxLzngZ1tshy2D8Ki2Khx7s2eqdMobOUgQpMmys1tNOlxZAR9Zj32Fge8hQUQ9jH0kWF1Tksy2K3C5MXeqjPjGeqtB96awhmU2y6KUf6cMfQU6gcM++xvJU0KLBLF7ifSoOINYxikTQiC73JM2UKXTSGOUeoo9GMB435w6ZxL0RSGZt0EDRjn8pHKqxusYxikVRBC73WK1WK3TAC2fr0LmDGgsZNFkHiU/Mee5X3kgZBF/ahMCJXZyWjWCTRyDo/75UivYz9IARcTZPdasiAnmcYfRL1PvMe+5pdWj9YwT6SN4mUWJn9jGKRvJYXIbpHxnFovygJ/X6XoUFDk8TGD9AsNm+xXrqwMVTkYp9IAhVWnyc+IstifydMX2irvemNGk0H7y3NCf3cRYGh5bb9xh9Gcot5ix2tYKPWpA77RBqosLrFCoti18qSNw9a6Fc8UaID4GVDgVCftprx2pD1lNvY0FKWad5jJ9ioNYnCPpBqKqzMVlkOu1tYFAvdrF/igUCkagr+1XQ6xEPuN3S1at+AnUfyysJUcRM7tUOv9pFjKZRYmc2yLHaVMHlr3H23Tz7hMnlp1d3Rz341sO8l80mIP7rPmHGd27bO18luNG+xY/1s1Tr4sY8jnwqrs5FRLBLoJ1iwgUjiw+KJQQsrQ93kbHRIKTc07Dh7px69tPGU+N3kzKt9ZGQpFVYm4hCjWCDp0ELvCGpMta/O01elU2J1ke1pC7+YXV2HaezDeEiFldnHKBZJvHOBSG0z/SkMvrztXv9wedb8Tw5whY0rr/aRPp4brc5BRrFI4pCFfiuIKeL2AP1JPjm2Z03vWvjR0xls16q8xz6K41RYnb2yLHadMHl/cGvqrLCX9iSfN8P2C/uWhd9dznbtxKt9ZGQ7FVaPYncyigVSCL3LTDsQKXxLf5LPtUoHKjutzcIvP8mGrchj7IO4R4WVWS/LYX8rLIr90alAJHmS/iSfTjeW1k5Z+Onn0tmxHXi1j0zNpsTKbGMUi6TTqUCknP4knllXvuQSbcyI3GDHtv9qHxl5lgqrc4BRLJKzLgUix2hQ4jme50xtD9lYOHeXLdv6qz3iTO8wjmL3MIoFkgHtQt2ao7lNhxJOZrtLJ2b+04ICfZVs2gqAL/UdpsLKrGAUi6TbpUCEH7HSOe/WKpPkUzY+43lPqe1X+8jMLEqszCZZFrtLmLzPXApEauhRsul17Ua3hzZU4C1q3+YR9hHEUmF1dsmy2E3C5IVeJK4biETRpCSTVOze95uNtzbfENv2tyjGPgLuT9aIYo/KstgVsuRN9iEL/aXeYPLoUpLp6nawwAvPWVAilof3fQvwATMPqLAya2U57FFhUWwZNBA5oTcYP21KMLcuO1nh8Ta04HrWb73ag48FqaDEyqxjFIvke5cCEUaxgieJS11d5NNqQY3MY+zcS9KB1f8UFVZnFaNYJPnIQo/THMw4nUoq59z1lIoSC3pEFbJ1L0URVv4LVFg9it3NKBZIyhiy0Af0BpNFp5JKj8vHBo7YUGSGvXsperDq8/gPdVbLcti/CYtiq6GFrtl3h2lVMkktcrvK/2VDlPds3ouT2IcVP40SK7NBlsV+J0zeBmSdT2sOJodmJZLGMservL/AgiqzXHGzOC/AFUmF1dnOKBZJArLQazQHc5ZuJZEJ9w/SKbKhSw+796LEcJbemSh2B6NY5HzNG2Sh+/UGkxGgXckjIOEoo5THNqS5z/69GOBV3k1UmFGsGwxBC13zxpVH9Ct5XO2QseYg1YI2bf1s4IswilW+lgors4VRLJKbyDq/rjmYYhqWOH6Rctq6lZz/bQo7+ILUYnUfpcLqHGYUi+QGstDrNAfTS8eSNkkcI6bSM67bEOgZO/iCNGFlb6XC6lHsGlkW+3dh+nYhCz1aMy8bo2fJ4nq1oFLvtqFQ6kX28IWYwcoeQ4XVLVaWw+4RFsVi52uq9AZzkZ4li1ZZBxi9tqHRqTts4gvQiFX9ChVWZqUsiz0gTN5cZJ3r7k1roGlJwndTWLFnddmQqYZN/GvSsJr3JVJiZfbLsti/cL5mjmbNwSTQtgQxKO9L4YEVoX5kF/+Ku1jJuSFZY574CKNYJNAb0HX3ps3St+TQnC2wnVh5ietKZx//kgtYyYuoMKNYL8zX1OsN5gl9SwwFMrf2552xIdav7ONfMohVvIMKK7OVUazY+RrdvWlNdC4pTA8J7Sf3rcgVzUY+nwqs3m3JlFiZzbIsdhvna4J/eZ+hdQlhJltsQ5m0odcZXvsyH3Ao3kuF1dkoy2LXC5P3FLLQdfemRdG7RNA2Irih1PpsSHaLnXwe5Vi5i6mwehR7SJTD/klYFIudr3mhN5hKmpcIWupFt5RSK6I9YC//nHGs2o+osDL7ZH3E/lWYvJeQda67N81P95JAnfCjFFLGbaj2mL38M7IyoWIHMiixMgcZxYqdr9Hdm1ZD+3KfMb/4nnIxyYZw1Wzmcwxjtb5GhdXZyyi6obLjAAAgAElEQVRW7HyN7t60FhqY84yHwx1hcTaUa2AznwN86VEnFVaPYncyikXO10ALXXNvWjoNzHkuhMUMXLaNdXXP2c3neIvVmsdpqbNe1kfsXmHyxkPXnaY4NBgSikniS2HSVk5aEO80u/ncO04qVOqkQkqszDZZFvsHYfL+G1nounvTcuhhbhPbHzZ9xcIO7Dh280+AbxV8S4XVOcAoFsltZKGXag4mnybmNDVhdGJO+qhx+XLZzT8xhZX6eyqsHsXuEeWwO4VFsdnQpZXHNEcT6znT8rWeETPWvoGw6izGN4glXWY7NzRhVUCp1VnBKFZsJOVLpsUuybWmrH+MSRns7aoway09hgW8wW4+RydU6nYKrM4mRrFiK31SdzRemijOvFb0P8+ScmTkq7A7Vr3S7NtN6hN28zk+IqUe5xUAGuxiFItk0ql3yVKv+GtbT27F/39zs4gBl8SHYW95Z1TCUjbzz7gCVHq2ivpqRLFHRTnsIWFRbEYA2VRO6g6nKtMD9pr6tP3YZ2/ZP0sY89uwvCYm8axBCfMT2c0/B3fkzegLqqvBWlkfsRuFyfsI6iX61519CHN7ne0pvffFjr3Ex+4POydMJ97qfcYknODc5XwGUEoP1lJcHdbJstiDwuQthn766I8n62rYuuub3hz/gn/+K22Oj3wsPmzby4gpDTv5DfslrRilT/PQCT1WybLYfcLk7YV++wQxoMrx8DPXkqcfioaXmGl9GXB6+K2VYdxfRox8x053s5N/RTJiFcKsn8JqRrG7GcUiqxz6ATUc1JA6feFirb7B3gul/rJvb9F77+7GndQbYR5sVeNvnmjJTWEnX4i7XSFW+kznCaqqyWpGsUjKkJ0lMyu4QeU9m5Zrq4GfWiYTLuQU+bufaPz8/gk3Z4jzp9LCvsUkj0wAXzRTY3M62MYX407TZOiOvinIz+UcsT4bGMUiKUI26Njgx5U3/K44TgA5xf8lJmYkeiD+XtlQWlbQa1qeFE+W6IjbVjKPqHkMxs7j2vF5JMzjRt08yj/9tFL/kFfyw5SLuc9CXxydxVMPqu+why9N4aOm0pxla91e5K/merKg2C7LYv8sTF7oUQ/lLF89stPmcWIe7NWEkFATsUOUw/5eWBSb2Ie02AHWLyGEOAyjWCjV0CSvgvVLCCEOs0WWxW4WJm8MdKMCy5cQQlzmMKNYJAlIi33O8iWEEIeJWMMoFsks0mK5B5wQQpy2WEaxSOqhUWwl65cQQhxmJaNYJPeRDhvF8iWEEJfZL8titwqTF3pT6QzLlxBCHCbiiCyLlRbFdiEtNpf1SwghLlusLIf9jTCLrYJGsf2sX0IIcZitjGKR5CIdtovlSwghLrOZUSySOqTFNrN8CSHEZTYyikUShbTYj/9h78yfokqSOB6eEa2OO46roeuxoaGz68aG7gYIiGBDc8gtIIcg4AEiI6eIyKWIiqigjCMyiBeiCDLo6H+4P6ixhnTle/26sjuL+n5+5vVLMrPe91VlviqkLwAACMa32yiF3WuYxFazlmLrkL8AACCY7WZNYv9lmHuLOBV2DukLAACS2WWWxC43zL3POSX2MNIXAAAksw2lWE5mOSX2LdIXAAAE49uHUiwjXayl2FPIXwAAEMxalGI5GeJU2JN+5C8AAAhmI0qxnFRySuwxpC8AAEhmJ0qxnCRwSmwJ0hcAAATj22+Uwv5smMRmZ3FK7AnkLwAACGaZWZPYHYa5d5RTYZtSkb8AACCY9SjFcpLLKbEPkL4AACCZLSjFclLLKbGlSF8AABCM7wBKsYzkpHFK7DjyFwAABLMapVhOCjgVduAo8hcAAASzBqVYTpo5JbYP6QsAAJJZgVIsJzOcEtuG9AUAAMH4thqlsKsMk9jUdE6JLUD+AgCAYFaaNYndY5h7kzgVNqUY+QsAAIJZZ5bE/tcw95ZzSuxdpC8AAEhmE0qxnPRySuwhpC8AAAjGtxmlWEYCTZwSm4j8BQAAwaAUy0oL63HsmchfAAAQzAazJHaDYe4t4VTYp0hfSeSVfqEkLikH7gAW0/V1LJTGDw377fbFHrMkdqVh7p3mlNhKDGVB+E9+2+s9+RZLDMBaHn37nDrZ+N5ilfWtQimW87F7g1NiOzGUBVH3/TmDU/ikCljK1HeD4WqRvRJr1iT2r4a5t5u1FFuFoSyIvEXxab8PrwAr6Vs0GG7b+rRajlIsJ/GcCnsHI1kSzxdHKCsebgEWEihcPBjqh+30xQ6UYjlp5JTYixjKkngaLEbl8Auwj1PBxsJjKzXWt9cohd1s2sYTjzkldgRDWRA5KUGDlAfPAOv4FHQstFfbKLEoxXLyhLUUm4GhLIjLwYOUfgquAbYxH3wwTAbsc8VPZknsOsPc28CpsPUYyZLoV4QpIQDfAMs4rhgM5+xzxY8oxXJSwSmx8xjJklB+Ad0A3wC7yFSNhQn7Phb/AaVYTuo5JRZVPlE8VDZ+++EcYBWDyoeWde1/vt0oxTJSw1qKPYOhLIgMdaDG4B1gFc+UY+Gqba7YjlIsJ3GcCtuOkSyJTnWkpuAdYBXH1IOh2zJX7EIplpOznBLbiJEsiUPqSL2Dd4BVlKkHwyfLXLHNKIX9h2ml2DucEnsdI1kStepITcA7wCbO4OiSr/j2GSWxmwxzbz5rKbYbQ1kQqelEqLLhH2ARVIHsil2uWItSLCednAo7hz5VSXRgjxAAPnOaGAvJdrliI0qx0cq0sJnGSJbEH5BYAD5zkxgLM3a5YidKsZzMckrsOYxkSZCbjOBwdmARR9OwUPwF336UYhnJZC3FdmAoS+IqEap0rOkDixijnlt/WuWKZSjFcvKeU2EnsPOtJLqoWCXAP8AiSqjBYNf2TutRiuXkEKfEHsNIlsQoNpMG4DPkIdkvrHLFFqMUdqtppdgETonFUd+iuIQvmAH4DLkze75NnvAdMEpiVxjm3uIUTok9gZEsiV4qVi3wD7AHcjuA81a5YrVZ68R/N8y9rzgVNj0VQ1kQ/gkiVgNH4SBgD0PUg+ujVa5YY5bErjbMvW2cEpuMkSyJOipWN+EfYBG51GAoscoVK1CK5aSWU2KbMZIlkUfF6jn8AyxihhoM4zZ5wrcVpVhGyO+vw+YyRrIkLlKxyoN/gD0EmoixkJVjkytWmrVOvMYw917mVNg0XeW9QM144khc1EikbKv68kcjifdvRe0r4EBNUmLRF0PUzZBPyRUH9/6o82JehOL3frBOQ9blvCx4ERl7OxNPVIVg2H3qt8jtuUa//NHQq+7iCCZmxv8Tk5kXg3UhtH68pMbC4xBua34LwzqUYjlp5pTYWh0W+semalmn2s4cpuxr+OYPC2dKIr/Rr398qnbAzfcGOVma/PEqJPta2iYHIhqutJtt4ZzvlD1S0RPZ/Hp4rdPtg5ranos8KunbVresC68j0ervb2nri3Dk7za7ff37TdMty8yfxW4ySmH/YlopNpkz49vCty+/+WFs1CGbH7470D7t2q2IBrC6rdXt9wbaVixCOPUus/9gVELW61VDkj4MRMPehVJXIktuz3WcuvL7VreE98yJ2VVeLznyZzXdzvzNjH2bUYplhDw/NMKznWCLsJUDsQJIomxcdIrCQHnkNvvNf75ogt+o/ON+Te644Nq8I7mFUQvaxXse/DleGzV769202LzyvD3X4la3Xs7tFTKnohf5N24qqboOPzF/cx2UYlk5wZnqKWHWfPxvmyQIbGwK9bDODrZt5L3IRC/QXxjKlHtakz9Ou7Uvbi6aYZutDvmF5UNU08zFqVTNnrfnCtLqNpfElpkNN6Ia+Rrnlz90dH5lA0qxnJRzZnqY+8rfuhsrA/L/KAhahI5IQ8lw0L0vx5R/36rJHyMuBas3ynGrrwnNn0VlUTbYubBym7qcPNUqWKvbwChT8WImyo5sP+NkYoGu9yLze4/3oBTLyTHORD8UlmmPJoQoLD1rKw1eEIrAtla/Bl2KU3dx1+jyhzvlut8a9cAdDKVX9+jF6Gea0zzWT00Oya3Ugre6pY9xJOaruag7st5pEVzX3ML846l8q4yS2C2GuTfAKmNhNVQ0x4ohjrLzCsfrhZtV9NfBb3xXeUWnrimCK/v+SBEQuWT3VfGuSQklCYdlxyfUxbXUlYpWt1aGemyJhDHb5/D93JVIF03kSqxZ68TrDXNvB2uaZ4YhIPNyFDb2CWXpgpcWqfBJPay4b6XyEl2nFl5zY99rGaE759afNT0i7K2nq/hx1LWvqStVrW7T2jOzUkbk+2krFzTdpsh4iV1ulsQuM8y95ziT/EIYClshSGHLqKnQLdVVT1nbilOnQy+U6mqWbXBh32khsZtw+ZpXUy/E4Gfe3Uo+7ZX5UqA5M6VEvoksEtzSdZsu4yV2h1EKe8C0Uuw0Z5KHsYbyXJDCxt6mLB1RXpbIGTj1K4iy0UPb91kuNtfIFRM8d7tkdx2UYm8Z2ShHnu1Mfo+tLIzP6E1MOZHPpcws0nSTd+avE+9FKZaznsfal9Apc3Kt9ymtXhabZgxcqfKuC8prWnRVuZzNy5MTvPNuFhNS35lR+L9H7XK2QM7SY0N/J/OCoMi3BiKwmn0dpViUYim6WXPccydFS5ooiR2kbFV/WDTA184/rt4JUb3ZTLwmdzh/stOdLih6bvb6qRRkL/VmNkZdeMXjrK1fY2IOS4o81Tqm6Z1qItt4if0JpVhOrnNm+B2vVh29Kkphya4t6qCiAq6wFZ9X37TUw9pyaA05jkcdpF6QFD0XCjIoyd4bxLS7xHMV97XHOkhoBJ5K8iThkKOaNo1rM15hY35EKZaTRs4MP+vVqmeyFPY4ZSu1O9Y5rrBR9S61rmtqmXWexMpa5v/F+ZWuR5TBGR7HK7nYQrS6tetLzLeiHPnB27ANgblM8yX2B6Mk9p+mubc9WkUliqpCWRI771VOuD6Zq6ZewZUrV116vOHcHZM9ISp8zg0pJbLyjVjfrPe62JJKpYy209iOlIly5O/s7wIN5iusbzdKsYycYc3wGo9Wtcl64sV+8roOMM8UNqpyOKu8alRP8cm5OaZcVviOO9mbsyDLYHUner7nugzZ6lalKzH7ZTnyoNrSX7Tc4LbffIndjlIsJ6ztf/UejUotEyaxpyhrqXnFNZ6oFTd5Wp2/FKGlicBDWeHrcTK4QVi+DSktfU9dVkH9j2SrW7WmxPS3GyOxWr7RelhlvsLG7DJKYfebVopl3UGpwqNRQ8KeeIVUew85r3jDE7U4b0tXWvbkzzWsdyjWxSaytcIMHvRUg4+Np/5HctZ2RFNiFghzpHrrmyodP9/UsQQUNmYbSrGcsO5o47VOUSFsoPZ5fh9gajckd1ftVk4xdFRIK1ysjL0RFr9jTpVtYfYSqybJ1GUt1D9JzdrSdSXmRWGOTFZamqjh17lOKYpwKXYfSrGMZLAm+BOPVrUKG6jkxC038s0Q5MkNTcopd12EFDbmoLD4OZ3HkCdNYpWfUweoCsEAdcxOVVjTfLf0CHNkJWfRZGkobMxalGI5GeHM78cejXoi7Yn3iLKWPBeT5yCAFm8v7hqU5LQbhRU3KXT6yEjaqslVpaXkRjFk4zQ5a9PVlScu8nlKUx+E/ds3CpaEwsZsNEph/2ZaKZZ1YafRo1G/ShuoVDMIOa9Iu8cStXhva9NhBzvlrSvzHkmLn1MLtLS5V4W3vqxK6n8kZ2269gAUF/lhvqJJT93SUNiYnUZJ7E7T3HuHM7/jPRp1Wtg4PU8Ze4q68neeqJGdK+oPPsLdcem8yzn5IWHxK3Owt0uaMKgV70/Pk/UH3mq/oTElzJETykWX4XB/ejp7iSisb79REvtvw9xbxZrg3R6tShA2UD9Sxv5GrqvyhI2sdSo/IyjOCnNu5XYfm0lh8XPqdhqVJrEd3t6SqMk6OWsrDGhKzD5hjnzAVTQ52RCzVFhmVin2P4a5t5Mzv294/Co7J0XYQC2hrJ0PpwjI8GKk/hb5clhOmB10a562E/N08czB4EvC7E1P9fSWRE7WySKursPsAtIif4mpaFKRv2QUNmY9SrGcsB4v4vUkt3Fpk4oxytrj4RQBvUF2rqg3uwhn453ZPPcTnQ5p8XNqS+kVZu+k0tL71GXkXv5kETdXU2KKizxL0STl48uYJcQWlGI5YT0Vo8SjUcL2YKN7lrKpKxd4okZuL6nuSJr2vBwxH1Lv5HVpD1qHqpl/Qpi9U96GBnmm8RvqyiFNiSku8l36iyazzRlLSWD/x961NlV1ZNEaEzN185gkJpWZVDJTk0xMVZya+TBXHoKCShQEBJGHb0VUQPGCgAoEUFHAt4L4QkQxShBl1PmH82mqwPGsw1nde/c5nLO+t910e8/uvfZeq9OpT5NSrCA2i/7/biVXlY/+0Y4sCTShKWHPErSz6ZI5Nmg/4P02KlIbF3lszMT065rWDcGWByUwd0TODxqoVPus9zAkbUXWm4Xa0IFGbBL9m/AeBLM2W7QnPPlR/ZPP4oom9989VX9u15rs/eklhg+iVYr9KGLbmycZYY+zPRSjVDOPEYboniX46t4OkcXCrMvbfmA/x00GxyWuk8cEsLbgJ/qEnS8NMr886Ni4z/58MGtrVDn5cZGNhE/S7eLogJp0jPBhpCLsT1ErxYqqK3rJRW1arfE1WIgMmhPa3leikddFFkvaD1Rx3KRdauTnDSJbAr+Yt3wGT5oM5gA7wjoEJoRF3BZLk0DxU53MLxc+TJzDFU3WpmOE9yIVYv8Rte29LBli2RQOdjkfldmIYbpnCb0JVLJdZLGk/cBTjpsMjCdonj6Z84NfTL/mlAmTwRxgX9ArgQnh64JHNE6+UubkW7hSVRvbe7HUkPo6UiH2i4ht73ZRdQx7F1zD3UuNqNc97PUbPrd7TObYGtCcVc65yYxG72qAL6ZfwQJqxI5vFFnvS22esosr31s8+VqZk2+iKBNYNMlNxwjvJ6VYSYi+PEVTgockWqgwDtPXb/iqXLvMsc2gOT3bMTYMKHGTwxq9qwG+mH6iz7smg0ns0uYp0ZPzA8WWJuk1UU5xgC9JHuKYsvp0jPBxUoqVxAnJEMt+nGCZSqiUBxteoHEB9HosF1lsAWzY9RwGnw7IV2IEVstI9qtMEuezDrLufiS7FOApB9HfeNnWyd83UE6RgKbIazimLDtOIfbLpBQrCVG7swy5qFatxtd5aKev3/fQSBmfcMg9eNt95Chxk+MOutWgg8q/fQbnmwzm0K3NU1Zx5XuLXNCMzMlDU+TTHFN2MB0fpL6KVIj9W8S2t3hAMsSyxFAOdy81wjH2+n2lCAzcUyiy2Fqux+yoEjc54qBb7bJJ4tyhn3Xf1OYpd3Ple4tc0DMHWcImiimrS8cISSlWFKJGhUWl5KqOKjW+zqdeS1jjgrUSqiUfwM6VU57DspS4yXr9bjV4V/RLnF1oxDq1ecpZNOGgpUmg+EnGNh/GylHPYbChuysdI3weqQj7x6iVYmslQ+whdlVZyqL8tI9oEBoX1EhQ5T54TsmE1LjJXP1uNWg/cMZn8JjJYBK9yhYN8A5izeUTip+uimzkSa7B4KWD1udw4odIhdhvora9NyRDLNsnAkNBk8xG7KC9B96gkUMiiyVlQnlK3CSUwAh1q9WYiD6nNBSjCwH7giR4yp0aWVsp4oLuyxRNYFXprOewXfqtz+FEanlSihXEhuOSIfYmuao8DRuaINQrfK0aehtvFlnsNU4mpMVNrnXQrdZiIvrs01CMLgSvESPxG1e+D4ZTDoomsKp013NYv37rc0hDbFKKlcROyQhbwv5H7dQW5aexQxP0Hti3mi3i8iBlQlrcJMwop2S2pMlA9AmfOLWmGF0IXiNG4gya0JbLJxQ/dcqcPGwwKKWYspl0jLAsKcVKokYyxNLVvRv6ScVBWt47RhdxeVygZEKYm7TI4uXrd6vBi86sz+CTGorRt0BqxAr+h8COU41U+T4goInlE5GN3Mt9gqDRY0M6RlgVqRD7SdS2t1IyxLJaOxgKimSSimy6plxGF3FpQJmQd8XrqhY36UACM2byH/GchmL0LUxQPOW8eNI2XVYRIM5u5cr3AdGmXzR5hKac9ByW0W99DilPvDJSIfa7iG0vduExBWuU1+Mgqain/5A+uohL4zZX8dLiJvc5kMBMmYg+X2goRheilNOIvdWlcCez6LD1iCvfBwM0sbwkc/LwijvCFU164hRio1WK/TZi23tQMsIOFJCranaQVOSyidfGbWwRV4je7+S4SYutzy4kMA9MRJ+XNBSjC3GKKy/8X5fC88UadJ7gyvfBUOWgaDJNNRjA5EKo9TmcWBGpCPt91Eqxom8A0O9xvXaQVKxnE68DdBGXxxuujfuYEosHM8rfRHYE2g/4iT7h47ZzMkdIPm77jtzrzOIqJ+uo8n1APNUvmmxEmojznrESNnTfiFGETX+WlGIlkScZYk+yq+JekTHCXVomdE5CGOwDKBPq9hq1nfavCog+feOJkyaizyENxehb4B63fWeXwvR200hkLWub1S+awCvusOewEQetz+HEJ0kpVhLXBSMsbUgKrQzbHCQV0HsA1vEeiSwW1jr7ucO2yOJhCYyM8USOiegzo6EYfQvc47bvzr1uLCKP7dEQrMK3EoWKJvCK6+2tBo0e82IUYVPfJ6VYSWyVi7AzrD8x+4qMXFIBZUKwjrdXZLGw1rnLcxjvX2Uxozwkc35HTUSflRqK0YUgH7f1aFh77T9hMxeJgqHVQdHkBddgkEsRQUsQ3yalWFnkSkXYRp7QhaHgrH5SAWVCm8PWPfuSu0ZYZPFgXiH0TFKWiegTuY6UFIis9zRXXvDKvU77TtigIViFBlInZE7+EtVgAHsvfokTT/xdUoqVRblQhO03KJlCK8O7+kkFlAnBOp7Qs219XAX8Dhi1zSKLt0vfeGKviehzXEUxuhDwOXDv92m9xLQdvpTRjEar21H9okk3JxO6yxFBSxDfRCrEfha9Dd54QSTCDpv8aOfAP7y+VGQb+NeqYR1P5tk2WOv0NtknuUnLeYXMM0lGos9skY4CjEOURsw79/JzFd2iIljN0i+a3OQaDGo4ImjpIfVTpELs3yO4xYON9gPsz0dMOhQH0T+dK7ML8LXqa2jkcMi6Zx9w1wiLrc+QOhd6JqnMRPQJXUccPHHaSOReTT6/uAqNrA1yCVkyJw/tzM95DssXkUJEEB9FKsL+NRXFPd46bTvC9pqp7OArMvUym3AZzXkQDCw8T2WURiBrnVCzeNHe8oZo/RMP+H/Y75XSe2iwjM9PK2fOcZYuoNRykSgY8hwUTXq5BoMO/Z9tOPFFUoqVR2F2tcX4OpBvWi2FGWW2yBYUF7HeA+MOumdhrdO78WWW4iaDI0Prn3jq3ET0SRo+GyGH26N8upmIf6oxAE7oF02gnbl3g8E+jghagvhLUopVwc7McGOReXgdfVBfZd45QWeUBn8/7T0w4qB7FtY6N3lykwNK/O0wrX+iccBE9HkbDV7n4Ja0k8m9fP7KOY1Wt3X67CuU+/Z5Dhtz8LMNJVL/jFSI/Ve0d7u4wAyWGpFgRlkn86fD5odaNLKeyyhNAHsoRzlu0iJ/W1inbzzxH/S3dZocfqfMf7hf0B4VM7kXLnUOcpEo4Mkf12dfm7kGgyn9pvdw4nfRegMglU5gjtt0RsmjBc1ZgUbmUhmlEeBDl/kcN2nxmXsX1Dm0H7hpcvgyPj/dnEYM5V734YTXNFrdehywrw1cg0GfftN7OPGHSEXY3ychVjyjFHKzg56/W8BAqGDvkFlshnPmgJrF2/aWByUwTx1Q590mh+9AaeKtEYN903DC3RqtbjCjnJI5+WqqwQC+jtURp6/tn5JSbPwAkwoZNzvY/DCDRq5FI1/JbFAv58yBNIs2n7l3QJ1DmZCfVc/WsClNqqjcC2exlzVa3Rr02VdSIHbAwc82lEh9GqkQuyIJj9IZpZCbHWx+aKBT7hqRxcIeSm9nDqhZvGBxfWGjzv1EnxfDpjQZpHIv6NUJ+xustbrN6LOvFVyDwTn9n2048UFSio0fYFLhws0O+uPnK7Gv83CYc+bIo/2rguGKA+q808SqpyxkSpM5LvcaRhPu1Gh12+LAcuQhFyth7X5tjL62Hyal2PgBZpTtMnM+QHM+RiORgr3oishiyzlnjk7avyoYIHX+xkFS6CcWmda35zrMdfTdomudRzSytgqNOP4WhrkrbrX+zzaceC9SIXZVEh5twMgKjwN0s4OvXG7SYl/noR3NOeI57IaS2jhs1LmfWAS6VghpjMq5jj6+1tmiIVWu1bccKdxDNRjACu69GH1sU19HKsQuS8KjDcB2+sMiU/KvXI4psa/zMYHmHKfC0HOLy3ulbzxx1UQm9NiBxqid6+irpqvcjRqtbl36Jz/OXXGHOCJo6eH9pBQbP8CWjj0O3OygMd0aJfZ1HraXgCnPe25Qj5bauIMyVTBCs4lVzy0HGiN0S/J+3BbWOmGVeysnww2IOf2TL+euuA/1f7bhxMeRirArkxBrA3xLBw/+lcsHVGeoEU5xG9RM+1cFA9Q/zcqc32sTmVADp58RuyV5d/RVcJYjaZ+maVtky0EHJ9/OxcpKpaJJ6PFlUoqNH2A7fUZmzkZWNAiLuHMyi93BbdAz2r8qGMYcJIUzJjIhOHi//i3Ju6OvlrMcSfv0N9i6RlxzUDQ5xsXKOv2fbSiR+iopxcYP0B99SGRKqBiFcsOTDrwef+U26BjrXxUQU/pJISRQR00Gt8kc4Vmuo6+LsxxJ+zRN2yJbdoeMDpjj8u2uGH1sk1JsHAGt8DaLTPkITXmGTrmFvB7vUBsEP0YzFpfXp58U8gSq3+BfHdySvB+3naMsR9I+TdPWsrYL+id/nYuV2Q5+tqHE55GKsD8mIdYGYDt9tcycZbTYYJe+1+N+NOUl7mPUYG95sFttVOb8eALVdDCJNuSD6NmwNshZjqR9+lBqGaAAABaYSURBVBtsZW3QQEqIDtjBNRjUKxVNQo8fIhVi/5yERxuAVngvZOacpsUG/VRnqBGquA3aQftXBcMBk4ySRCVNoPqxr6f0b0m93MlPoglvaWRttx3QAV1crLyHfrYF8fnYppYnpdj4IaMUChZLo0GxQbcDr0dY8TrHfYwe21ueA/NX+D7ter9HjBH7WlIqsmAYKzu5kx9BE77QIFtqHNABz6kGA5hvz8ToY5tKSrExRK9SKFhs4nWZTrmFvB5n0ZwHqEgC/asC4gVnaGeCcZpA9WNfJ2SO8CmaM487+XE0YbUG2QINpGRsf2Hb0gyXbz+L0cd2WVKKjR+gIZrNULDYxGs3nXLLeD0WD4Apt22kuMl1Ftd3ScNGaCFGTKx6qhzckg6hOT0ft90wwHqybFEhW5pMuAQO2VyDAcy3m2P0tV2VlGLjh8NaoWCxiVcVnXLLeD3CJ1P6uEhywt7yNqvYCC3EJE2g+rGvQo7YKFZ6P27bSnuyVGhcI7aacAkk6rlY2cI1dC89nnhlUoqNH8qVQsFiEy8oGoQpt5DXI3wypYyLJI/sLW/Igf3ABE2gpn2eKnfgiO39uG0O7cnyUOMacdGESyABXybuofLt+4Xx+dgmpdg4YpIrU5kA9izN0Sm3kNfjGTTnmOewWda/KiAy+vYDpeh92rpCA979vgNHbO/3aaHL5xM0YaXGNQIq37L1T/54IZVv98boY7siUhF2eRJi5TOSbpEpn9CiwfLIeD1CbrLR4vL+y965P1dVXXH8IoF6FVAoWhgcKBgKMhSnjQSI2IQkJEBigBBjEBKQMIYQnqEm4U1oACFpI29T5SEReVf9D1un05kqnLXPOfc81jr38/n9zl53rXv3d++99l5ro7JqhK6FTlsK062old7NbY+FrsnSmsQy4kS4UoaFcCNcVulCuAvd2eN1UxJbijrGvi49Gc+YR0I/GryVfK1HcQXeFU5JTkVoX6uy8gOuhc73KUy3y4UhvZvbDoQrOVLmuHcb1TJCLDkSU9nf0+GySuJ+e7SIZtuppiT2T8hj7DuSrfGMeTz0o8Gvk6/1+EwasiecknwfnXlj2qoRuhY6p5KfbkWt7PT82Gjov0Z5EsuIRApIBYm8d1bpfvInZSrJLyAVW3yI69InsQwptioXS72IW+4t8TioIVxlh+7Q9auCUZ5C+YGnhSx0Pkt+uq2QhvRubrs/XMmRMse9228j+lZpVOuW6lC+t91zv70v+ZMylbxFKrYIuRcuTVUIw+Ger7u23GnUerwW6mwyymbZO5MvPyDWjnAtdMQeS2kkJvrCHbaIf42bSSwjEikg9UvEt97LPT92J4WTMpXMJxVbhEjr0tp4Ck+Ircp/CL3lTqHWo3dlB1FJomyWLb2iqLkUi0tGClnoVGhLTHg2txUfiIl/jUs1SSwjvkiigNQvEd96d3t+7EryJ2U6mUMqtvgQ16WDK2PhYOhSL+KW+2QsxopNX/8WTkla/Q/vuhsjzuYxxa9X+m4/OQw+JH34cjwGS5e7vVsRjYUrOVLmKBf4lX+7O6W7x2LJkaoUIu99wWCX9LFj/oc/Y3yyzb9jSmJLkMfY16VpcFSy9rIyY3eGU5IAuJ7ArNYWvx0Ogz9QZq93KyKxSuRd6Tu2RGRbpzTIOW2RP+Bp6oOIRugzPtm+Siq2CBlX9j8VHw2u1TarjMSuJK4nMC3KPLLJkVsQr7qlwelwWe6r0pf8MSLbVkmD7FfmyEHPx0/roxqiw/hku9SUxM5EHSPhkbI/qlgUuU+bxHq+76/cF9EIrkqLPyrzyH2HvcPaQngjVJb7vXbpS3ZFZJtYm+u8Mkd6XzBoimiEh9Yn27mmJHY66hgFYg2iNBCLIq9SZqz3f/5oVEO4Ki12KXNJg8PeRmX2ejekuSQ9EOuVvmN7Eru2yrPKPDnuaerHCSVN1Kdil5GKLT7atG0qxKLIncqM9X7fvyeiEXod8WvXFr8LDoMPK7N3Zbgs9/vSd7wakW3XpUHGtEXee8vdn1DSRDsTSMUWId9r+6Nul7bctcqM/cjT1B8iGsFVnumqtvi5dt17ldl7K1yWu0X6jg2xr+Bcl7HSwHvL/TShpIl2ppGKLUJOKfufLpeMPaBtVmnyNDWqO5SuIj0NyjzS5bC3eZ0yg72b24otTsWaHieSCP4tZY70Loc9lNTyTTuzTEnsFNQxEh4o+6N2S8buUWZsjWcerzqqFPc1R/zOW4pfmaM8l66918lQGdyfierStFhm874yR3p3trgd0QhfWE/FvksqtghvO9Uo+6OK9fG1PTDyvj3bEdEIra7yWp8pc4mr2/hpM6cm9etCZXDLontaJgdf2xPxPbHfdho3PtlONqWwb5KKjYTt2jYVbZZOtb17ef81ohEOuwKo7EJ4jav+7j1lIVwVTih3St8xquB/J3pS2eJ4cCD2lXGb8cl2HqnYImRI2Yzn/Xz9ZzaamVWiqrl0wBG/emXxc7ZQO6jM4Duelh4Nl8GN8DBcThIoc6RwL29XNCM8sD7ZTiQVW4RoK5f0yNIWaFdZ3BJ7whW/SmXxc/V36VBmr1DoZLf0uTHpS0YU/ItlliRWuP8V0e36PdZTsbNJxRYhdcr+qHK6pVvXoein3pbeSUaxyspqVbmk02WutvJcgoM/lLKkUpVPuVW6fypkV7aqcuQ/BUvvRpM1X2N8ri0hFVuUKKsYK1aMU1aVdTz2pcs9d/x03Qh3nWtrK88lnWtXCmnu8wmsWz9wuHKlJkeuk7rnrohkiAvWp9oppiT2DbQxIpTVS+qwswfqEjtyRnHf86u17vj1aHLJLWM/t33iz01oq+4oM9QbgW2Dww5XqjrSEa9//T3u1ZANZpKKLUp0lS64Lhv7oaZ1++exS9+Ij/itUOSSB84G8MrKczWG3XGfk79mFDffW1y+PGMm8huqCh/h8oD1mTb/JqnYokRXwSTXyaiiTZCj7NJI4SMc9hM/RfeHtg0b+7U9lo0Vbi3VxZ5x3ljp8qWi6tTbdsumFl4fZfBz8zOtrVTsIlKxkaEqmecqF9hoZXouay64D8o//F3vUFPkp6bJbewTTT+2+w4HV37h9UlXmaFLDwveFja7nXncTOQ3x3zeYILppGKLFFXVxF03aNdoad12z6l/hwocobPZX/xGlXikarMPY7cq+q25HVwedn1V9k2Btp30U423yUzkq5fHfWpugFJSsUVKpaKbieucs56SC0897h1m8+VEFFbLZqa2wo+tJ/X81i66HVx50eOzZ1yf3FDYUvCzDl+R11GJZbDPbelVFDY/iVRssbJDzxWUvW5rVdygPeTHrwUVP79X7zt+QxreXT31VdxuQI/C9m/wYe/ufS/+8I54zxZu+uwos1bD09iHq/2Y+q9CNLw8C9Ns3pTCziYVGyVX1Mx7Pi74bPg6dSv3jfjzawEv7g9VBojfs6rUXXLR37ZrVM0vrcGfg1+8+9pU7f5kATf1ezb4jfxo+pFfOeTL0vVbQo/QeyMTs+xLpiR2IrIYKWoqOvi51LB9S9qTym6/fn0cdlJpMrZGGl9j64d2fbQg156IM/j7gtQJbEy7++4nfksutYdtCbVxezYm2SWmJHYeqhgtK6p0TH3DfoytO5GmibUfV/v3a7itzHfrg8Zvc6pn/Q+u+bVTyR3Yx3X+Xdv3AtfejTH4/WsDRf7CpjQduWW1f0s/vBkqAVGekSk2v9CUxE5GFCPmmop7KF/5O72rPpJaH691j9sD+bUieGOZ4ztCxG84vePzy2d8146t3KbhV/bBgWCuff464FV/n7x9PXgWtilo5Hend1vx4JNAVYPXrAq85d7UsD4rMyyp2GJnTYuCDs/H/Vo71pPKAdnZ8aGgfm0+FEhWarsPhItf9U/p9Gb/urE+gByk/xMbPNVWuGv9LrP+0hDoJlpVf1OYyF9Znoon9+6pD2rq0f5AI3R9NJCdCXYGqVhEtq8n7V6eR/xb23G6M+Fm5FsOj4Zq9dH8Zb/Pi5+93V8WsGivvr21N1mP1N7/ZjiQiWkXDukK6eBfubY3QPAb+32q7OUf9wyEjvxj7ZH/H59+/MjfCVTVyvEblVmaXl8nFQv/Ye2NzV+uSI+xQMbWH60ov5KIXWfKK3YUcmJV2fH5SKM8RPmFaxFc62hfnVT8Gjc3DVUHNe+WeHEmVnuflF9oq4vItc+CBX+oyRH8n23bbiryhbSVc/9tr4x8e/RS1qbWqaRiASBexLThAP6BzJJfYElhXyMVC2APseHKMfwD2eUtU5vYxQQMwB43pE1sN/6B7PK2KYldSsAA7HFaktgV+AeyyxxTEvsyAQOwx/uSxLbhH8gs+XcsKewCUrEABpFelgzW4x/ILK+a2sQuJGAA9miXNrEX8Q9kl6WmJLaUgAHYQ+wZehf/QHaZSzt2AIgXsbffOfwDmSW/zJTETiBiAPaQGiS1rsE/kFkm5LjtBACxUi21XduJfyC7TDMlsX8gYAD22CH1CBzDP5BdZtFmBwDi5YwgsT24B7JL/l1TEvtbIgZgj8dCb7Qh3APZZbIphc29RMQA7LHFW2L34x3IMPNsSWwJEQMwR523wj6qxj2QYSaaUtjfcaEYwB7nPBX2YQfegQyTn21KYicRMQB7fONZnXg1zoEsU2LrnHguEQOwx0YPha3qwzeQaabYklgqFAMYpNVjD7sZ10C2mWlLYqcRMQBzfPpihT3bhGsg2+Tf5M0OAMRL+QsV9uQwnoGMYywVSxMAAIPsfJHCnmrGMZB1phuTWN7sANjj5vMCe52LTlAElNpSWJ7FAtijvua5ool363ALZJ/8JFsSu4iQAZjj2q+vOd1txylQFBJr7Jx4ISEDMEfL/+vr056+S7gEioOXjEkslScA7NG467980tDyjN6wUEQsMSaxbxAyAAAwQX6hMYldQswAAMCGxBpT2NzbxAwAAExgLRVL/UQAADBCqTWJnULMAADAAtZexVKiGAAAjGCtQHEuN4OgAQCABaabk9iXCRoAAFhgJhILAAAQA/lF5iS2hKgBAIABJptTWHrZAQCACaYhsQAAAHHwRyQWAAAgBvILkFgAAIAYmJFDYgEAAGKgFIkFAACIAYNPdnK5CcQNAADUY/DJDqUnAADAAkstSuyrxA0AALST/41FiaUNAAAAqKfEosLmphM4AADQzismJXYegQMAAOXk55iU2GlEDgAAtEusSYXNzSdyAACgnCk2JbaUyAEAgHIW25TYWUQOAAB0k/+9TYmdSugAAEA3Rs+Jc5MIHQAA6N7EzjEqscvoAwAAAKopyVkFiQUAANVMMyuxJQQPAAAUk19oVmIpUgwAAJqZbFZhc68QPQAAUMx8uxK7hOgBAIBe8ovsSuxiwgcAAHr5s12F5WEsAABo3sRONCyxC3i1AwAAainJ/Zu9e11KHAkDMNwGRBEFQTwgKJ6PqOje/73tj53ard11ZjyQpNP9PLfQqXrr63Q6TearHQCi1W90Yl8tIACR6t40OrH+GAtArHqNLmw4tYIARGrc7MROnHcCIE7ts2Yn1o8AAIjUouGFDYU1BCBG3UnTE7trEQGIUdH0woapRQQgxiF22vjEHnsZC0CElqH5lpYRgPiG2HECiV1YRwCi006gsC6fACBCuykk1stYAKLTPUwhsWFmJQGIzF4ShfVlLADRDbHPaST22k4xAHHZConwW3YA4hpib1NJ7JbFBCAm26kUNjzZKQYgpiF2kkxi/dAOgJhspVPYsG05AYhniB0klNhTYywA0eiHlDhTDEA0Q+xxUol1phiAWOwlVdiwYacYgDi0L9JKbFizpgDEoHuVWGHDg0UFIAabqRU2vNgpBiCGIfYpucSGoWUFoH5FeoUNU2MsAPUPsQcJJjYsLSwAdeunWNgwNsYCULPORZKJdcMTADXrttIsbLi0tgDUqki0sOHYTjEAtQ6xk1QTG/pWF4AaC7ubbGHDwBgLQH16IWH+twNAfUPsRsqJdYsiALUVdhGS5m0sADXZTLuw4dkYC0A9Q+x14okN5xYZgDoKe556YcNZxzIDUL3HkD43FQNQvfYgg8SGmYUGoGLJ3k38bxvGWAAqLuw85GHbWgNQqV4mhQ33fmoHQKVD7G0uiQ37tooBqLCwrZCPkfUGoLLC9jMqbJgYYwGoyihk5UpjAajG2n1eibVVDEA12uuZFTa8OFUMQAW6dyE7LVvFAJRf2IeQobnGAlB2YfshSz1LD0C5hR3mWdhwa4wFoFRvIVcueQKgTL2LbBMb+hoLQGmWxyFjhQcAgJKsTXIubDhc8wgAUE5hByFvt26gAKAMnYOQux2vYwFQWMeKAWiG7HeJ/7KrsQAobCkWGgvAKvWexfWHLY0FYGW6j/fS+rdtjQVgVYUtdFVjASihsHNV1VgASijsuaZ6HwtACYVtKapfAgCwep1rPX3PucYC8K0R9u1YTd93pbEAfKOwW1L6U3caC8CXC7svpL+w7t92AHwtsD33/v/a88wgC8AXCutrWB/IAlCCtm91PuJBYwH43AhbvMjnh+x0PC0AfKKwJ9r5UfeFQRaAjwZ2NFHOT/CXdgA+pj1Wzc+52RRZAH4/wg79fN2VxQCsPrDLJ7380qmnpcgC8AvtB7H8qoXGAvDTEXZuj/g79yk+iiwA7wa2WJfJ7xm3PUYA/C+wjzsS+W2Hjj0B8J/A9k71cSUOXkUWgH8CO3OMeIVni72SBeBHYEdTXVypu57IAvBHd3ijiSILwKr72r4c6GEppm8iC5BxYGf7Ulie66HIAmQ6wPbtEJdscNlWWYDsAvt6p4BVaNkvBsiqr7PxvfhV5fayo7IAefT18cT/1qv+UnbeVVmA1Pv62nLRfz0HjOdeywKkm9e1/umZ1tU4yy7WVBYgvby25y0fwEbwXnb8assYIKXpdb5/oG7xfC57UsgsQALDa/Gw4/BwfA5afTcsAjQ1rt3e/Gr6ImbxOls/uiycgQJoUls7Rf/k1Hc5DXFxcHq1GC5tHQPEXNa37cVJ69qhpoam9uVmejR+2OvPh8Vo9LYJQD1mo9FoOBxub+2dn+wfPW2sDy5ECgAAAAAAAAAAAAAAAAAAAAAAAAAAAAAAAAAAAAAAAAAAAAAAAAAAAAAAAAAAAAAAAAAAAAAAAAAAAAAAAAAAAAAAAAAAAAAAAAAAAAAAAAAAAAAAAAAAAAAAAAAAAAAAAAAAAAAAAAAAAAAAAAAAAAAAAAAAAAAAAAAAAAAAAAAAAAAAAAAAAAAAAAAAAAAAAAAAAAAAAAAAAAAAAAAAAAAAAAAAAAAAAAAAAAAAAAAAAAAAAAAAAAAAAAAAAAAAAAAAAAAAAODP9uCQAAAAAEDQ/9dusAMAAAAAAAAAAAAAAAAAAAAAAAAAAAAAAAAAAAAAAAAAAAAAAAAAAAAAAAAAAAAAAAAAAAAAAAAAAAAAAAAAAAAAAAAAAAAAAAAAAAAAAAAAAAAAAAAAAAAAAAAAAAAAAAAAAAAAAAAAAAAAAAAAAAAAAAAAAAAAAAAAAAAAAAAAAAAAAAAAAAAAAAAAAAAAAAAAAAAAAAAAAAAAAAAAAAAAAAAAAAAAAAAAAAAAAAAAAAAAAAAAAAAAAAAAAAAAAAAAAAAAAAAAAAAAAAAAAAAAAAAAAAAAAAAAAAAAAAAAAAAAAAAAAAAAAAAAAAAAAAAAAAAAAAAAAAAAAAAAAAAAAAAAAAAAAAAAAAAAAAAAAAAAAAAAAAAAAAAAAAAAAAAAABwBYx7uDlGBYXIAAAAASUVORK5CYII=;" parent="1" vertex="1">
          <mxGeometry x="25" y="650" width="70" height="52.48" as="geometry" />
        </mxCell>
      </root>
    </mxGraphModel>
  </diagram>
</mxfile>
